<svg xmlns="http://www.w3.org/2000/svg" xmlns:xlink="http://www.w3.org/1999/xlink" width="1080" zoomAndPan="magnify" viewBox="0 0 810 1439.999935" height="1920" preserveAspectRatio="xMidYMid meet" version="1.0"><defs><g/><clipPath id="510e02722c"><path d="M 0 0 L 810 0 L 810 557.820312 L 0 557.820312 Z M 0 0 " clip-rule="nonzero"/></clipPath><clipPath id="484c1a25fc"><path d="M 0 0 L 810 0 L 810 557.820312 L 0 557.820312 Z M 0 0 " clip-rule="nonzero"/></clipPath><clipPath id="6465527939"><rect x="0" width="810" y="0" height="558"/></clipPath><clipPath id="e586ae4199"><path d="M 44.160156 445.941406 L 245.230469 445.941406 L 245.230469 647.015625 L 44.160156 647.015625 Z M 44.160156 445.941406 " clip-rule="nonzero"/></clipPath><clipPath id="e8347f7c23"><path d="M 144.695312 445.941406 C 89.171875 445.941406 44.160156 490.953125 44.160156 546.476562 C 44.160156 602.003906 89.171875 647.015625 144.695312 647.015625 C 200.21875 647.015625 245.230469 602.003906 245.230469 546.476562 C 245.230469 490.953125 200.21875 445.941406 144.695312 445.941406 Z M 144.695312 445.941406 " clip-rule="nonzero"/></clipPath><clipPath id="8925f18163"><path d="M 0.160156 0.941406 L 201.230469 0.941406 L 201.230469 202.015625 L 0.160156 202.015625 Z M 0.160156 0.941406 " clip-rule="nonzero"/></clipPath><clipPath id="c0da21d392"><path d="M 100.695312 0.941406 C 45.171875 0.941406 0.160156 45.953125 0.160156 101.476562 C 0.160156 157.003906 45.171875 202.015625 100.695312 202.015625 C 156.21875 202.015625 201.230469 157.003906 201.230469 101.476562 C 201.230469 45.953125 156.21875 0.941406 100.695312 0.941406 Z M 100.695312 0.941406 " clip-rule="nonzero"/></clipPath><clipPath id="0d838f2a1a"><rect x="0" width="202" y="0" height="203"/></clipPath><clipPath id="ac0458006f"><path d="M 44.160156 921.261719 L 156.699219 921.261719 L 156.699219 1033.800781 L 44.160156 1033.800781 Z M 44.160156 921.261719 " clip-rule="nonzero"/></clipPath><clipPath id="62892e166a"><path d="M 100.429688 921.261719 C 69.351562 921.261719 44.160156 946.457031 44.160156 977.53125 C 44.160156 1008.609375 69.351562 1033.800781 100.429688 1033.800781 C 131.503906 1033.800781 156.699219 1008.609375 156.699219 977.53125 C 156.699219 946.457031 131.503906 921.261719 100.429688 921.261719 Z M 100.429688 921.261719 " clip-rule="nonzero"/></clipPath><clipPath id="c231963105"><path d="M 0.160156 0.261719 L 112.699219 0.261719 L 112.699219 112.800781 L 0.160156 112.800781 Z M 0.160156 0.261719 " clip-rule="nonzero"/></clipPath><clipPath id="45d4b674b7"><path d="M 56.429688 0.261719 C 25.351562 0.261719 0.160156 25.457031 0.160156 56.53125 C 0.160156 87.609375 25.351562 112.800781 56.429688 112.800781 C 87.503906 112.800781 112.699219 87.609375 112.699219 56.53125 C 112.699219 25.457031 87.503906 0.261719 56.429688 0.261719 Z M 56.429688 0.261719 " clip-rule="nonzero"/></clipPath><clipPath id="f0180f21c6"><rect x="0" width="113" y="0" height="113"/></clipPath><clipPath id="3066478345"><path d="M 187.0625 921.261719 L 299.605469 921.261719 L 299.605469 1033.800781 L 187.0625 1033.800781 Z M 187.0625 921.261719 " clip-rule="nonzero"/></clipPath><clipPath id="5d2c2f70e8"><path d="M 243.332031 921.261719 C 212.257812 921.261719 187.0625 946.457031 187.0625 977.53125 C 187.0625 1008.609375 212.257812 1033.800781 243.332031 1033.800781 C 274.410156 1033.800781 299.605469 1008.609375 299.605469 977.53125 C 299.605469 946.457031 274.410156 921.261719 243.332031 921.261719 Z M 243.332031 921.261719 " clip-rule="nonzero"/></clipPath><clipPath id="d79c17d0ce"><path d="M 0.0625 0.261719 L 112.605469 0.261719 L 112.605469 112.800781 L 0.0625 112.800781 Z M 0.0625 0.261719 " clip-rule="nonzero"/></clipPath><clipPath id="a4f543e98a"><path d="M 56.332031 0.261719 C 25.257812 0.261719 0.0625 25.457031 0.0625 56.53125 C 0.0625 87.609375 25.257812 112.800781 56.332031 112.800781 C 87.410156 112.800781 112.605469 87.609375 112.605469 56.53125 C 112.605469 25.457031 87.410156 0.261719 56.332031 0.261719 Z M 56.332031 0.261719 " clip-rule="nonzero"/></clipPath><clipPath id="99bed4a4b9"><rect x="0" width="113" y="0" height="113"/></clipPath><clipPath id="39aeac03c4"><path d="M 329.605469 921.261719 L 442.144531 921.261719 L 442.144531 1033.800781 L 329.605469 1033.800781 Z M 329.605469 921.261719 " clip-rule="nonzero"/></clipPath><clipPath id="a618ac7a5f"><path d="M 385.875 921.261719 C 354.796875 921.261719 329.605469 946.457031 329.605469 977.53125 C 329.605469 1008.609375 354.796875 1033.800781 385.875 1033.800781 C 416.949219 1033.800781 442.144531 1008.609375 442.144531 977.53125 C 442.144531 946.457031 416.949219 921.261719 385.875 921.261719 Z M 385.875 921.261719 " clip-rule="nonzero"/></clipPath><clipPath id="357cf20d88"><path d="M 0.605469 0.261719 L 113.144531 0.261719 L 113.144531 112.800781 L 0.605469 112.800781 Z M 0.605469 0.261719 " clip-rule="nonzero"/></clipPath><clipPath id="aba5a54a5a"><path d="M 56.875 0.261719 C 25.796875 0.261719 0.605469 25.457031 0.605469 56.53125 C 0.605469 87.609375 25.796875 112.800781 56.875 112.800781 C 87.949219 112.800781 113.144531 87.609375 113.144531 56.53125 C 113.144531 25.457031 87.949219 0.261719 56.875 0.261719 Z M 56.875 0.261719 " clip-rule="nonzero"/></clipPath><clipPath id="d7b9beb680"><rect x="0" width="114" y="0" height="113"/></clipPath><clipPath id="2cfe14dd52"><path d="M 156.699219 1329.144531 L 668.195312 1329.144531 L 668.195312 1388.855469 L 156.699219 1388.855469 Z M 156.699219 1329.144531 " clip-rule="nonzero"/></clipPath><clipPath id="43124121b8"><path d="M 175.449219 1329.144531 L 649.382812 1329.144531 C 654.355469 1329.144531 659.125 1331.121094 662.640625 1334.636719 C 666.15625 1338.152344 668.132812 1342.921875 668.132812 1347.894531 L 668.132812 1370.105469 C 668.132812 1375.078125 666.15625 1379.847656 662.640625 1383.363281 C 659.125 1386.878906 654.355469 1388.855469 649.382812 1388.855469 L 175.449219 1388.855469 C 170.476562 1388.855469 165.707031 1386.878906 162.191406 1383.363281 C 158.671875 1379.847656 156.699219 1375.078125 156.699219 1370.105469 L 156.699219 1347.894531 C 156.699219 1342.921875 158.671875 1338.152344 162.191406 1334.636719 C 165.707031 1331.121094 170.476562 1329.144531 175.449219 1329.144531 Z M 175.449219 1329.144531 " clip-rule="nonzero"/></clipPath><clipPath id="47ce0459f5"><path d="M 0.699219 0.144531 L 512.160156 0.144531 L 512.160156 59.855469 L 0.699219 59.855469 Z M 0.699219 0.144531 " clip-rule="nonzero"/></clipPath><clipPath id="6b9b6f5831"><path d="M 19.449219 0.144531 L 493.382812 0.144531 C 498.355469 0.144531 503.125 2.121094 506.640625 5.636719 C 510.15625 9.152344 512.132812 13.921875 512.132812 18.894531 L 512.132812 41.105469 C 512.132812 46.078125 510.15625 50.847656 506.640625 54.363281 C 503.125 57.878906 498.355469 59.855469 493.382812 59.855469 L 19.449219 59.855469 C 14.476562 59.855469 9.707031 57.878906 6.191406 54.363281 C 2.671875 50.847656 0.699219 46.078125 0.699219 41.105469 L 0.699219 18.894531 C 0.699219 13.921875 2.671875 9.152344 6.191406 5.636719 C 9.707031 2.121094 14.476562 0.144531 19.449219 0.144531 Z M 19.449219 0.144531 " clip-rule="nonzero"/></clipPath><clipPath id="b2e9ece9e7"><rect x="0" width="513" y="0" height="60"/></clipPath></defs><rect x="-81" width="972" fill="#ffffff" y="-143.999994" height="1727.999922" fill-opacity="1"/><rect x="-81" width="972" fill="#ffffff" y="-143.999994" height="1727.999922" fill-opacity="1"/><g clip-path="url(#510e02722c)"><g transform="matrix(1, 0, 0, 1, 0, -0.000000000000101068)"><g clip-path="url(#6465527939)"><g clip-path="url(#484c1a25fc)"><path fill="#919191" d="M 0 0 L 810.582031 0 L 810.582031 557.820312 L 0 557.820312 Z M 0 0 " fill-opacity="1" fill-rule="nonzero"/></g></g></g></g><g clip-path="url(#e586ae4199)"><g clip-path="url(#e8347f7c23)"><g transform="matrix(1, 0, 0, 1, 44, 445)"><g clip-path="url(#0d838f2a1a)"><g clip-path="url(#8925f18163)"><g clip-path="url(#c0da21d392)"><path fill="#d9d9d9" d="M 0.160156 0.941406 L 201.230469 0.941406 L 201.230469 202.015625 L 0.160156 202.015625 Z M 0.160156 0.941406 " fill-opacity="1" fill-rule="nonzero"/></g></g></g></g></g></g><g clip-path="url(#ac0458006f)"><g clip-path="url(#62892e166a)"><g transform="matrix(1, 0, 0, 1, 44, 921)"><g clip-path="url(#f0180f21c6)"><g clip-path="url(#c231963105)"><g clip-path="url(#45d4b674b7)"><path fill="#d9d9d9" d="M 0.160156 0.261719 L 112.699219 0.261719 L 112.699219 112.800781 L 0.160156 112.800781 Z M 0.160156 0.261719 " fill-opacity="1" fill-rule="nonzero"/></g></g></g></g></g></g><g clip-path="url(#3066478345)"><g clip-path="url(#5d2c2f70e8)"><g transform="matrix(1, 0, 0, 1, 187, 921)"><g clip-path="url(#99bed4a4b9)"><g clip-path="url(#d79c17d0ce)"><g clip-path="url(#a4f543e98a)"><path fill="#d9d9d9" d="M 0.0625 0.261719 L 112.605469 0.261719 L 112.605469 112.800781 L 0.0625 112.800781 Z M 0.0625 0.261719 " fill-opacity="1" fill-rule="nonzero"/></g></g></g></g></g></g><g clip-path="url(#39aeac03c4)"><g clip-path="url(#a618ac7a5f)"><g transform="matrix(1, 0, 0, 1, 329, 921)"><g clip-path="url(#d7b9beb680)"><g clip-path="url(#357cf20d88)"><g clip-path="url(#aba5a54a5a)"><path fill="#d9d9d9" d="M 0.605469 0.261719 L 113.144531 0.261719 L 113.144531 112.800781 L 0.605469 112.800781 Z M 0.605469 0.261719 " fill-opacity="1" fill-rule="nonzero"/></g></g></g></g></g></g><g clip-path="url(#2cfe14dd52)"><g clip-path="url(#43124121b8)"><g transform="matrix(1, 0, 0, 1, 156, 1329)"><g clip-path="url(#b2e9ece9e7)"><g clip-path="url(#47ce0459f5)"><g clip-path="url(#6b9b6f5831)"><path fill="#919191" d="M 0.699219 0.144531 L 512.195312 0.144531 L 512.195312 59.855469 L 0.699219 59.855469 Z M 0.699219 0.144531 " fill-opacity="1" fill-rule="nonzero"/></g></g></g></g></g></g><g fill="#000000" fill-opacity="1"><g transform="translate(44.158349, 706.314423)"><g><path d="M 28.359375 -37.125 L 28.359375 -30.984375 L 12.15625 -30.984375 L 12.15625 -21.15625 L 26.859375 -21.15625 L 26.859375 -15.078125 L 12.15625 -15.078125 L 12.15625 0 L 4.828125 0 L 4.828125 -37.125 Z M 28.359375 -37.125 "/></g></g></g><g fill="#000000" fill-opacity="1"><g transform="translate(73.63463, 706.314423)"><g><path d="M 12.828125 0.53125 C 9.671875 0.53125 7.34375 -0.328125 5.84375 -2.046875 C 4.351562 -3.765625 3.609375 -6.234375 3.609375 -9.453125 L 3.609375 -28 L 10.640625 -28 L 10.640625 -10.328125 C 10.640625 -8.617188 11.003906 -7.367188 11.734375 -6.578125 C 12.472656 -5.796875 13.613281 -5.40625 15.15625 -5.40625 C 17.101562 -5.40625 18.617188 -6.046875 19.703125 -7.328125 C 20.785156 -8.609375 21.328125 -10.617188 21.328125 -13.359375 L 21.328125 -28 L 28.359375 -28 L 28.359375 0 L 21.609375 0 L 21.609375 -4.109375 L 21.078125 -4.234375 C 20.179688 -2.628906 19.082031 -1.429688 17.78125 -0.640625 C 16.488281 0.140625 14.835938 0.53125 12.828125 0.53125 Z M 12.828125 0.53125 "/></g></g></g><g fill="#000000" fill-opacity="1"><g transform="translate(106.030631, 706.314423)"><g><path d="M 11.625 0.53125 C 9.101562 0.53125 7.175781 -0.148438 5.84375 -1.515625 C 4.519531 -2.878906 3.859375 -4.945312 3.859375 -7.71875 L 3.859375 -39.25 L 10.890625 -39.25 L 10.890625 -8 C 10.890625 -6.289062 11.601562 -5.4375 13.03125 -5.4375 C 13.4375 -5.4375 13.867188 -5.503906 14.328125 -5.640625 L 14.671875 -5.53125 L 15.3125 -0.125 C 14.925781 0.0703125 14.410156 0.226562 13.765625 0.34375 C 13.117188 0.46875 12.40625 0.53125 11.625 0.53125 Z M 11.625 0.53125 "/></g></g></g><g fill="#000000" fill-opacity="1"><g transform="translate(122.127077, 706.314423)"><g><path d="M 11.625 0.53125 C 9.101562 0.53125 7.175781 -0.148438 5.84375 -1.515625 C 4.519531 -2.878906 3.859375 -4.945312 3.859375 -7.71875 L 3.859375 -39.25 L 10.890625 -39.25 L 10.890625 -8 C 10.890625 -6.289062 11.601562 -5.4375 13.03125 -5.4375 C 13.4375 -5.4375 13.867188 -5.503906 14.328125 -5.640625 L 14.671875 -5.53125 L 15.3125 -0.125 C 14.925781 0.0703125 14.410156 0.226562 13.765625 0.34375 C 13.117188 0.46875 12.40625 0.53125 11.625 0.53125 Z M 11.625 0.53125 "/></g></g></g><g fill="#000000" fill-opacity="1"><g transform="translate(138.223522, 706.314423)"><g/></g></g><g fill="#000000" fill-opacity="1"><g transform="translate(150.486277, 706.314423)"><g><path d="M 11.9375 0 L 4.828125 0 L 4.828125 -37.125 L 13.234375 -37.125 L 28.140625 -13.203125 L 28.796875 -13.3125 L 28.796875 -37.125 L 35.859375 -37.125 L 35.859375 0 L 28.34375 0 L 12.5625 -25.546875 L 11.9375 -25.4375 Z M 11.9375 0 "/></g></g></g><g fill="#000000" fill-opacity="1"><g transform="translate(191.184394, 706.314423)"><g><path d="M 10.921875 0.53125 C 9.128906 0.53125 7.570312 0.203125 6.25 -0.453125 C 4.925781 -1.117188 3.910156 -2.085938 3.203125 -3.359375 C 2.492188 -4.640625 2.140625 -6.175781 2.140625 -7.96875 C 2.140625 -9.632812 2.492188 -11.03125 3.203125 -12.15625 C 3.910156 -13.28125 5.007812 -14.203125 6.5 -14.921875 C 7.988281 -15.640625 9.9375 -16.191406 12.34375 -16.578125 C 14.019531 -16.847656 15.289062 -17.144531 16.15625 -17.46875 C 17.03125 -17.789062 17.617188 -18.15625 17.921875 -18.5625 C 18.234375 -18.96875 18.390625 -19.484375 18.390625 -20.109375 C 18.390625 -21.003906 18.070312 -21.6875 17.4375 -22.15625 C 16.8125 -22.632812 15.773438 -22.875 14.328125 -22.875 C 12.765625 -22.875 11.28125 -22.523438 9.875 -21.828125 C 8.46875 -21.140625 7.25 -20.226562 6.21875 -19.09375 L 5.71875 -19.09375 L 2.765625 -23.53125 C 4.191406 -25.113281 5.925781 -26.34375 7.96875 -27.21875 C 10.019531 -28.101562 12.253906 -28.546875 14.671875 -28.546875 C 18.378906 -28.546875 21.0625 -27.753906 22.71875 -26.171875 C 24.382812 -24.597656 25.21875 -22.363281 25.21875 -19.46875 L 25.21875 -7.3125 C 25.21875 -6.0625 25.765625 -5.4375 26.859375 -5.4375 C 27.285156 -5.4375 27.703125 -5.507812 28.109375 -5.65625 L 28.46875 -5.5625 L 28.96875 -0.65625 C 28.582031 -0.40625 28.039062 -0.195312 27.34375 -0.03125 C 26.65625 0.125 25.894531 0.203125 25.0625 0.203125 C 23.382812 0.203125 22.078125 -0.117188 21.140625 -0.765625 C 20.203125 -1.410156 19.53125 -2.414062 19.125 -3.78125 L 18.59375 -3.828125 C 17.21875 -0.921875 14.660156 0.53125 10.921875 0.53125 Z M 13.15625 -4.71875 C 14.78125 -4.71875 16.078125 -5.265625 17.046875 -6.359375 C 18.023438 -7.453125 18.515625 -8.972656 18.515625 -10.921875 L 18.515625 -13.765625 L 18.03125 -13.859375 C 17.601562 -13.523438 17.046875 -13.242188 16.359375 -13.015625 C 15.679688 -12.785156 14.695312 -12.5625 13.40625 -12.34375 C 11.882812 -12.082031 10.785156 -11.644531 10.109375 -11.03125 C 9.441406 -10.414062 9.109375 -9.539062 9.109375 -8.40625 C 9.109375 -7.207031 9.460938 -6.289062 10.171875 -5.65625 C 10.890625 -5.03125 11.882812 -4.71875 13.15625 -4.71875 Z M 13.15625 -4.71875 "/></g></g></g><g fill="#000000" fill-opacity="1"><g transform="translate(220.711476, 706.314423)"><g><path d="M 4.03125 0 L 4.03125 -28 L 10.796875 -28 L 10.796875 -24.25 L 11.328125 -24.140625 C 12.242188 -25.648438 13.3125 -26.757812 14.53125 -27.46875 C 15.757812 -28.1875 17.332031 -28.546875 19.25 -28.546875 C 21.363281 -28.546875 23.0625 -28.125 24.34375 -27.28125 C 25.632812 -26.445312 26.578125 -25.222656 27.171875 -23.609375 L 27.703125 -23.609375 C 28.566406 -25.285156 29.675781 -26.523438 31.03125 -27.328125 C 32.394531 -28.140625 34.09375 -28.546875 36.125 -28.546875 C 41.9375 -28.546875 44.84375 -25.3125 44.84375 -18.84375 L 44.84375 0 L 37.8125 0 L 37.8125 -17.953125 C 37.8125 -19.597656 37.488281 -20.78125 36.84375 -21.5 C 36.195312 -22.226562 35.164062 -22.59375 33.75 -22.59375 C 29.882812 -22.59375 27.953125 -20.015625 27.953125 -14.859375 L 27.953125 0 L 20.921875 0 L 20.921875 -17.953125 C 20.921875 -19.597656 20.59375 -20.78125 19.9375 -21.5 C 19.289062 -22.226562 18.253906 -22.59375 16.828125 -22.59375 C 15.023438 -22.59375 13.613281 -21.988281 12.59375 -20.78125 C 11.582031 -19.570312 11.078125 -17.644531 11.078125 -15 L 11.078125 0 Z M 4.03125 0 "/></g></g></g><g fill="#000000" fill-opacity="1"><g transform="translate(269.153156, 706.314423)"><g><path d="M 27.671875 -12.421875 L 9.671875 -12.421875 C 9.878906 -9.984375 10.570312 -8.207031 11.75 -7.09375 C 12.9375 -5.988281 14.554688 -5.4375 16.609375 -5.4375 C 18.210938 -5.4375 19.515625 -5.734375 20.515625 -6.328125 C 21.515625 -6.929688 22.316406 -7.84375 22.921875 -9.0625 L 23.46875 -9.0625 L 28.140625 -6.0625 C 27.222656 -4.101562 25.84375 -2.515625 24 -1.296875 C 22.15625 -0.078125 19.691406 0.53125 16.609375 0.53125 C 13.710938 0.53125 11.207031 -0.015625 9.09375 -1.109375 C 6.988281 -2.210938 5.363281 -3.851562 4.21875 -6.03125 C 3.082031 -8.207031 2.515625 -10.859375 2.515625 -13.984375 C 2.515625 -17.171875 3.113281 -19.851562 4.3125 -22.03125 C 5.519531 -24.21875 7.144531 -25.847656 9.1875 -26.921875 C 11.238281 -28.003906 13.539062 -28.546875 16.09375 -28.546875 C 20.0625 -28.546875 23.097656 -27.492188 25.203125 -25.390625 C 27.304688 -23.296875 28.359375 -20.21875 28.359375 -16.15625 C 28.359375 -14.675781 28.304688 -13.53125 28.203125 -12.71875 Z M 21.640625 -16.96875 C 21.566406 -19.09375 21.066406 -20.640625 20.140625 -21.609375 C 19.222656 -22.585938 17.875 -23.078125 16.09375 -23.078125 C 12.539062 -23.078125 10.453125 -21.039062 9.828125 -16.96875 Z M 21.640625 -16.96875 "/></g></g></g><g fill="#000000" fill-opacity="1"><g transform="translate(44.158349, 759.964474)"><g><path d="M 8.015625 0.34375 C 6.804688 0.34375 5.695312 0.164062 4.6875 -0.1875 C 3.6875 -0.550781 2.835938 -1.039062 2.140625 -1.65625 C 1.453125 -2.28125 0.945312 -2.96875 0.625 -3.71875 L 2.109375 -5.65625 L 2.53125 -5.65625 C 3.007812 -4.613281 3.722656 -3.789062 4.671875 -3.1875 C 5.617188 -2.59375 6.734375 -2.296875 8.015625 -2.296875 C 9.054688 -2.296875 9.898438 -2.460938 10.546875 -2.796875 C 11.203125 -3.128906 11.691406 -3.6875 12.015625 -4.46875 C 12.347656 -5.25 12.515625 -6.304688 12.515625 -7.640625 L 12.515625 -24.265625 L 15.359375 -24.265625 L 15.359375 -7.59375 C 15.359375 -4.84375 14.742188 -2.832031 13.515625 -1.5625 C 12.296875 -0.289062 10.460938 0.34375 8.015625 0.34375 Z M 8.015625 0.34375 "/></g></g></g><g fill="#000000" fill-opacity="1"><g transform="translate(62.965762, 759.964474)"><g><path d="M 10.515625 0.34375 C 8.785156 0.34375 7.28125 -0.0195312 6 -0.75 C 4.71875 -1.476562 3.734375 -2.550781 3.046875 -3.96875 C 2.359375 -5.394531 2.015625 -7.117188 2.015625 -9.140625 C 2.015625 -11.171875 2.359375 -12.898438 3.046875 -14.328125 C 3.734375 -15.753906 4.71875 -16.832031 6 -17.5625 C 7.28125 -18.289062 8.785156 -18.65625 10.515625 -18.65625 C 12.234375 -18.65625 13.734375 -18.289062 15.015625 -17.5625 C 16.296875 -16.832031 17.28125 -15.753906 17.96875 -14.328125 C 18.664062 -12.898438 19.015625 -11.171875 19.015625 -9.140625 C 19.015625 -7.117188 18.664062 -5.394531 17.96875 -3.96875 C 17.28125 -2.550781 16.296875 -1.476562 15.015625 -0.75 C 13.734375 -0.0195312 12.234375 0.34375 10.515625 0.34375 Z M 10.515625 -2.078125 C 12.335938 -2.078125 13.734375 -2.648438 14.703125 -3.796875 C 15.671875 -4.953125 16.15625 -6.734375 16.15625 -9.140625 C 16.15625 -11.566406 15.671875 -13.351562 14.703125 -14.5 C 13.734375 -15.65625 12.335938 -16.234375 10.515625 -16.234375 C 8.679688 -16.234375 7.273438 -15.65625 6.296875 -14.5 C 5.328125 -13.34375 4.84375 -11.554688 4.84375 -9.140625 C 4.84375 -6.734375 5.328125 -4.953125 6.296875 -3.796875 C 7.273438 -2.648438 8.679688 -2.078125 10.515625 -2.078125 Z M 10.515625 -2.078125 "/></g></g></g><g fill="#000000" fill-opacity="1"><g transform="translate(83.980924, 759.964474)"><g><path d="M 12.171875 0.34375 C 10.804688 0.34375 9.625 0.0820312 8.625 -0.4375 C 7.625 -0.96875 6.832031 -1.664062 6.25 -2.53125 L 5.890625 -2.453125 L 5.890625 0 L 3.1875 0 L 3.1875 -25.671875 L 5.890625 -25.671875 L 5.890625 -15.578125 L 6.25 -15.5 C 7.632812 -17.601562 9.65625 -18.65625 12.3125 -18.65625 C 13.820312 -18.65625 15.140625 -18.304688 16.265625 -17.609375 C 17.398438 -16.910156 18.28125 -15.847656 18.90625 -14.421875 C 19.53125 -13.003906 19.84375 -11.242188 19.84375 -9.140625 C 19.84375 -7.066406 19.507812 -5.316406 18.84375 -3.890625 C 18.1875 -2.472656 17.28125 -1.410156 16.125 -0.703125 C 14.976562 -0.00390625 13.660156 0.34375 12.171875 0.34375 Z M 11.515625 -2.078125 C 15.171875 -2.078125 17 -4.429688 17 -9.140625 C 17 -11.585938 16.519531 -13.378906 15.5625 -14.515625 C 14.613281 -15.660156 13.265625 -16.234375 11.515625 -16.234375 C 9.804688 -16.234375 8.441406 -15.648438 7.421875 -14.484375 C 6.398438 -13.316406 5.890625 -11.535156 5.890625 -9.140625 C 5.890625 -6.765625 6.398438 -4.992188 7.421875 -3.828125 C 8.441406 -2.660156 9.804688 -2.078125 11.515625 -2.078125 Z M 11.515625 -2.078125 "/></g></g></g><g fill="#000000" fill-opacity="1"><g transform="translate(105.826068, 759.964474)"><g/></g></g><g fill="#000000" fill-opacity="1"><g transform="translate(114.159094, 759.964474)"><g><path d="M 18.9375 -24.265625 L 18.9375 -21.84375 L 11.34375 -21.84375 L 11.34375 0 L 8.5 0 L 8.5 -21.84375 L 0.890625 -21.84375 L 0.890625 -24.265625 Z M 18.9375 -24.265625 "/></g></g></g><g fill="#000000" fill-opacity="1"><g transform="translate(133.564072, 759.964474)"><g><path d="M 4.546875 -21.84375 C 3.972656 -21.84375 3.503906 -22.019531 3.140625 -22.375 C 2.785156 -22.738281 2.609375 -23.195312 2.609375 -23.75 C 2.609375 -24.3125 2.785156 -24.769531 3.140625 -25.125 C 3.503906 -25.488281 3.972656 -25.671875 4.546875 -25.671875 C 5.117188 -25.671875 5.582031 -25.488281 5.9375 -25.125 C 6.300781 -24.769531 6.484375 -24.3125 6.484375 -23.75 C 6.484375 -23.195312 6.300781 -22.738281 5.9375 -22.375 C 5.582031 -22.019531 5.117188 -21.84375 4.546875 -21.84375 Z M 3.1875 0 L 3.1875 -18.3125 L 5.890625 -18.3125 L 5.890625 0 Z M 3.1875 0 "/></g></g></g><g fill="#000000" fill-opacity="1"><g transform="translate(142.644089, 759.964474)"><g><path d="M 12.390625 -2.90625 L 13.25 -0.96875 C 12.8125 -0.53125 12.242188 -0.203125 11.546875 0.015625 C 10.847656 0.234375 10.085938 0.34375 9.265625 0.34375 C 5.765625 0.34375 4.015625 -1.425781 4.015625 -4.96875 L 4.015625 -16.109375 L 0.828125 -16.109375 L 0.828125 -18.328125 L 4.015625 -18.328125 L 4.015625 -22.203125 L 6.71875 -22.640625 L 6.71875 -18.328125 L 12.625 -18.328125 L 12.625 -16.109375 L 6.71875 -16.109375 L 6.71875 -5.234375 C 6.71875 -3.128906 7.632812 -2.078125 9.46875 -2.078125 C 10.457031 -2.078125 11.3125 -2.351562 12.03125 -2.90625 Z M 12.390625 -2.90625 "/></g></g></g><g fill="#000000" fill-opacity="1"><g transform="translate(156.587798, 759.964474)"><g><path d="M 7.28125 0.34375 C 5.988281 0.34375 4.972656 -0.0195312 4.234375 -0.75 C 3.492188 -1.488281 3.125 -2.585938 3.125 -4.046875 L 3.125 -25.671875 L 5.828125 -25.671875 L 5.828125 -4.234375 C 5.828125 -3.472656 5.972656 -2.921875 6.265625 -2.578125 C 6.554688 -2.242188 7.015625 -2.078125 7.640625 -2.078125 C 8.015625 -2.078125 8.394531 -2.140625 8.78125 -2.265625 L 9.015625 -2.1875 L 9.328125 -0.0625 C 9.128906 0.0703125 8.84375 0.171875 8.46875 0.234375 C 8.101562 0.304688 7.707031 0.34375 7.28125 0.34375 Z M 7.28125 0.34375 "/></g></g></g><g fill="#000000" fill-opacity="1"><g transform="translate(166.54759, 759.964474)"><g><path d="M 17.453125 -8.53125 L 4.859375 -8.53125 C 4.941406 -6.3125 5.476562 -4.679688 6.46875 -3.640625 C 7.457031 -2.597656 8.816406 -2.078125 10.546875 -2.078125 C 11.847656 -2.078125 12.894531 -2.304688 13.6875 -2.765625 C 14.488281 -3.234375 15.117188 -3.96875 15.578125 -4.96875 L 15.921875 -4.96875 L 17.6875 -3.921875 C 17.15625 -2.585938 16.300781 -1.539062 15.125 -0.78125 C 13.957031 -0.03125 12.429688 0.34375 10.546875 0.34375 C 8.773438 0.34375 7.25 -0.00390625 5.96875 -0.703125 C 4.695312 -1.398438 3.71875 -2.457031 3.03125 -3.875 C 2.351562 -5.289062 2.015625 -7.046875 2.015625 -9.140625 C 2.015625 -11.222656 2.375 -12.976562 3.09375 -14.40625 C 3.820312 -15.832031 4.8125 -16.894531 6.0625 -17.59375 C 7.320312 -18.300781 8.757812 -18.65625 10.375 -18.65625 C 12.71875 -18.65625 14.546875 -17.992188 15.859375 -16.671875 C 17.179688 -15.347656 17.847656 -13.390625 17.859375 -10.796875 C 17.859375 -9.773438 17.835938 -9.085938 17.796875 -8.734375 Z M 15.1875 -10.796875 C 15.144531 -12.742188 14.710938 -14.160156 13.890625 -15.046875 C 13.078125 -15.929688 11.90625 -16.375 10.375 -16.375 C 8.769531 -16.375 7.507812 -15.925781 6.59375 -15.03125 C 5.6875 -14.144531 5.132812 -12.734375 4.9375 -10.796875 Z M 15.1875 -10.796875 "/></g></g></g><g fill="#000000" fill-opacity="1"><g transform="translate(44.158349, 819.026405)"><g><path d="M 10.09375 -13.28125 L 16.015625 -13.28125 L 16.015625 -10.984375 L 10.09375 -10.984375 L 10.09375 -5 L 7.671875 -5 L 7.671875 -10.984375 L 1.734375 -10.984375 L 1.734375 -13.28125 L 7.671875 -13.28125 L 7.671875 -19.28125 L 10.09375 -19.28125 Z M 10.09375 -13.28125 "/></g></g></g><g fill="#000000" fill-opacity="1"><g transform="translate(61.886779, 819.026405)"><g><path d="M 11.59375 0.34375 C 9.875 0.34375 8.332031 -0.0664062 6.96875 -0.890625 C 5.613281 -1.710938 4.523438 -3.050781 3.703125 -4.90625 C 2.890625 -6.769531 2.484375 -9.179688 2.484375 -12.140625 C 2.484375 -15.003906 2.890625 -17.367188 3.703125 -19.234375 C 4.523438 -21.097656 5.632812 -22.460938 7.03125 -23.328125 C 8.4375 -24.191406 10.046875 -24.625 11.859375 -24.625 C 14.960938 -24.625 17.253906 -23.675781 18.734375 -21.78125 L 17.328125 -19.90625 L 16.921875 -19.90625 C 15.722656 -21.34375 14.035156 -22.0625 11.859375 -22.0625 C 9.753906 -22.0625 8.144531 -21.265625 7.03125 -19.671875 C 5.925781 -18.085938 5.375 -15.550781 5.375 -12.0625 L 5.734375 -11.96875 C 6.390625 -13.34375 7.25 -14.375 8.3125 -15.0625 C 9.375 -15.75 10.679688 -16.09375 12.234375 -16.09375 C 13.773438 -16.09375 15.101562 -15.765625 16.21875 -15.109375 C 17.34375 -14.453125 18.203125 -13.503906 18.796875 -12.265625 C 19.398438 -11.035156 19.703125 -9.582031 19.703125 -7.90625 C 19.703125 -6.21875 19.367188 -4.753906 18.703125 -3.515625 C 18.046875 -2.273438 17.101562 -1.320312 15.875 -0.65625 C 14.65625 0.0078125 13.226562 0.34375 11.59375 0.34375 Z M 11.59375 -2.21875 C 13.195312 -2.21875 14.453125 -2.703125 15.359375 -3.671875 C 16.265625 -4.648438 16.71875 -6.0625 16.71875 -7.90625 C 16.71875 -9.75 16.265625 -11.15625 15.359375 -12.125 C 14.453125 -13.101562 13.195312 -13.59375 11.59375 -13.59375 C 10.488281 -13.59375 9.53125 -13.367188 8.71875 -12.921875 C 7.914062 -12.472656 7.296875 -11.820312 6.859375 -10.96875 C 6.421875 -10.125 6.203125 -9.101562 6.203125 -7.90625 C 6.203125 -6.71875 6.421875 -5.695312 6.859375 -4.84375 C 7.296875 -3.988281 7.914062 -3.335938 8.71875 -2.890625 C 9.53125 -2.441406 10.488281 -2.21875 11.59375 -2.21875 Z M 11.59375 -2.21875 "/></g></g></g><g fill="#000000" fill-opacity="1"><g transform="translate(83.748529, 819.026405)"><g><path d="M 1.734375 0 L 1.734375 -2.359375 L 8.34375 -2.359375 L 8.34375 -20.921875 L 7.96875 -21.015625 C 6.894531 -20.484375 5.953125 -20.078125 5.140625 -19.796875 C 4.335938 -19.515625 3.304688 -19.238281 2.046875 -18.96875 L 2.046875 -21.59375 C 3.296875 -21.863281 4.53125 -22.222656 5.75 -22.671875 C 6.976562 -23.128906 8.085938 -23.660156 9.078125 -24.265625 L 11.140625 -24.265625 L 11.140625 -2.359375 L 17.0625 -2.359375 L 17.0625 0 Z M 1.734375 0 "/></g></g></g><g fill="#000000" fill-opacity="1"><g transform="translate(101.842151, 819.026405)"><g/></g></g><g fill="#000000" fill-opacity="1"><g transform="translate(110.175177, 819.026405)"><g><path d="M 15.1875 0 L 12.484375 0 L 12.484375 -5.796875 L 1.109375 -5.796875 L 1.109375 -8.078125 L 11.828125 -24.265625 L 15.1875 -24.265625 L 15.1875 -8.078125 L 19.390625 -8.078125 L 19.390625 -5.796875 L 15.1875 -5.796875 Z M 4.46875 -8.4375 L 4.609375 -8.078125 L 12.484375 -8.078125 L 12.484375 -20.328125 L 12.109375 -20.390625 Z M 4.46875 -8.4375 "/></g></g></g><g fill="#000000" fill-opacity="1"><g transform="translate(129.281327, 819.026405)"><g><path d="M 6.59375 0 L 3.8125 0 L 12.828125 -21.5 L 12.734375 -21.84375 L 0.890625 -21.84375 L 0.890625 -24.265625 L 15.703125 -24.265625 L 15.703125 -21.65625 Z M 6.59375 0 "/></g></g></g><g fill="#000000" fill-opacity="1"><g transform="translate(146.461986, 819.026405)"><g><path d="M 1.46875 -1.109375 C 1.46875 -2.453125 1.613281 -3.53125 1.90625 -4.34375 C 2.195312 -5.164062 2.695312 -5.929688 3.40625 -6.640625 C 4.113281 -7.347656 5.242188 -8.265625 6.796875 -9.390625 L 9.46875 -11.34375 C 10.445312 -12.0625 11.242188 -12.722656 11.859375 -13.328125 C 12.484375 -13.941406 12.972656 -14.601562 13.328125 -15.3125 C 13.691406 -16.03125 13.875 -16.832031 13.875 -17.71875 C 13.875 -19.15625 13.492188 -20.238281 12.734375 -20.96875 C 11.972656 -21.695312 10.773438 -22.0625 9.140625 -22.0625 C 7.859375 -22.0625 6.71875 -21.757812 5.71875 -21.15625 C 4.726562 -20.5625 3.9375 -19.71875 3.34375 -18.625 L 2.953125 -18.5625 L 1.25 -20.359375 C 2.0625 -21.679688 3.132812 -22.722656 4.46875 -23.484375 C 5.800781 -24.242188 7.359375 -24.625 9.140625 -24.625 C 10.867188 -24.625 12.300781 -24.328125 13.4375 -23.734375 C 14.582031 -23.148438 15.425781 -22.335938 15.96875 -21.296875 C 16.507812 -20.265625 16.78125 -19.070312 16.78125 -17.71875 C 16.78125 -16.632812 16.550781 -15.617188 16.09375 -14.671875 C 15.644531 -13.734375 15.003906 -12.847656 14.171875 -12.015625 C 13.347656 -11.191406 12.3125 -10.316406 11.0625 -9.390625 L 8.34375 -7.421875 C 7.34375 -6.679688 6.570312 -6.050781 6.03125 -5.53125 C 5.488281 -5.007812 5.09375 -4.5 4.84375 -4 C 4.59375 -3.507812 4.46875 -2.960938 4.46875 -2.359375 L 16.78125 -2.359375 L 16.78125 0 L 1.46875 0 Z M 1.46875 -1.109375 "/></g></g></g><g fill="#000000" fill-opacity="1"><g transform="translate(165.119997, 819.026405)"><g/></g></g><g fill="#000000" fill-opacity="1"><g transform="translate(173.453023, 819.026405)"><g><path d="M 10.265625 0.34375 C 8.492188 0.34375 6.976562 0.0625 5.71875 -0.5 C 4.457031 -1.070312 3.5 -1.882812 2.84375 -2.9375 C 2.195312 -4 1.875 -5.25 1.875 -6.6875 C 1.875 -8.226562 2.253906 -9.515625 3.015625 -10.546875 C 3.785156 -11.578125 4.914062 -12.382812 6.40625 -12.96875 L 6.40625 -13.3125 C 5.351562 -13.945312 4.539062 -14.679688 3.96875 -15.515625 C 3.40625 -16.347656 3.125 -17.335938 3.125 -18.484375 C 3.125 -19.722656 3.414062 -20.800781 4 -21.71875 C 4.582031 -22.644531 5.414062 -23.359375 6.5 -23.859375 C 7.582031 -24.367188 8.835938 -24.625 10.265625 -24.625 C 11.691406 -24.625 12.945312 -24.367188 14.03125 -23.859375 C 15.113281 -23.359375 15.945312 -22.644531 16.53125 -21.71875 C 17.125 -20.800781 17.421875 -19.722656 17.421875 -18.484375 C 17.421875 -17.335938 17.128906 -16.347656 16.546875 -15.515625 C 15.972656 -14.679688 15.160156 -13.945312 14.109375 -13.3125 L 14.109375 -12.96875 C 15.617188 -12.382812 16.753906 -11.578125 17.515625 -10.546875 C 18.273438 -9.515625 18.65625 -8.226562 18.65625 -6.6875 C 18.65625 -5.238281 18.328125 -3.988281 17.671875 -2.9375 C 17.023438 -1.882812 16.070312 -1.070312 14.8125 -0.5 C 13.550781 0.0625 12.035156 0.34375 10.265625 0.34375 Z M 10.265625 -14.078125 C 11.128906 -14.078125 11.890625 -14.238281 12.546875 -14.5625 C 13.203125 -14.894531 13.710938 -15.367188 14.078125 -15.984375 C 14.453125 -16.597656 14.640625 -17.316406 14.640625 -18.140625 C 14.640625 -18.984375 14.453125 -19.710938 14.078125 -20.328125 C 13.710938 -20.953125 13.195312 -21.429688 12.53125 -21.765625 C 11.863281 -22.097656 11.109375 -22.265625 10.265625 -22.265625 C 8.921875 -22.265625 7.851562 -21.894531 7.0625 -21.15625 C 6.28125 -20.425781 5.890625 -19.421875 5.890625 -18.140625 C 5.890625 -16.878906 6.28125 -15.882812 7.0625 -15.15625 C 7.851562 -14.4375 8.921875 -14.078125 10.265625 -14.078125 Z M 10.265625 -2.15625 C 12.015625 -2.15625 13.351562 -2.570312 14.28125 -3.40625 C 15.207031 -4.238281 15.671875 -5.394531 15.671875 -6.875 C 15.671875 -8.34375 15.207031 -9.492188 14.28125 -10.328125 C 13.351562 -11.171875 12.015625 -11.59375 10.265625 -11.59375 C 8.515625 -11.59375 7.171875 -11.171875 6.234375 -10.328125 C 5.304688 -9.492188 4.84375 -8.34375 4.84375 -6.875 C 4.84375 -5.394531 5.304688 -4.238281 6.234375 -3.40625 C 7.171875 -2.570312 8.515625 -2.15625 10.265625 -2.15625 Z M 10.265625 -2.15625 "/></g></g></g><g fill="#000000" fill-opacity="1"><g transform="translate(193.9868, 819.026405)"><g><path d="M 9.609375 0.34375 C 7.253906 0.34375 5.382812 -0.1875 4 -1.25 C 2.613281 -2.3125 1.71875 -3.78125 1.3125 -5.65625 L 3.4375 -6.625 L 3.8125 -6.5625 C 4.238281 -5.113281 4.890625 -4.023438 5.765625 -3.296875 C 6.648438 -2.578125 7.929688 -2.21875 9.609375 -2.21875 C 11.328125 -2.21875 12.632812 -2.609375 13.53125 -3.390625 C 14.425781 -4.179688 14.875 -5.34375 14.875 -6.875 C 14.875 -8.363281 14.414062 -9.5 13.5 -10.28125 C 12.59375 -11.070312 11.160156 -11.46875 9.203125 -11.46875 L 6.5625 -11.46875 L 6.5625 -13.828125 L 8.921875 -13.828125 C 10.441406 -13.828125 11.648438 -14.207031 12.546875 -14.96875 C 13.453125 -15.726562 13.90625 -16.796875 13.90625 -18.171875 C 13.90625 -19.492188 13.515625 -20.484375 12.734375 -21.140625 C 11.960938 -21.796875 10.875 -22.125 9.46875 -22.125 C 7.019531 -22.125 5.273438 -21.148438 4.234375 -19.203125 L 3.859375 -19.140625 L 2.265625 -20.890625 C 2.910156 -22.003906 3.847656 -22.90625 5.078125 -23.59375 C 6.304688 -24.28125 7.769531 -24.625 9.46875 -24.625 C 11.007812 -24.625 12.328125 -24.378906 13.421875 -23.890625 C 14.515625 -23.410156 15.34375 -22.71875 15.90625 -21.8125 C 16.46875 -20.90625 16.75 -19.820312 16.75 -18.5625 C 16.75 -17.363281 16.398438 -16.3125 15.703125 -15.40625 C 15.015625 -14.507812 14.101562 -13.800781 12.96875 -13.28125 L 12.96875 -12.9375 C 14.570312 -12.550781 15.773438 -11.828125 16.578125 -10.765625 C 17.390625 -9.710938 17.796875 -8.414062 17.796875 -6.875 C 17.796875 -4.570312 17.109375 -2.789062 15.734375 -1.53125 C 14.367188 -0.28125 12.328125 0.34375 9.609375 0.34375 Z M 9.609375 0.34375 "/></g></g></g><g fill="#000000" fill-opacity="1"><g transform="translate(213.707189, 819.026405)"><g><path d="M 9.609375 0.34375 C 7.253906 0.34375 5.382812 -0.1875 4 -1.25 C 2.613281 -2.3125 1.71875 -3.78125 1.3125 -5.65625 L 3.4375 -6.625 L 3.8125 -6.5625 C 4.238281 -5.113281 4.890625 -4.023438 5.765625 -3.296875 C 6.648438 -2.578125 7.929688 -2.21875 9.609375 -2.21875 C 11.328125 -2.21875 12.632812 -2.609375 13.53125 -3.390625 C 14.425781 -4.179688 14.875 -5.34375 14.875 -6.875 C 14.875 -8.363281 14.414062 -9.5 13.5 -10.28125 C 12.59375 -11.070312 11.160156 -11.46875 9.203125 -11.46875 L 6.5625 -11.46875 L 6.5625 -13.828125 L 8.921875 -13.828125 C 10.441406 -13.828125 11.648438 -14.207031 12.546875 -14.96875 C 13.453125 -15.726562 13.90625 -16.796875 13.90625 -18.171875 C 13.90625 -19.492188 13.515625 -20.484375 12.734375 -21.140625 C 11.960938 -21.796875 10.875 -22.125 9.46875 -22.125 C 7.019531 -22.125 5.273438 -21.148438 4.234375 -19.203125 L 3.859375 -19.140625 L 2.265625 -20.890625 C 2.910156 -22.003906 3.847656 -22.90625 5.078125 -23.59375 C 6.304688 -24.28125 7.769531 -24.625 9.46875 -24.625 C 11.007812 -24.625 12.328125 -24.378906 13.421875 -23.890625 C 14.515625 -23.410156 15.34375 -22.71875 15.90625 -21.8125 C 16.46875 -20.90625 16.75 -19.820312 16.75 -18.5625 C 16.75 -17.363281 16.398438 -16.3125 15.703125 -15.40625 C 15.015625 -14.507812 14.101562 -13.800781 12.96875 -13.28125 L 12.96875 -12.9375 C 14.570312 -12.550781 15.773438 -11.828125 16.578125 -10.765625 C 17.390625 -9.710938 17.796875 -8.414062 17.796875 -6.875 C 17.796875 -4.570312 17.109375 -2.789062 15.734375 -1.53125 C 14.367188 -0.28125 12.328125 0.34375 9.609375 0.34375 Z M 9.609375 0.34375 "/></g></g></g><g fill="#000000" fill-opacity="1"><g transform="translate(233.427578, 819.026405)"><g/></g></g><g fill="#000000" fill-opacity="1"><g transform="translate(241.760604, 819.026405)"><g><path d="M 6.59375 0 L 3.8125 0 L 12.828125 -21.5 L 12.734375 -21.84375 L 0.890625 -21.84375 L 0.890625 -24.265625 L 15.703125 -24.265625 L 15.703125 -21.65625 Z M 6.59375 0 "/></g></g></g><g fill="#000000" fill-opacity="1"><g transform="translate(258.526266, 819.026405)"><g><path d="M 1.734375 0 L 1.734375 -2.359375 L 8.34375 -2.359375 L 8.34375 -20.921875 L 7.96875 -21.015625 C 6.894531 -20.484375 5.953125 -20.078125 5.140625 -19.796875 C 4.335938 -19.515625 3.304688 -19.238281 2.046875 -18.96875 L 2.046875 -21.59375 C 3.296875 -21.863281 4.53125 -22.222656 5.75 -22.671875 C 6.976562 -23.128906 8.085938 -23.660156 9.078125 -24.265625 L 11.140625 -24.265625 L 11.140625 -2.359375 L 17.0625 -2.359375 L 17.0625 0 Z M 1.734375 0 "/></g></g></g><g fill="#000000" fill-opacity="1"><g transform="translate(275.78986, 819.026405)"><g><path d="M 10.265625 0.34375 C 8.160156 0.34375 6.453125 -0.132812 5.140625 -1.09375 C 3.828125 -2.050781 2.992188 -3.363281 2.640625 -5.03125 L 4.75 -6 L 5.125 -5.921875 C 5.519531 -4.691406 6.117188 -3.765625 6.921875 -3.140625 C 7.722656 -2.523438 8.835938 -2.21875 10.265625 -2.21875 C 12.273438 -2.21875 13.8125 -3.054688 14.875 -4.734375 C 15.9375 -6.421875 16.46875 -9.023438 16.46875 -12.546875 L 16.125 -12.65625 C 15.445312 -11.269531 14.585938 -10.234375 13.546875 -9.546875 C 12.503906 -8.867188 11.191406 -8.53125 9.609375 -8.53125 C 8.097656 -8.53125 6.78125 -8.859375 5.65625 -9.515625 C 4.53125 -10.179688 3.664062 -11.113281 3.0625 -12.3125 C 2.457031 -13.519531 2.15625 -14.925781 2.15625 -16.53125 C 2.15625 -18.132812 2.488281 -19.546875 3.15625 -20.765625 C 3.820312 -21.992188 4.765625 -22.941406 5.984375 -23.609375 C 7.203125 -24.285156 8.628906 -24.625 10.265625 -24.625 C 13.109375 -24.625 15.332031 -23.660156 16.9375 -21.734375 C 18.550781 -19.816406 19.359375 -16.710938 19.359375 -12.421875 C 19.359375 -9.515625 18.972656 -7.109375 18.203125 -5.203125 C 17.441406 -3.304688 16.382812 -1.90625 15.03125 -1 C 13.675781 -0.101562 12.085938 0.34375 10.265625 0.34375 Z M 10.265625 -11.03125 C 11.359375 -11.03125 12.304688 -11.242188 13.109375 -11.671875 C 13.921875 -12.097656 14.546875 -12.726562 14.984375 -13.5625 C 15.421875 -14.394531 15.640625 -15.382812 15.640625 -16.53125 C 15.640625 -17.6875 15.421875 -18.675781 14.984375 -19.5 C 14.546875 -20.332031 13.921875 -20.96875 13.109375 -21.40625 C 12.304688 -21.84375 11.359375 -22.0625 10.265625 -22.0625 C 8.660156 -22.0625 7.398438 -21.585938 6.484375 -20.640625 C 5.578125 -19.691406 5.125 -18.320312 5.125 -16.53125 C 5.125 -14.738281 5.578125 -13.375 6.484375 -12.4375 C 7.398438 -11.5 8.660156 -11.03125 10.265625 -11.03125 Z M 10.265625 -11.03125 "/></g></g></g><g fill="#000000" fill-opacity="1"><g transform="translate(44.158349, 878.22636)"><g><path d="M 17.453125 -8.53125 L 4.859375 -8.53125 C 4.941406 -6.3125 5.476562 -4.679688 6.46875 -3.640625 C 7.457031 -2.597656 8.816406 -2.078125 10.546875 -2.078125 C 11.847656 -2.078125 12.894531 -2.304688 13.6875 -2.765625 C 14.488281 -3.234375 15.117188 -3.96875 15.578125 -4.96875 L 15.921875 -4.96875 L 17.6875 -3.921875 C 17.15625 -2.585938 16.300781 -1.539062 15.125 -0.78125 C 13.957031 -0.03125 12.429688 0.34375 10.546875 0.34375 C 8.773438 0.34375 7.25 -0.00390625 5.96875 -0.703125 C 4.695312 -1.398438 3.71875 -2.457031 3.03125 -3.875 C 2.351562 -5.289062 2.015625 -7.046875 2.015625 -9.140625 C 2.015625 -11.222656 2.375 -12.976562 3.09375 -14.40625 C 3.820312 -15.832031 4.8125 -16.894531 6.0625 -17.59375 C 7.320312 -18.300781 8.757812 -18.65625 10.375 -18.65625 C 12.71875 -18.65625 14.546875 -17.992188 15.859375 -16.671875 C 17.179688 -15.347656 17.847656 -13.390625 17.859375 -10.796875 C 17.859375 -9.773438 17.835938 -9.085938 17.796875 -8.734375 Z M 15.1875 -10.796875 C 15.144531 -12.742188 14.710938 -14.160156 13.890625 -15.046875 C 13.078125 -15.929688 11.90625 -16.375 10.375 -16.375 C 8.769531 -16.375 7.507812 -15.925781 6.59375 -15.03125 C 5.6875 -14.144531 5.132812 -12.734375 4.9375 -10.796875 Z M 15.1875 -10.796875 "/></g></g></g><g fill="#000000" fill-opacity="1"><g transform="translate(63.679541, 878.22636)"><g><path d="M 3.1875 0 L 3.1875 -18.3125 L 5.765625 -18.3125 L 5.765625 -15.609375 L 6.109375 -15.546875 C 6.734375 -16.566406 7.484375 -17.335938 8.359375 -17.859375 C 9.234375 -18.390625 10.285156 -18.65625 11.515625 -18.65625 C 12.929688 -18.65625 14.023438 -18.382812 14.796875 -17.84375 C 15.578125 -17.3125 16.1875 -16.445312 16.625 -15.25 L 16.96875 -15.25 C 17.59375 -16.375 18.367188 -17.222656 19.296875 -17.796875 C 20.222656 -18.367188 21.363281 -18.65625 22.71875 -18.65625 C 24.59375 -18.65625 25.992188 -18.144531 26.921875 -17.125 C 27.847656 -16.113281 28.3125 -14.566406 28.3125 -12.484375 L 28.3125 0 L 25.59375 0 L 25.59375 -12.421875 C 25.59375 -13.742188 25.3125 -14.71875 24.75 -15.34375 C 24.195312 -15.976562 23.300781 -16.296875 22.0625 -16.296875 C 20.601562 -16.296875 19.410156 -15.765625 18.484375 -14.703125 C 17.554688 -13.640625 17.09375 -11.894531 17.09375 -9.46875 L 17.09375 0 L 14.390625 0 L 14.390625 -12.421875 C 14.390625 -13.742188 14.109375 -14.71875 13.546875 -15.34375 C 12.992188 -15.976562 12.097656 -16.296875 10.859375 -16.296875 C 9.398438 -16.296875 8.207031 -15.78125 7.28125 -14.75 C 6.351562 -13.726562 5.890625 -12.0625 5.890625 -9.75 L 5.890625 0 Z M 3.1875 0 "/></g></g></g><g fill="#000000" fill-opacity="1"><g transform="translate(94.88689, 878.22636)"><g><path d="M 7.546875 0.34375 C 5.742188 0.34375 4.335938 -0.125 3.328125 -1.0625 C 2.316406 -2 1.8125 -3.34375 1.8125 -5.09375 C 1.8125 -6.175781 2.035156 -7.09375 2.484375 -7.84375 C 2.929688 -8.59375 3.625 -9.203125 4.5625 -9.671875 C 5.507812 -10.140625 6.738281 -10.503906 8.25 -10.765625 C 9.582031 -10.984375 10.59375 -11.226562 11.28125 -11.5 C 11.96875 -11.78125 12.429688 -12.09375 12.671875 -12.4375 C 12.910156 -12.78125 13.03125 -13.210938 13.03125 -13.734375 C 13.03125 -14.554688 12.742188 -15.1875 12.171875 -15.625 C 11.609375 -16.070312 10.695312 -16.296875 9.4375 -16.296875 C 8.25 -16.296875 7.226562 -16.066406 6.375 -15.609375 C 5.53125 -15.148438 4.753906 -14.46875 4.046875 -13.5625 L 3.71875 -13.5625 L 2.390625 -15.4375 C 3.160156 -16.425781 4.144531 -17.207031 5.34375 -17.78125 C 6.539062 -18.363281 7.90625 -18.65625 9.4375 -18.65625 C 11.59375 -18.65625 13.179688 -18.179688 14.203125 -17.234375 C 15.222656 -16.296875 15.734375 -14.988281 15.734375 -13.3125 L 15.734375 -3.609375 C 15.734375 -2.585938 16.164062 -2.078125 17.03125 -2.078125 C 17.320312 -2.078125 17.597656 -2.125 17.859375 -2.21875 L 18.09375 -2.15625 L 18.40625 -0.28125 C 18.207031 -0.144531 17.945312 -0.0390625 17.625 0.03125 C 17.300781 0.101562 16.96875 0.140625 16.625 0.140625 C 15.613281 0.140625 14.847656 -0.0820312 14.328125 -0.53125 C 13.816406 -0.976562 13.488281 -1.628906 13.34375 -2.484375 L 13 -2.53125 C 12.476562 -1.5625 11.773438 -0.835938 10.890625 -0.359375 C 10.003906 0.109375 8.890625 0.34375 7.546875 0.34375 Z M 8.15625 -1.8125 C 9.164062 -1.8125 10.046875 -2.046875 10.796875 -2.515625 C 11.546875 -2.984375 12.117188 -3.644531 12.515625 -4.5 C 12.910156 -5.351562 13.109375 -6.335938 13.109375 -7.453125 L 13.109375 -9.78125 L 12.796875 -9.84375 C 12.390625 -9.550781 11.890625 -9.304688 11.296875 -9.109375 C 10.710938 -8.921875 9.894531 -8.75 8.84375 -8.59375 C 7.78125 -8.457031 6.9375 -8.238281 6.3125 -7.9375 C 5.6875 -7.632812 5.238281 -7.253906 4.96875 -6.796875 C 4.707031 -6.335938 4.578125 -5.769531 4.578125 -5.09375 C 4.578125 -4.019531 4.890625 -3.203125 5.515625 -2.640625 C 6.148438 -2.085938 7.03125 -1.8125 8.15625 -1.8125 Z M 8.15625 -1.8125 "/></g></g></g><g fill="#000000" fill-opacity="1"><g transform="translate(113.827101, 878.22636)"><g><path d="M 4.546875 -21.84375 C 3.972656 -21.84375 3.503906 -22.019531 3.140625 -22.375 C 2.785156 -22.738281 2.609375 -23.195312 2.609375 -23.75 C 2.609375 -24.3125 2.785156 -24.769531 3.140625 -25.125 C 3.503906 -25.488281 3.972656 -25.671875 4.546875 -25.671875 C 5.117188 -25.671875 5.582031 -25.488281 5.9375 -25.125 C 6.300781 -24.769531 6.484375 -24.3125 6.484375 -23.75 C 6.484375 -23.195312 6.300781 -22.738281 5.9375 -22.375 C 5.582031 -22.019531 5.117188 -21.84375 4.546875 -21.84375 Z M 3.1875 0 L 3.1875 -18.3125 L 5.890625 -18.3125 L 5.890625 0 Z M 3.1875 0 "/></g></g></g><g fill="#000000" fill-opacity="1"><g transform="translate(122.907117, 878.22636)"><g><path d="M 7.28125 0.34375 C 5.988281 0.34375 4.972656 -0.0195312 4.234375 -0.75 C 3.492188 -1.488281 3.125 -2.585938 3.125 -4.046875 L 3.125 -25.671875 L 5.828125 -25.671875 L 5.828125 -4.234375 C 5.828125 -3.472656 5.972656 -2.921875 6.265625 -2.578125 C 6.554688 -2.242188 7.015625 -2.078125 7.640625 -2.078125 C 8.015625 -2.078125 8.394531 -2.140625 8.78125 -2.265625 L 9.015625 -2.1875 L 9.328125 -0.0625 C 9.128906 0.0703125 8.84375 0.171875 8.46875 0.234375 C 8.101562 0.304688 7.707031 0.34375 7.28125 0.34375 Z M 7.28125 0.34375 "/></g></g></g><g fill="#000000" fill-opacity="1"><g transform="translate(133.912727, 878.22636)"><g><path d="M 4.46875 0.171875 C 3.832031 0.171875 3.332031 -0.00390625 2.96875 -0.359375 C 2.601562 -0.710938 2.421875 -1.1875 2.421875 -1.78125 C 2.421875 -2.351562 2.601562 -2.820312 2.96875 -3.1875 C 3.332031 -3.5625 3.832031 -3.75 4.46875 -3.75 C 5.101562 -3.75 5.601562 -3.570312 5.96875 -3.21875 C 6.34375 -2.863281 6.53125 -2.394531 6.53125 -1.8125 C 6.53125 -1.226562 6.34375 -0.75 5.96875 -0.375 C 5.59375 -0.0078125 5.09375 0.171875 4.46875 0.171875 Z M 4.46875 0.171875 "/></g></g></g><g fill="#000000" fill-opacity="1"><g transform="translate(142.029929, 878.22636)"><g><path d="M 10.515625 0.34375 C 8.890625 0.34375 7.4375 -0.0195312 6.15625 -0.75 C 4.875 -1.488281 3.863281 -2.570312 3.125 -4 C 2.382812 -5.4375 2.015625 -7.148438 2.015625 -9.140625 C 2.015625 -11.148438 2.382812 -12.867188 3.125 -14.296875 C 3.863281 -15.734375 4.875 -16.816406 6.15625 -17.546875 C 7.4375 -18.285156 8.890625 -18.65625 10.515625 -18.65625 C 12.453125 -18.65625 13.988281 -18.289062 15.125 -17.5625 C 16.269531 -16.832031 17.097656 -15.859375 17.609375 -14.640625 L 15.765625 -13.3125 L 15.4375 -13.3125 C 14.9375 -14.320312 14.296875 -15.0625 13.515625 -15.53125 C 12.742188 -16 11.742188 -16.234375 10.515625 -16.234375 C 9.378906 -16.234375 8.382812 -15.96875 7.53125 -15.4375 C 6.6875 -14.90625 6.023438 -14.109375 5.546875 -13.046875 C 5.078125 -11.984375 4.84375 -10.679688 4.84375 -9.140625 C 4.84375 -7.617188 5.082031 -6.328125 5.5625 -5.265625 C 6.039062 -4.210938 6.703125 -3.414062 7.546875 -2.875 C 8.390625 -2.34375 9.378906 -2.078125 10.515625 -2.078125 C 11.785156 -2.078125 12.835938 -2.363281 13.671875 -2.9375 C 14.503906 -3.507812 15.160156 -4.414062 15.640625 -5.65625 L 15.984375 -5.65625 L 17.765625 -4.609375 C 17.285156 -3.078125 16.429688 -1.867188 15.203125 -0.984375 C 13.984375 -0.0976562 12.421875 0.34375 10.515625 0.34375 Z M 10.515625 0.34375 "/></g></g></g><g fill="#000000" fill-opacity="1"><g transform="translate(160.903742, 878.22636)"><g><path d="M 10.515625 0.34375 C 8.785156 0.34375 7.28125 -0.0195312 6 -0.75 C 4.71875 -1.476562 3.734375 -2.550781 3.046875 -3.96875 C 2.359375 -5.394531 2.015625 -7.117188 2.015625 -9.140625 C 2.015625 -11.171875 2.359375 -12.898438 3.046875 -14.328125 C 3.734375 -15.753906 4.71875 -16.832031 6 -17.5625 C 7.28125 -18.289062 8.785156 -18.65625 10.515625 -18.65625 C 12.234375 -18.65625 13.734375 -18.289062 15.015625 -17.5625 C 16.296875 -16.832031 17.28125 -15.753906 17.96875 -14.328125 C 18.664062 -12.898438 19.015625 -11.171875 19.015625 -9.140625 C 19.015625 -7.117188 18.664062 -5.394531 17.96875 -3.96875 C 17.28125 -2.550781 16.296875 -1.476562 15.015625 -0.75 C 13.734375 -0.0195312 12.234375 0.34375 10.515625 0.34375 Z M 10.515625 -2.078125 C 12.335938 -2.078125 13.734375 -2.648438 14.703125 -3.796875 C 15.671875 -4.953125 16.15625 -6.734375 16.15625 -9.140625 C 16.15625 -11.566406 15.671875 -13.351562 14.703125 -14.5 C 13.734375 -15.65625 12.335938 -16.234375 10.515625 -16.234375 C 8.679688 -16.234375 7.273438 -15.65625 6.296875 -14.5 C 5.328125 -13.34375 4.84375 -11.554688 4.84375 -9.140625 C 4.84375 -6.734375 5.328125 -4.953125 6.296875 -3.796875 C 7.273438 -2.648438 8.679688 -2.078125 10.515625 -2.078125 Z M 10.515625 -2.078125 "/></g></g></g><g fill="#000000" fill-opacity="1"><g transform="translate(181.918903, 878.22636)"><g><path d="M 3.1875 0 L 3.1875 -18.3125 L 5.765625 -18.3125 L 5.765625 -15.609375 L 6.109375 -15.546875 C 6.734375 -16.566406 7.484375 -17.335938 8.359375 -17.859375 C 9.234375 -18.390625 10.285156 -18.65625 11.515625 -18.65625 C 12.929688 -18.65625 14.023438 -18.382812 14.796875 -17.84375 C 15.578125 -17.3125 16.1875 -16.445312 16.625 -15.25 L 16.96875 -15.25 C 17.59375 -16.375 18.367188 -17.222656 19.296875 -17.796875 C 20.222656 -18.367188 21.363281 -18.65625 22.71875 -18.65625 C 24.59375 -18.65625 25.992188 -18.144531 26.921875 -17.125 C 27.847656 -16.113281 28.3125 -14.566406 28.3125 -12.484375 L 28.3125 0 L 25.59375 0 L 25.59375 -12.421875 C 25.59375 -13.742188 25.3125 -14.71875 24.75 -15.34375 C 24.195312 -15.976562 23.300781 -16.296875 22.0625 -16.296875 C 20.601562 -16.296875 19.410156 -15.765625 18.484375 -14.703125 C 17.554688 -13.640625 17.09375 -11.894531 17.09375 -9.46875 L 17.09375 0 L 14.390625 0 L 14.390625 -12.421875 C 14.390625 -13.742188 14.109375 -14.71875 13.546875 -15.34375 C 12.992188 -15.976562 12.097656 -16.296875 10.859375 -16.296875 C 9.398438 -16.296875 8.207031 -15.78125 7.28125 -14.75 C 6.351562 -13.726562 5.890625 -12.0625 5.890625 -9.75 L 5.890625 0 Z M 3.1875 0 "/></g></g></g><g fill="#000000" fill-opacity="1"><g transform="translate(44.158349, 1101.651916)"><g><path d="M 12.171875 0.34375 C 10.804688 0.34375 9.625 0.0820312 8.625 -0.4375 C 7.625 -0.96875 6.832031 -1.664062 6.25 -2.53125 L 5.890625 -2.453125 L 5.890625 0 L 3.1875 0 L 3.1875 -25.671875 L 5.890625 -25.671875 L 5.890625 -15.578125 L 6.25 -15.5 C 7.632812 -17.601562 9.65625 -18.65625 12.3125 -18.65625 C 13.820312 -18.65625 15.140625 -18.304688 16.265625 -17.609375 C 17.398438 -16.910156 18.28125 -15.847656 18.90625 -14.421875 C 19.53125 -13.003906 19.84375 -11.242188 19.84375 -9.140625 C 19.84375 -7.066406 19.507812 -5.316406 18.84375 -3.890625 C 18.1875 -2.472656 17.28125 -1.410156 16.125 -0.703125 C 14.976562 -0.00390625 13.660156 0.34375 12.171875 0.34375 Z M 11.515625 -2.078125 C 15.171875 -2.078125 17 -4.429688 17 -9.140625 C 17 -11.585938 16.519531 -13.378906 15.5625 -14.515625 C 14.613281 -15.660156 13.265625 -16.234375 11.515625 -16.234375 C 9.804688 -16.234375 8.441406 -15.648438 7.421875 -14.484375 C 6.398438 -13.316406 5.890625 -11.535156 5.890625 -9.140625 C 5.890625 -6.765625 6.398438 -4.992188 7.421875 -3.828125 C 8.441406 -2.660156 9.804688 -2.078125 11.515625 -2.078125 Z M 11.515625 -2.078125 "/></g></g></g><g fill="#000000" fill-opacity="1"><g transform="translate(66.003493, 1101.651916)"><g><path d="M 4.546875 -21.84375 C 3.972656 -21.84375 3.503906 -22.019531 3.140625 -22.375 C 2.785156 -22.738281 2.609375 -23.195312 2.609375 -23.75 C 2.609375 -24.3125 2.785156 -24.769531 3.140625 -25.125 C 3.503906 -25.488281 3.972656 -25.671875 4.546875 -25.671875 C 5.117188 -25.671875 5.582031 -25.488281 5.9375 -25.125 C 6.300781 -24.769531 6.484375 -24.3125 6.484375 -23.75 C 6.484375 -23.195312 6.300781 -22.738281 5.9375 -22.375 C 5.582031 -22.019531 5.117188 -21.84375 4.546875 -21.84375 Z M 3.1875 0 L 3.1875 -18.3125 L 5.890625 -18.3125 L 5.890625 0 Z M 3.1875 0 "/></g></g></g><g fill="#000000" fill-opacity="1"><g transform="translate(75.08351, 1101.651916)"><g><path d="M 10.515625 0.34375 C 8.785156 0.34375 7.28125 -0.0195312 6 -0.75 C 4.71875 -1.476562 3.734375 -2.550781 3.046875 -3.96875 C 2.359375 -5.394531 2.015625 -7.117188 2.015625 -9.140625 C 2.015625 -11.171875 2.359375 -12.898438 3.046875 -14.328125 C 3.734375 -15.753906 4.71875 -16.832031 6 -17.5625 C 7.28125 -18.289062 8.785156 -18.65625 10.515625 -18.65625 C 12.234375 -18.65625 13.734375 -18.289062 15.015625 -17.5625 C 16.296875 -16.832031 17.28125 -15.753906 17.96875 -14.328125 C 18.664062 -12.898438 19.015625 -11.171875 19.015625 -9.140625 C 19.015625 -7.117188 18.664062 -5.394531 17.96875 -3.96875 C 17.28125 -2.550781 16.296875 -1.476562 15.015625 -0.75 C 13.734375 -0.0195312 12.234375 0.34375 10.515625 0.34375 Z M 10.515625 -2.078125 C 12.335938 -2.078125 13.734375 -2.648438 14.703125 -3.796875 C 15.671875 -4.953125 16.15625 -6.734375 16.15625 -9.140625 C 16.15625 -11.566406 15.671875 -13.351562 14.703125 -14.5 C 13.734375 -15.65625 12.335938 -16.234375 10.515625 -16.234375 C 8.679688 -16.234375 7.273438 -15.65625 6.296875 -14.5 C 5.328125 -13.34375 4.84375 -11.554688 4.84375 -9.140625 C 4.84375 -6.734375 5.328125 -4.953125 6.296875 -3.796875 C 7.273438 -2.648438 8.679688 -2.078125 10.515625 -2.078125 Z M 10.515625 -2.078125 "/></g></g></g><g fill="#000000" fill-opacity="1"><g transform="translate(44.158349, 1177.35199)"><g><path d="M 7.546875 0.34375 C 5.742188 0.34375 4.335938 -0.125 3.328125 -1.0625 C 2.316406 -2 1.8125 -3.34375 1.8125 -5.09375 C 1.8125 -6.175781 2.035156 -7.09375 2.484375 -7.84375 C 2.929688 -8.59375 3.625 -9.203125 4.5625 -9.671875 C 5.507812 -10.140625 6.738281 -10.503906 8.25 -10.765625 C 9.582031 -10.984375 10.59375 -11.226562 11.28125 -11.5 C 11.96875 -11.78125 12.429688 -12.09375 12.671875 -12.4375 C 12.910156 -12.78125 13.03125 -13.210938 13.03125 -13.734375 C 13.03125 -14.554688 12.742188 -15.1875 12.171875 -15.625 C 11.609375 -16.070312 10.695312 -16.296875 9.4375 -16.296875 C 8.25 -16.296875 7.226562 -16.066406 6.375 -15.609375 C 5.53125 -15.148438 4.753906 -14.46875 4.046875 -13.5625 L 3.71875 -13.5625 L 2.390625 -15.4375 C 3.160156 -16.425781 4.144531 -17.207031 5.34375 -17.78125 C 6.539062 -18.363281 7.90625 -18.65625 9.4375 -18.65625 C 11.59375 -18.65625 13.179688 -18.179688 14.203125 -17.234375 C 15.222656 -16.296875 15.734375 -14.988281 15.734375 -13.3125 L 15.734375 -3.609375 C 15.734375 -2.585938 16.164062 -2.078125 17.03125 -2.078125 C 17.320312 -2.078125 17.597656 -2.125 17.859375 -2.21875 L 18.09375 -2.15625 L 18.40625 -0.28125 C 18.207031 -0.144531 17.945312 -0.0390625 17.625 0.03125 C 17.300781 0.101562 16.96875 0.140625 16.625 0.140625 C 15.613281 0.140625 14.847656 -0.0820312 14.328125 -0.53125 C 13.816406 -0.976562 13.488281 -1.628906 13.34375 -2.484375 L 13 -2.53125 C 12.476562 -1.5625 11.773438 -0.835938 10.890625 -0.359375 C 10.003906 0.109375 8.890625 0.34375 7.546875 0.34375 Z M 8.15625 -1.8125 C 9.164062 -1.8125 10.046875 -2.046875 10.796875 -2.515625 C 11.546875 -2.984375 12.117188 -3.644531 12.515625 -4.5 C 12.910156 -5.351562 13.109375 -6.335938 13.109375 -7.453125 L 13.109375 -9.78125 L 12.796875 -9.84375 C 12.390625 -9.550781 11.890625 -9.304688 11.296875 -9.109375 C 10.710938 -8.921875 9.894531 -8.75 8.84375 -8.59375 C 7.78125 -8.457031 6.9375 -8.238281 6.3125 -7.9375 C 5.6875 -7.632812 5.238281 -7.253906 4.96875 -6.796875 C 4.707031 -6.335938 4.578125 -5.769531 4.578125 -5.09375 C 4.578125 -4.019531 4.890625 -3.203125 5.515625 -2.640625 C 6.148438 -2.085938 7.03125 -1.8125 8.15625 -1.8125 Z M 8.15625 -1.8125 "/></g></g></g><g fill="#000000" fill-opacity="1"><g transform="translate(63.098559, 1177.35199)"><g><path d="M 9.5 0.34375 C 8.019531 0.34375 6.71875 -0.00390625 5.59375 -0.703125 C 4.476562 -1.410156 3.601562 -2.472656 2.96875 -3.890625 C 2.332031 -5.304688 2.015625 -7.054688 2.015625 -9.140625 C 2.015625 -11.234375 2.34375 -12.988281 3 -14.40625 C 3.664062 -15.832031 4.582031 -16.894531 5.75 -17.59375 C 6.914062 -18.300781 8.269531 -18.65625 9.8125 -18.65625 C 11.03125 -18.65625 12.125 -18.425781 13.09375 -17.96875 C 14.070312 -17.507812 14.910156 -16.753906 15.609375 -15.703125 L 15.953125 -15.765625 L 15.953125 -25.671875 L 18.65625 -25.671875 L 18.65625 0 L 15.953125 0 L 15.953125 -2.671875 L 15.609375 -2.734375 C 15.003906 -1.828125 14.191406 -1.085938 13.171875 -0.515625 C 12.148438 0.0546875 10.925781 0.34375 9.5 0.34375 Z M 10.34375 -2.078125 C 12.050781 -2.078125 13.410156 -2.660156 14.421875 -3.828125 C 15.441406 -4.992188 15.953125 -6.765625 15.953125 -9.140625 C 15.953125 -11.535156 15.441406 -13.316406 14.421875 -14.484375 C 13.410156 -15.648438 12.050781 -16.234375 10.34375 -16.234375 C 8.582031 -16.234375 7.222656 -15.660156 6.265625 -14.515625 C 5.316406 -13.378906 4.84375 -11.585938 4.84375 -9.140625 C 4.84375 -4.429688 6.675781 -2.078125 10.34375 -2.078125 Z M 10.34375 -2.078125 "/></g></g></g><g fill="#000000" fill-opacity="1"><g transform="translate(84.960309, 1177.35199)"><g><path d="M 9.5 0.34375 C 8.019531 0.34375 6.71875 -0.00390625 5.59375 -0.703125 C 4.476562 -1.410156 3.601562 -2.472656 2.96875 -3.890625 C 2.332031 -5.304688 2.015625 -7.054688 2.015625 -9.140625 C 2.015625 -11.234375 2.34375 -12.988281 3 -14.40625 C 3.664062 -15.832031 4.582031 -16.894531 5.75 -17.59375 C 6.914062 -18.300781 8.269531 -18.65625 9.8125 -18.65625 C 11.03125 -18.65625 12.125 -18.425781 13.09375 -17.96875 C 14.070312 -17.507812 14.910156 -16.753906 15.609375 -15.703125 L 15.953125 -15.765625 L 15.953125 -25.671875 L 18.65625 -25.671875 L 18.65625 0 L 15.953125 0 L 15.953125 -2.671875 L 15.609375 -2.734375 C 15.003906 -1.828125 14.191406 -1.085938 13.171875 -0.515625 C 12.148438 0.0546875 10.925781 0.34375 9.5 0.34375 Z M 10.34375 -2.078125 C 12.050781 -2.078125 13.410156 -2.660156 14.421875 -3.828125 C 15.441406 -4.992188 15.953125 -6.765625 15.953125 -9.140625 C 15.953125 -11.535156 15.441406 -13.316406 14.421875 -14.484375 C 13.410156 -15.648438 12.050781 -16.234375 10.34375 -16.234375 C 8.582031 -16.234375 7.222656 -15.660156 6.265625 -14.515625 C 5.316406 -13.378906 4.84375 -11.585938 4.84375 -9.140625 C 4.84375 -4.429688 6.675781 -2.078125 10.34375 -2.078125 Z M 10.34375 -2.078125 "/></g></g></g><g fill="#000000" fill-opacity="1"><g transform="translate(106.822058, 1177.35199)"><g><path d="M 3.1875 0 L 3.1875 -18.3125 L 5.765625 -18.3125 L 5.765625 -15.4375 L 6.109375 -15.359375 C 6.960938 -17.441406 8.566406 -18.484375 10.921875 -18.484375 C 12.171875 -18.484375 13.109375 -18.253906 13.734375 -17.796875 L 13.03125 -15.5 L 12.703125 -15.4375 C 12.015625 -15.78125 11.257812 -15.953125 10.4375 -15.953125 C 8.976562 -15.953125 7.851562 -15.40625 7.0625 -14.3125 C 6.28125 -13.21875 5.890625 -11.441406 5.890625 -8.984375 L 5.890625 0 Z M 3.1875 0 "/></g></g></g><g fill="#000000" fill-opacity="1"><g transform="translate(120.483556, 1177.35199)"><g><path d="M 17.453125 -8.53125 L 4.859375 -8.53125 C 4.941406 -6.3125 5.476562 -4.679688 6.46875 -3.640625 C 7.457031 -2.597656 8.816406 -2.078125 10.546875 -2.078125 C 11.847656 -2.078125 12.894531 -2.304688 13.6875 -2.765625 C 14.488281 -3.234375 15.117188 -3.96875 15.578125 -4.96875 L 15.921875 -4.96875 L 17.6875 -3.921875 C 17.15625 -2.585938 16.300781 -1.539062 15.125 -0.78125 C 13.957031 -0.03125 12.429688 0.34375 10.546875 0.34375 C 8.773438 0.34375 7.25 -0.00390625 5.96875 -0.703125 C 4.695312 -1.398438 3.71875 -2.457031 3.03125 -3.875 C 2.351562 -5.289062 2.015625 -7.046875 2.015625 -9.140625 C 2.015625 -11.222656 2.375 -12.976562 3.09375 -14.40625 C 3.820312 -15.832031 4.8125 -16.894531 6.0625 -17.59375 C 7.320312 -18.300781 8.757812 -18.65625 10.375 -18.65625 C 12.71875 -18.65625 14.546875 -17.992188 15.859375 -16.671875 C 17.179688 -15.347656 17.847656 -13.390625 17.859375 -10.796875 C 17.859375 -9.773438 17.835938 -9.085938 17.796875 -8.734375 Z M 15.1875 -10.796875 C 15.144531 -12.742188 14.710938 -14.160156 13.890625 -15.046875 C 13.078125 -15.929688 11.90625 -16.375 10.375 -16.375 C 8.769531 -16.375 7.507812 -15.925781 6.59375 -15.03125 C 5.6875 -14.144531 5.132812 -12.734375 4.9375 -10.796875 Z M 15.1875 -10.796875 "/></g></g></g><g fill="#000000" fill-opacity="1"><g transform="translate(140.004749, 1177.35199)"><g><path d="M 8.34375 0.34375 C 7.195312 0.34375 6.132812 0.191406 5.15625 -0.109375 C 4.175781 -0.410156 3.347656 -0.828125 2.671875 -1.359375 C 1.992188 -1.890625 1.519531 -2.488281 1.25 -3.15625 L 2.84375 -4.8125 L 3.1875 -4.8125 C 3.78125 -3.90625 4.5 -3.222656 5.34375 -2.765625 C 6.1875 -2.304688 7.1875 -2.078125 8.34375 -2.078125 C 9.695312 -2.078125 10.722656 -2.335938 11.421875 -2.859375 C 12.128906 -3.390625 12.484375 -4.125 12.484375 -5.0625 C 12.484375 -5.78125 12.269531 -6.375 11.84375 -6.84375 C 11.414062 -7.3125 10.726562 -7.664062 9.78125 -7.90625 L 6.6875 -8.671875 C 5.039062 -9.066406 3.835938 -9.695312 3.078125 -10.5625 C 2.316406 -11.425781 1.9375 -12.492188 1.9375 -13.765625 C 1.9375 -14.753906 2.191406 -15.617188 2.703125 -16.359375 C 3.210938 -17.097656 3.945312 -17.664062 4.90625 -18.0625 C 5.863281 -18.457031 7 -18.65625 8.3125 -18.65625 C 10 -18.65625 11.328125 -18.421875 12.296875 -17.953125 C 13.265625 -17.484375 14.019531 -16.828125 14.5625 -15.984375 L 13.03125 -14.5 L 12.703125 -14.5 C 12.117188 -15.164062 11.476562 -15.648438 10.78125 -15.953125 C 10.09375 -16.253906 9.269531 -16.40625 8.3125 -16.40625 C 7.113281 -16.40625 6.191406 -16.1875 5.546875 -15.75 C 4.898438 -15.320312 4.578125 -14.695312 4.578125 -13.875 C 4.578125 -13.132812 4.800781 -12.535156 5.25 -12.078125 C 5.707031 -11.628906 6.503906 -11.265625 7.640625 -10.984375 L 10.671875 -10.265625 C 12.265625 -9.890625 13.414062 -9.265625 14.125 -8.390625 C 14.832031 -7.515625 15.1875 -6.414062 15.1875 -5.09375 C 15.1875 -4.019531 14.929688 -3.070312 14.421875 -2.25 C 13.910156 -1.4375 13.140625 -0.800781 12.109375 -0.34375 C 11.085938 0.113281 9.832031 0.34375 8.34375 0.34375 Z M 8.34375 0.34375 "/></g></g></g><g fill="#000000" fill-opacity="1"><g transform="translate(156.936396, 1177.35199)"><g><path d="M 8.34375 0.34375 C 7.195312 0.34375 6.132812 0.191406 5.15625 -0.109375 C 4.175781 -0.410156 3.347656 -0.828125 2.671875 -1.359375 C 1.992188 -1.890625 1.519531 -2.488281 1.25 -3.15625 L 2.84375 -4.8125 L 3.1875 -4.8125 C 3.78125 -3.90625 4.5 -3.222656 5.34375 -2.765625 C 6.1875 -2.304688 7.1875 -2.078125 8.34375 -2.078125 C 9.695312 -2.078125 10.722656 -2.335938 11.421875 -2.859375 C 12.128906 -3.390625 12.484375 -4.125 12.484375 -5.0625 C 12.484375 -5.78125 12.269531 -6.375 11.84375 -6.84375 C 11.414062 -7.3125 10.726562 -7.664062 9.78125 -7.90625 L 6.6875 -8.671875 C 5.039062 -9.066406 3.835938 -9.695312 3.078125 -10.5625 C 2.316406 -11.425781 1.9375 -12.492188 1.9375 -13.765625 C 1.9375 -14.753906 2.191406 -15.617188 2.703125 -16.359375 C 3.210938 -17.097656 3.945312 -17.664062 4.90625 -18.0625 C 5.863281 -18.457031 7 -18.65625 8.3125 -18.65625 C 10 -18.65625 11.328125 -18.421875 12.296875 -17.953125 C 13.265625 -17.484375 14.019531 -16.828125 14.5625 -15.984375 L 13.03125 -14.5 L 12.703125 -14.5 C 12.117188 -15.164062 11.476562 -15.648438 10.78125 -15.953125 C 10.09375 -16.253906 9.269531 -16.40625 8.3125 -16.40625 C 7.113281 -16.40625 6.191406 -16.1875 5.546875 -15.75 C 4.898438 -15.320312 4.578125 -14.695312 4.578125 -13.875 C 4.578125 -13.132812 4.800781 -12.535156 5.25 -12.078125 C 5.707031 -11.628906 6.503906 -11.265625 7.640625 -10.984375 L 10.671875 -10.265625 C 12.265625 -9.890625 13.414062 -9.265625 14.125 -8.390625 C 14.832031 -7.515625 15.1875 -6.414062 15.1875 -5.09375 C 15.1875 -4.019531 14.929688 -3.070312 14.421875 -2.25 C 13.910156 -1.4375 13.140625 -0.800781 12.109375 -0.34375 C 11.085938 0.113281 9.832031 0.34375 8.34375 0.34375 Z M 8.34375 0.34375 "/></g></g></g><g fill="#000000" fill-opacity="1"><g transform="translate(44.158349, 1253.051943)"><g><path d="M 7.28125 0.34375 C 5.988281 0.34375 4.972656 -0.0195312 4.234375 -0.75 C 3.492188 -1.488281 3.125 -2.585938 3.125 -4.046875 L 3.125 -25.671875 L 5.828125 -25.671875 L 5.828125 -4.234375 C 5.828125 -3.472656 5.972656 -2.921875 6.265625 -2.578125 C 6.554688 -2.242188 7.015625 -2.078125 7.640625 -2.078125 C 8.015625 -2.078125 8.394531 -2.140625 8.78125 -2.265625 L 9.015625 -2.1875 L 9.328125 -0.0625 C 9.128906 0.0703125 8.84375 0.171875 8.46875 0.234375 C 8.101562 0.304688 7.707031 0.34375 7.28125 0.34375 Z M 7.28125 0.34375 "/></g></g></g><g fill="#000000" fill-opacity="1"><g transform="translate(54.118141, 1253.051943)"><g><path d="M 4.546875 -21.84375 C 3.972656 -21.84375 3.503906 -22.019531 3.140625 -22.375 C 2.785156 -22.738281 2.609375 -23.195312 2.609375 -23.75 C 2.609375 -24.3125 2.785156 -24.769531 3.140625 -25.125 C 3.503906 -25.488281 3.972656 -25.671875 4.546875 -25.671875 C 5.117188 -25.671875 5.582031 -25.488281 5.9375 -25.125 C 6.300781 -24.769531 6.484375 -24.3125 6.484375 -23.75 C 6.484375 -23.195312 6.300781 -22.738281 5.9375 -22.375 C 5.582031 -22.019531 5.117188 -21.84375 4.546875 -21.84375 Z M 3.1875 0 L 3.1875 -18.3125 L 5.890625 -18.3125 L 5.890625 0 Z M 3.1875 0 "/></g></g></g><g fill="#000000" fill-opacity="1"><g transform="translate(63.198157, 1253.051943)"><g><path d="M 3.1875 0 L 3.1875 -18.3125 L 5.765625 -18.3125 L 5.765625 -15.4375 L 6.109375 -15.359375 C 6.710938 -16.429688 7.488281 -17.25 8.4375 -17.8125 C 9.382812 -18.375 10.539062 -18.65625 11.90625 -18.65625 C 14.101562 -18.65625 15.695312 -18.09375 16.6875 -16.96875 C 17.675781 -15.851562 18.171875 -14.125 18.171875 -11.78125 L 18.171875 0 L 15.46875 0 L 15.46875 -11.71875 C 15.46875 -12.820312 15.328125 -13.707031 15.046875 -14.375 C 14.765625 -15.050781 14.328125 -15.539062 13.734375 -15.84375 C 13.140625 -16.144531 12.363281 -16.296875 11.40625 -16.296875 C 9.757812 -16.296875 8.425781 -15.75 7.40625 -14.65625 C 6.394531 -13.570312 5.890625 -11.816406 5.890625 -9.390625 L 5.890625 0 Z M 3.1875 0 "/></g></g></g><g fill="#000000" fill-opacity="1"><g transform="translate(84.279717, 1253.051943)"><g><path d="M 3.1875 0 L 3.1875 -25.671875 L 5.890625 -25.671875 L 5.890625 -10.671875 L 6.34375 -10.671875 L 13.15625 -18.3125 L 15.984375 -18.3125 L 15.984375 -17.9375 L 8.734375 -9.71875 L 16.6875 -0.421875 L 16.6875 0 L 13.65625 0 L 6.34375 -8.46875 L 5.890625 -8.46875 L 5.890625 0 Z M 3.1875 0 "/></g></g></g><g fill="#000000" fill-opacity="1"><g transform="translate(101.310962, 1253.051943)"><g><path d="M 8.34375 0.34375 C 7.195312 0.34375 6.132812 0.191406 5.15625 -0.109375 C 4.175781 -0.410156 3.347656 -0.828125 2.671875 -1.359375 C 1.992188 -1.890625 1.519531 -2.488281 1.25 -3.15625 L 2.84375 -4.8125 L 3.1875 -4.8125 C 3.78125 -3.90625 4.5 -3.222656 5.34375 -2.765625 C 6.1875 -2.304688 7.1875 -2.078125 8.34375 -2.078125 C 9.695312 -2.078125 10.722656 -2.335938 11.421875 -2.859375 C 12.128906 -3.390625 12.484375 -4.125 12.484375 -5.0625 C 12.484375 -5.78125 12.269531 -6.375 11.84375 -6.84375 C 11.414062 -7.3125 10.726562 -7.664062 9.78125 -7.90625 L 6.6875 -8.671875 C 5.039062 -9.066406 3.835938 -9.695312 3.078125 -10.5625 C 2.316406 -11.425781 1.9375 -12.492188 1.9375 -13.765625 C 1.9375 -14.753906 2.191406 -15.617188 2.703125 -16.359375 C 3.210938 -17.097656 3.945312 -17.664062 4.90625 -18.0625 C 5.863281 -18.457031 7 -18.65625 8.3125 -18.65625 C 10 -18.65625 11.328125 -18.421875 12.296875 -17.953125 C 13.265625 -17.484375 14.019531 -16.828125 14.5625 -15.984375 L 13.03125 -14.5 L 12.703125 -14.5 C 12.117188 -15.164062 11.476562 -15.648438 10.78125 -15.953125 C 10.09375 -16.253906 9.269531 -16.40625 8.3125 -16.40625 C 7.113281 -16.40625 6.191406 -16.1875 5.546875 -15.75 C 4.898438 -15.320312 4.578125 -14.695312 4.578125 -13.875 C 4.578125 -13.132812 4.800781 -12.535156 5.25 -12.078125 C 5.707031 -11.628906 6.503906 -11.265625 7.640625 -10.984375 L 10.671875 -10.265625 C 12.265625 -9.890625 13.414062 -9.265625 14.125 -8.390625 C 14.832031 -7.515625 15.1875 -6.414062 15.1875 -5.09375 C 15.1875 -4.019531 14.929688 -3.070312 14.421875 -2.25 C 13.910156 -1.4375 13.140625 -0.800781 12.109375 -0.34375 C 11.085938 0.113281 9.832031 0.34375 8.34375 0.34375 Z M 8.34375 0.34375 "/></g></g></g><path stroke-linecap="butt" transform="matrix(0.75, 0, 0, 0.75, 42.281004, 1128.251954)" fill="none" stroke-linejoin="miter" d="M 0.000327719 1.002603 L 898.536864 1.002603 " stroke="#000000" stroke-width="2" stroke-opacity="1" stroke-miterlimit="4"/><path stroke-linecap="butt" transform="matrix(0.75, 0, 0, 0.75, 42.281004, 1203.951907)" fill="none" stroke-linejoin="miter" d="M 0.000327719 1.001623 L 898.536864 1.001623 " stroke="#000000" stroke-width="2" stroke-opacity="1" stroke-miterlimit="4"/><path stroke-linecap="butt" transform="matrix(0.75, 0, 0, 0.75, 44.158349, 1275.901981)" fill="none" stroke-linejoin="miter" d="M 0.00240987 1.000483 L 898.538946 1.000483 " stroke="#000000" stroke-width="2" stroke-opacity="1" stroke-miterlimit="4"/></svg>