<svg xmlns="http://www.w3.org/2000/svg" xmlns:xlink="http://www.w3.org/1999/xlink" width="1080" zoomAndPan="magnify" viewBox="0 0 810 1439.999935" height="1920" preserveAspectRatio="xMidYMid meet" version="1.0"><defs><clipPath id="9d18e99f3e"><path d="M 0 0 L 810 0 L 810 557.820312 L 0 557.820312 Z M 0 0 " clip-rule="nonzero"/></clipPath><clipPath id="ddd725f13a"><path d="M 0 0 L 810 0 L 810 557.820312 L 0 557.820312 Z M 0 0 " clip-rule="nonzero"/></clipPath><clipPath id="1d08ce3649"><rect x="0" width="810" y="0" height="558"/></clipPath><clipPath id="e4e31aa2ec"><path d="M 44.160156 445.941406 L 245.230469 445.941406 L 245.230469 647.015625 L 44.160156 647.015625 Z M 44.160156 445.941406 " clip-rule="nonzero"/></clipPath><clipPath id="4b31675075"><path d="M 144.695312 445.941406 C 89.171875 445.941406 44.160156 490.953125 44.160156 546.476562 C 44.160156 602.003906 89.171875 647.015625 144.695312 647.015625 C 200.21875 647.015625 245.230469 602.003906 245.230469 546.476562 C 245.230469 490.953125 200.21875 445.941406 144.695312 445.941406 Z M 144.695312 445.941406 " clip-rule="nonzero"/></clipPath><clipPath id="ef18a734ed"><path d="M 0.160156 0.941406 L 201.230469 0.941406 L 201.230469 202.015625 L 0.160156 202.015625 Z M 0.160156 0.941406 " clip-rule="nonzero"/></clipPath><clipPath id="44331e7ddb"><path d="M 100.695312 0.941406 C 45.171875 0.941406 0.160156 45.953125 0.160156 101.476562 C 0.160156 157.003906 45.171875 202.015625 100.695312 202.015625 C 156.21875 202.015625 201.230469 157.003906 201.230469 101.476562 C 201.230469 45.953125 156.21875 0.941406 100.695312 0.941406 Z M 100.695312 0.941406 " clip-rule="nonzero"/></clipPath><clipPath id="dec3973d9a"><rect x="0" width="202" y="0" height="203"/></clipPath><clipPath id="307acebd0f"><path d="M 44.160156 921.261719 L 156.699219 921.261719 L 156.699219 1033.800781 L 44.160156 1033.800781 Z M 44.160156 921.261719 " clip-rule="nonzero"/></clipPath><clipPath id="91fdf7ac47"><path d="M 100.429688 921.261719 C 69.351562 921.261719 44.160156 946.457031 44.160156 977.53125 C 44.160156 1008.609375 69.351562 1033.800781 100.429688 1033.800781 C 131.503906 1033.800781 156.699219 1008.609375 156.699219 977.53125 C 156.699219 946.457031 131.503906 921.261719 100.429688 921.261719 Z M 100.429688 921.261719 " clip-rule="nonzero"/></clipPath><clipPath id="b8f3cf8d96"><path d="M 0.160156 0.261719 L 112.699219 0.261719 L 112.699219 112.800781 L 0.160156 112.800781 Z M 0.160156 0.261719 " clip-rule="nonzero"/></clipPath><clipPath id="30f10b8836"><path d="M 56.429688 0.261719 C 25.351562 0.261719 0.160156 25.457031 0.160156 56.53125 C 0.160156 87.609375 25.351562 112.800781 56.429688 112.800781 C 87.503906 112.800781 112.699219 87.609375 112.699219 56.53125 C 112.699219 25.457031 87.503906 0.261719 56.429688 0.261719 Z M 56.429688 0.261719 " clip-rule="nonzero"/></clipPath><clipPath id="9d08842301"><rect x="0" width="113" y="0" height="113"/></clipPath><clipPath id="fbd5ab6fd0"><path d="M 187.0625 921.261719 L 299.605469 921.261719 L 299.605469 1033.800781 L 187.0625 1033.800781 Z M 187.0625 921.261719 " clip-rule="nonzero"/></clipPath><clipPath id="57f7f2fc9f"><path d="M 243.332031 921.261719 C 212.257812 921.261719 187.0625 946.457031 187.0625 977.53125 C 187.0625 1008.609375 212.257812 1033.800781 243.332031 1033.800781 C 274.410156 1033.800781 299.605469 1008.609375 299.605469 977.53125 C 299.605469 946.457031 274.410156 921.261719 243.332031 921.261719 Z M 243.332031 921.261719 " clip-rule="nonzero"/></clipPath><clipPath id="2fe061e952"><path d="M 0.0625 0.261719 L 112.605469 0.261719 L 112.605469 112.800781 L 0.0625 112.800781 Z M 0.0625 0.261719 " clip-rule="nonzero"/></clipPath><clipPath id="133d9b788f"><path d="M 56.332031 0.261719 C 25.257812 0.261719 0.0625 25.457031 0.0625 56.53125 C 0.0625 87.609375 25.257812 112.800781 56.332031 112.800781 C 87.410156 112.800781 112.605469 87.609375 112.605469 56.53125 C 112.605469 25.457031 87.410156 0.261719 56.332031 0.261719 Z M 56.332031 0.261719 " clip-rule="nonzero"/></clipPath><clipPath id="cf205a3903"><rect x="0" width="113" y="0" height="113"/></clipPath><clipPath id="ce42231328"><path d="M 329.605469 921.261719 L 442.144531 921.261719 L 442.144531 1033.800781 L 329.605469 1033.800781 Z M 329.605469 921.261719 " clip-rule="nonzero"/></clipPath><clipPath id="0859954b1e"><path d="M 385.875 921.261719 C 354.796875 921.261719 329.605469 946.457031 329.605469 977.53125 C 329.605469 1008.609375 354.796875 1033.800781 385.875 1033.800781 C 416.949219 1033.800781 442.144531 1008.609375 442.144531 977.53125 C 442.144531 946.457031 416.949219 921.261719 385.875 921.261719 Z M 385.875 921.261719 " clip-rule="nonzero"/></clipPath><clipPath id="409df80968"><path d="M 0.605469 0.261719 L 113.144531 0.261719 L 113.144531 112.800781 L 0.605469 112.800781 Z M 0.605469 0.261719 " clip-rule="nonzero"/></clipPath><clipPath id="d82a4c20db"><path d="M 56.875 0.261719 C 25.796875 0.261719 0.605469 25.457031 0.605469 56.53125 C 0.605469 87.609375 25.796875 112.800781 56.875 112.800781 C 87.949219 112.800781 113.144531 87.609375 113.144531 56.53125 C 113.144531 25.457031 87.949219 0.261719 56.875 0.261719 Z M 56.875 0.261719 " clip-rule="nonzero"/></clipPath><clipPath id="03807e17a3"><rect x="0" width="114" y="0" height="113"/></clipPath><clipPath id="222d75307a"><path d="M 156.699219 1329.144531 L 668.195312 1329.144531 L 668.195312 1388.855469 L 156.699219 1388.855469 Z M 156.699219 1329.144531 " clip-rule="nonzero"/></clipPath><clipPath id="c501510460"><path d="M 175.449219 1329.144531 L 649.382812 1329.144531 C 654.355469 1329.144531 659.125 1331.121094 662.640625 1334.636719 C 666.15625 1338.152344 668.132812 1342.921875 668.132812 1347.894531 L 668.132812 1370.105469 C 668.132812 1375.078125 666.15625 1379.847656 662.640625 1383.363281 C 659.125 1386.878906 654.355469 1388.855469 649.382812 1388.855469 L 175.449219 1388.855469 C 170.476562 1388.855469 165.707031 1386.878906 162.191406 1383.363281 C 158.671875 1379.847656 156.699219 1375.078125 156.699219 1370.105469 L 156.699219 1347.894531 C 156.699219 1342.921875 158.671875 1338.152344 162.191406 1334.636719 C 165.707031 1331.121094 170.476562 1329.144531 175.449219 1329.144531 Z M 175.449219 1329.144531 " clip-rule="nonzero"/></clipPath><clipPath id="bdcb5ec1ac"><path d="M 0.699219 0.144531 L 512.160156 0.144531 L 512.160156 59.855469 L 0.699219 59.855469 Z M 0.699219 0.144531 " clip-rule="nonzero"/></clipPath><clipPath id="da6e0f57cb"><path d="M 19.449219 0.144531 L 493.382812 0.144531 C 498.355469 0.144531 503.125 2.121094 506.640625 5.636719 C 510.15625 9.152344 512.132812 13.921875 512.132812 18.894531 L 512.132812 41.105469 C 512.132812 46.078125 510.15625 50.847656 506.640625 54.363281 C 503.125 57.878906 498.355469 59.855469 493.382812 59.855469 L 19.449219 59.855469 C 14.476562 59.855469 9.707031 57.878906 6.191406 54.363281 C 2.671875 50.847656 0.699219 46.078125 0.699219 41.105469 L 0.699219 18.894531 C 0.699219 13.921875 2.671875 9.152344 6.191406 5.636719 C 9.707031 2.121094 14.476562 0.144531 19.449219 0.144531 Z M 19.449219 0.144531 " clip-rule="nonzero"/></clipPath><clipPath id="9e297d02d1"><rect x="0" width="513" y="0" height="60"/></clipPath></defs><rect x="-81" width="972" fill="#ffffff" y="-143.999994" height="1727.999922" fill-opacity="1"/><rect x="-81" width="972" fill="#ffffff" y="-143.999994" height="1727.999922" fill-opacity="1"/><g clip-path="url(#9d18e99f3e)"><g transform="matrix(1, 0, 0, 1, 0, -0.000000000000101068)"><g clip-path="url(#1d08ce3649)"><g clip-path="url(#ddd725f13a)"><path fill="#919191" d="M 0 0 L 810.582031 0 L 810.582031 557.820312 L 0 557.820312 Z M 0 0 " fill-opacity="1" fill-rule="nonzero"/></g></g></g></g><g clip-path="url(#e4e31aa2ec)"><g clip-path="url(#4b31675075)"><g transform="matrix(1, 0, 0, 1, 44, 445)"><g clip-path="url(#dec3973d9a)"><g clip-path="url(#ef18a734ed)"><g clip-path="url(#44331e7ddb)"><path fill="#d9d9d9" d="M 0.160156 0.941406 L 201.230469 0.941406 L 201.230469 202.015625 L 0.160156 202.015625 Z M 0.160156 0.941406 " fill-opacity="1" fill-rule="nonzero"/></g></g></g></g></g></g><g clip-path="url(#307acebd0f)"><g clip-path="url(#91fdf7ac47)"><g transform="matrix(1, 0, 0, 1, 44, 921)"><g clip-path="url(#9d08842301)"><g clip-path="url(#b8f3cf8d96)"><g clip-path="url(#30f10b8836)"><path fill="#d9d9d9" d="M 0.160156 0.261719 L 112.699219 0.261719 L 112.699219 112.800781 L 0.160156 112.800781 Z M 0.160156 0.261719 " fill-opacity="1" fill-rule="nonzero"/></g></g></g></g></g></g><g clip-path="url(#fbd5ab6fd0)"><g clip-path="url(#57f7f2fc9f)"><g transform="matrix(1, 0, 0, 1, 187, 921)"><g clip-path="url(#cf205a3903)"><g clip-path="url(#2fe061e952)"><g clip-path="url(#133d9b788f)"><path fill="#d9d9d9" d="M 0.0625 0.261719 L 112.605469 0.261719 L 112.605469 112.800781 L 0.0625 112.800781 Z M 0.0625 0.261719 " fill-opacity="1" fill-rule="nonzero"/></g></g></g></g></g></g><g clip-path="url(#ce42231328)"><g clip-path="url(#0859954b1e)"><g transform="matrix(1, 0, 0, 1, 329, 921)"><g clip-path="url(#03807e17a3)"><g clip-path="url(#409df80968)"><g clip-path="url(#d82a4c20db)"><path fill="#d9d9d9" d="M 0.605469 0.261719 L 113.144531 0.261719 L 113.144531 112.800781 L 0.605469 112.800781 Z M 0.605469 0.261719 " fill-opacity="1" fill-rule="nonzero"/></g></g></g></g></g></g><g clip-path="url(#222d75307a)"><g clip-path="url(#c501510460)"><g transform="matrix(1, 0, 0, 1, 156, 1329)"><g clip-path="url(#9e297d02d1)"><g clip-path="url(#bdcb5ec1ac)"><g clip-path="url(#da6e0f57cb)"><path fill="#919191" d="M 0.699219 0.144531 L 512.195312 0.144531 L 512.195312 59.855469 L 0.699219 59.855469 Z M 0.699219 0.144531 " fill-opacity="1" fill-rule="nonzero"/></g></g></g></g></g></g><path stroke-linecap="butt" transform="matrix(0.75, 0, 0, 0.75, 42.281004, 1128.251954)" fill="none" stroke-linejoin="miter" d="M 0.000327719 1.002603 L 898.536864 1.002603 " stroke="#000000" stroke-width="2" stroke-opacity="1" stroke-miterlimit="4"/><path stroke-linecap="butt" transform="matrix(0.75, 0, 0, 0.75, 42.281004, 1203.951907)" fill="none" stroke-linejoin="miter" d="M 0.000327719 1.001623 L 898.536864 1.001623 " stroke="#000000" stroke-width="2" stroke-opacity="1" stroke-miterlimit="4"/><path stroke-linecap="butt" transform="matrix(0.75, 0, 0, 0.75, 44.158349, 1275.901981)" fill="none" stroke-linejoin="miter" d="M 0.00240987 1.000483 L 898.538946 1.000483 " stroke="#000000" stroke-width="2" stroke-opacity="1" stroke-miterlimit="4"/></svg>