<svg xmlns="http://www.w3.org/2000/svg" xmlns:xlink="http://www.w3.org/1999/xlink" width="1080" zoomAndPan="magnify" viewBox="0 0 810 1439.999935" height="1920" preserveAspectRatio="xMidYMid meet" version="1.0"><defs><g/><clipPath id="9531d9c421"><path d="M 0 235 L 810 235 L 810 1439.988281 L 0 1439.988281 Z M 0 235 " clip-rule="nonzero"/></clipPath><clipPath id="aa5e48cc56"><path d="M 539.855469 240.910156 C 498.328125 237.46875 451.117188 235.210938 404.78125 235.210938 C 358.445312 235.210938 313.859375 237.144531 272.769531 240.589844 C 271.894531 240.695312 271.019531 240.695312 270.144531 240.804688 C 115.839844 254.574219 2.183594 290.929688 0 354.785156 L 0 1439.988281 L 810 1439.988281 L 810 355.589844 C 807.8125 290.714844 695.910156 254.355469 539.855469 240.910156 Z M 539.855469 240.910156 " clip-rule="nonzero"/></clipPath><clipPath id="06102088a5"><path d="M 0 0.199219 L 810 0.199219 L 810 1204.988281 L 0 1204.988281 Z M 0 0.199219 " clip-rule="nonzero"/></clipPath><clipPath id="10a0cb3055"><path d="M 539.855469 5.910156 C 498.328125 2.46875 451.117188 0.210938 404.78125 0.210938 C 358.445312 0.210938 313.859375 2.144531 272.769531 5.589844 C 271.894531 5.695312 271.019531 5.695312 270.144531 5.804688 C 115.839844 19.574219 2.183594 55.929688 0 119.785156 L 0 1204.988281 L 810 1204.988281 L 810 120.589844 C 807.8125 55.714844 695.910156 19.355469 539.855469 5.910156 Z M 539.855469 5.910156 " clip-rule="nonzero"/></clipPath><clipPath id="b48949671d"><rect x="0" width="810" y="0" height="1205"/></clipPath><clipPath id="09e9415804"><path d="M 289.714844 134.683594 L 490.785156 134.683594 L 490.785156 335.757812 L 289.714844 335.757812 Z M 289.714844 134.683594 " clip-rule="nonzero"/></clipPath><clipPath id="2cb55d4436"><path d="M 390.25 134.683594 C 334.726562 134.683594 289.714844 179.695312 289.714844 235.21875 C 289.714844 290.746094 334.726562 335.757812 390.25 335.757812 C 445.773438 335.757812 490.785156 290.746094 490.785156 235.21875 C 490.785156 179.695312 445.773438 134.683594 390.25 134.683594 Z M 390.25 134.683594 " clip-rule="nonzero"/></clipPath><clipPath id="1e9c7ae65d"><path d="M 0.714844 0.683594 L 201.785156 0.683594 L 201.785156 201.757812 L 0.714844 201.757812 Z M 0.714844 0.683594 " clip-rule="nonzero"/></clipPath><clipPath id="6ee7aa6ab0"><path d="M 101.25 0.683594 C 45.726562 0.683594 0.714844 45.695312 0.714844 101.21875 C 0.714844 156.746094 45.726562 201.757812 101.25 201.757812 C 156.773438 201.757812 201.785156 156.746094 201.785156 101.21875 C 201.785156 45.695312 156.773438 0.683594 101.25 0.683594 Z M 101.25 0.683594 " clip-rule="nonzero"/></clipPath><clipPath id="0ecdc6d4b7"><rect x="0" width="202" y="0" height="202"/></clipPath><clipPath id="c75c084720"><path d="M 259.542969 614.175781 L 550.628906 614.175781 L 550.628906 673.882812 L 259.542969 673.882812 Z M 259.542969 614.175781 " clip-rule="nonzero"/></clipPath><clipPath id="b1376160de"><path d="M 289.398438 614.175781 L 520.601562 614.175781 C 537.089844 614.175781 550.457031 627.542969 550.457031 644.03125 C 550.457031 660.519531 537.089844 673.882812 520.601562 673.882812 L 289.398438 673.882812 C 272.910156 673.882812 259.542969 660.519531 259.542969 644.03125 C 259.542969 627.542969 272.910156 614.175781 289.398438 614.175781 Z M 289.398438 614.175781 " clip-rule="nonzero"/></clipPath><clipPath id="128fdd9ca3"><path d="M 0.542969 0.175781 L 291.558594 0.175781 L 291.558594 59.882812 L 0.542969 59.882812 Z M 0.542969 0.175781 " clip-rule="nonzero"/></clipPath><clipPath id="1058c82aef"><path d="M 30.398438 0.175781 L 261.601562 0.175781 C 278.089844 0.175781 291.457031 13.542969 291.457031 30.03125 C 291.457031 46.519531 278.089844 59.882812 261.601562 59.882812 L 30.398438 59.882812 C 13.910156 59.882812 0.542969 46.519531 0.542969 30.03125 C 0.542969 13.542969 13.910156 0.175781 30.398438 0.175781 Z M 30.398438 0.175781 " clip-rule="nonzero"/></clipPath><clipPath id="db7e44ef73"><rect x="0" width="292" y="0" height="60"/></clipPath></defs><rect x="-81" width="972" fill="#ffffff" y="-143.999994" height="1727.999922" fill-opacity="1"/><rect x="-81" width="972" fill="#919191" y="-143.999994" height="1727.999922" fill-opacity="1"/><g clip-path="url(#9531d9c421)"><g clip-path="url(#aa5e48cc56)"><g transform="matrix(1, 0, 0, 1, 0, 235)"><g clip-path="url(#b48949671d)"><g clip-path="url(#06102088a5)"><g clip-path="url(#10a0cb3055)"><path fill="#ffffff" d="M 810 1204.988281 L 0 1204.988281 L 0 -0.519531 L 810 -0.519531 Z M 810 1204.988281 " fill-opacity="1" fill-rule="nonzero"/></g></g></g></g></g></g><g clip-path="url(#09e9415804)"><g clip-path="url(#2cb55d4436)"><g transform="matrix(1, 0, 0, 1, 289, 134)"><g clip-path="url(#0ecdc6d4b7)"><g clip-path="url(#1e9c7ae65d)"><g clip-path="url(#6ee7aa6ab0)"><path fill="#d9d9d9" d="M 0.714844 0.683594 L 201.785156 0.683594 L 201.785156 201.757812 L 0.714844 201.757812 Z M 0.714844 0.683594 " fill-opacity="1" fill-rule="nonzero"/></g></g></g></g></g></g><g fill="#000000" fill-opacity="1"><g transform="translate(33.997032, 1025.734931)"><g><path d="M 10.609375 0.34375 C 9.078125 0.34375 7.707031 0.140625 6.5 -0.265625 C 5.289062 -0.679688 4.28125 -1.226562 3.46875 -1.90625 C 2.664062 -2.582031 2.0625 -3.328125 1.65625 -4.140625 L 3.21875 -6.03125 L 3.640625 -6.03125 C 5.140625 -3.488281 7.460938 -2.21875 10.609375 -2.21875 C 12.429688 -2.21875 13.785156 -2.597656 14.671875 -3.359375 C 15.566406 -4.128906 16.015625 -5.195312 16.015625 -6.5625 C 16.015625 -7.351562 15.867188 -8.023438 15.578125 -8.578125 C 15.285156 -9.128906 14.800781 -9.601562 14.125 -10 C 13.445312 -10.394531 12.53125 -10.738281 11.375 -11.03125 L 8.53125 -11.71875 C 6.414062 -12.226562 4.859375 -13.039062 3.859375 -14.15625 C 2.859375 -15.269531 2.359375 -16.675781 2.359375 -18.375 C 2.359375 -19.582031 2.664062 -20.660156 3.28125 -21.609375 C 3.90625 -22.554688 4.8125 -23.296875 6 -23.828125 C 7.195312 -24.359375 8.628906 -24.625 10.296875 -24.625 C 12.117188 -24.625 13.65625 -24.363281 14.90625 -23.84375 C 16.164062 -23.332031 17.175781 -22.5625 17.9375 -21.53125 L 16.53125 -19.65625 L 16.125 -19.65625 C 15.425781 -20.507812 14.597656 -21.132812 13.640625 -21.53125 C 12.691406 -21.925781 11.578125 -22.125 10.296875 -22.125 C 8.609375 -22.125 7.335938 -21.796875 6.484375 -21.140625 C 5.628906 -20.492188 5.203125 -19.59375 5.203125 -18.4375 C 5.203125 -17.34375 5.515625 -16.472656 6.140625 -15.828125 C 6.773438 -15.179688 7.835938 -14.679688 9.328125 -14.328125 L 12.234375 -13.625 C 14.585938 -13.070312 16.289062 -12.222656 17.34375 -11.078125 C 18.40625 -9.929688 18.9375 -8.46875 18.9375 -6.6875 C 18.9375 -5.3125 18.628906 -4.097656 18.015625 -3.046875 C 17.398438 -1.992188 16.46875 -1.164062 15.21875 -0.5625 C 13.96875 0.0390625 12.429688 0.34375 10.609375 0.34375 Z M 10.609375 0.34375 "/></g></g></g><g fill="#000000" fill-opacity="1"><g transform="translate(54.796404, 1025.734931)"><g><path d="M 10.515625 0.34375 C 8.785156 0.34375 7.28125 -0.0195312 6 -0.75 C 4.71875 -1.476562 3.734375 -2.550781 3.046875 -3.96875 C 2.359375 -5.394531 2.015625 -7.117188 2.015625 -9.140625 C 2.015625 -11.171875 2.359375 -12.898438 3.046875 -14.328125 C 3.734375 -15.753906 4.71875 -16.832031 6 -17.5625 C 7.28125 -18.289062 8.785156 -18.65625 10.515625 -18.65625 C 12.234375 -18.65625 13.734375 -18.289062 15.015625 -17.5625 C 16.296875 -16.832031 17.28125 -15.753906 17.96875 -14.328125 C 18.664062 -12.898438 19.015625 -11.171875 19.015625 -9.140625 C 19.015625 -7.117188 18.664062 -5.394531 17.96875 -3.96875 C 17.28125 -2.550781 16.296875 -1.476562 15.015625 -0.75 C 13.734375 -0.0195312 12.234375 0.34375 10.515625 0.34375 Z M 10.515625 -2.078125 C 12.335938 -2.078125 13.734375 -2.648438 14.703125 -3.796875 C 15.671875 -4.953125 16.15625 -6.734375 16.15625 -9.140625 C 16.15625 -11.566406 15.671875 -13.351562 14.703125 -14.5 C 13.734375 -15.65625 12.335938 -16.234375 10.515625 -16.234375 C 8.679688 -16.234375 7.273438 -15.65625 6.296875 -14.5 C 5.328125 -13.34375 4.84375 -11.554688 4.84375 -9.140625 C 4.84375 -6.734375 5.328125 -4.953125 6.296875 -3.796875 C 7.273438 -2.648438 8.679688 -2.078125 10.515625 -2.078125 Z M 10.515625 -2.078125 "/></g></g></g><g fill="#000000" fill-opacity="1"><g transform="translate(75.811565, 1025.734931)"><g><path d="M 10.515625 0.34375 C 8.890625 0.34375 7.4375 -0.0195312 6.15625 -0.75 C 4.875 -1.488281 3.863281 -2.570312 3.125 -4 C 2.382812 -5.4375 2.015625 -7.148438 2.015625 -9.140625 C 2.015625 -11.148438 2.382812 -12.867188 3.125 -14.296875 C 3.863281 -15.734375 4.875 -16.816406 6.15625 -17.546875 C 7.4375 -18.285156 8.890625 -18.65625 10.515625 -18.65625 C 12.453125 -18.65625 13.988281 -18.289062 15.125 -17.5625 C 16.269531 -16.832031 17.097656 -15.859375 17.609375 -14.640625 L 15.765625 -13.3125 L 15.4375 -13.3125 C 14.9375 -14.320312 14.296875 -15.0625 13.515625 -15.53125 C 12.742188 -16 11.742188 -16.234375 10.515625 -16.234375 C 9.378906 -16.234375 8.382812 -15.96875 7.53125 -15.4375 C 6.6875 -14.90625 6.023438 -14.109375 5.546875 -13.046875 C 5.078125 -11.984375 4.84375 -10.679688 4.84375 -9.140625 C 4.84375 -7.617188 5.082031 -6.328125 5.5625 -5.265625 C 6.039062 -4.210938 6.703125 -3.414062 7.546875 -2.875 C 8.390625 -2.34375 9.378906 -2.078125 10.515625 -2.078125 C 11.785156 -2.078125 12.835938 -2.363281 13.671875 -2.9375 C 14.503906 -3.507812 15.160156 -4.414062 15.640625 -5.65625 L 15.984375 -5.65625 L 17.765625 -4.609375 C 17.285156 -3.078125 16.429688 -1.867188 15.203125 -0.984375 C 13.984375 -0.0976562 12.421875 0.34375 10.515625 0.34375 Z M 10.515625 0.34375 "/></g></g></g><g fill="#000000" fill-opacity="1"><g transform="translate(94.685377, 1025.734931)"><g><path d="M 4.546875 -21.84375 C 3.972656 -21.84375 3.503906 -22.019531 3.140625 -22.375 C 2.785156 -22.738281 2.609375 -23.195312 2.609375 -23.75 C 2.609375 -24.3125 2.785156 -24.769531 3.140625 -25.125 C 3.503906 -25.488281 3.972656 -25.671875 4.546875 -25.671875 C 5.117188 -25.671875 5.582031 -25.488281 5.9375 -25.125 C 6.300781 -24.769531 6.484375 -24.3125 6.484375 -23.75 C 6.484375 -23.195312 6.300781 -22.738281 5.9375 -22.375 C 5.582031 -22.019531 5.117188 -21.84375 4.546875 -21.84375 Z M 3.1875 0 L 3.1875 -18.3125 L 5.890625 -18.3125 L 5.890625 0 Z M 3.1875 0 "/></g></g></g><g fill="#000000" fill-opacity="1"><g transform="translate(103.765394, 1025.734931)"><g><path d="M 7.546875 0.34375 C 5.742188 0.34375 4.335938 -0.125 3.328125 -1.0625 C 2.316406 -2 1.8125 -3.34375 1.8125 -5.09375 C 1.8125 -6.175781 2.035156 -7.09375 2.484375 -7.84375 C 2.929688 -8.59375 3.625 -9.203125 4.5625 -9.671875 C 5.507812 -10.140625 6.738281 -10.503906 8.25 -10.765625 C 9.582031 -10.984375 10.59375 -11.226562 11.28125 -11.5 C 11.96875 -11.78125 12.429688 -12.09375 12.671875 -12.4375 C 12.910156 -12.78125 13.03125 -13.210938 13.03125 -13.734375 C 13.03125 -14.554688 12.742188 -15.1875 12.171875 -15.625 C 11.609375 -16.070312 10.695312 -16.296875 9.4375 -16.296875 C 8.25 -16.296875 7.226562 -16.066406 6.375 -15.609375 C 5.53125 -15.148438 4.753906 -14.46875 4.046875 -13.5625 L 3.71875 -13.5625 L 2.390625 -15.4375 C 3.160156 -16.425781 4.144531 -17.207031 5.34375 -17.78125 C 6.539062 -18.363281 7.90625 -18.65625 9.4375 -18.65625 C 11.59375 -18.65625 13.179688 -18.179688 14.203125 -17.234375 C 15.222656 -16.296875 15.734375 -14.988281 15.734375 -13.3125 L 15.734375 -3.609375 C 15.734375 -2.585938 16.164062 -2.078125 17.03125 -2.078125 C 17.320312 -2.078125 17.597656 -2.125 17.859375 -2.21875 L 18.09375 -2.15625 L 18.40625 -0.28125 C 18.207031 -0.144531 17.945312 -0.0390625 17.625 0.03125 C 17.300781 0.101562 16.96875 0.140625 16.625 0.140625 C 15.613281 0.140625 14.847656 -0.0820312 14.328125 -0.53125 C 13.816406 -0.976562 13.488281 -1.628906 13.34375 -2.484375 L 13 -2.53125 C 12.476562 -1.5625 11.773438 -0.835938 10.890625 -0.359375 C 10.003906 0.109375 8.890625 0.34375 7.546875 0.34375 Z M 8.15625 -1.8125 C 9.164062 -1.8125 10.046875 -2.046875 10.796875 -2.515625 C 11.546875 -2.984375 12.117188 -3.644531 12.515625 -4.5 C 12.910156 -5.351562 13.109375 -6.335938 13.109375 -7.453125 L 13.109375 -9.78125 L 12.796875 -9.84375 C 12.390625 -9.550781 11.890625 -9.304688 11.296875 -9.109375 C 10.710938 -8.921875 9.894531 -8.75 8.84375 -8.59375 C 7.78125 -8.457031 6.9375 -8.238281 6.3125 -7.9375 C 5.6875 -7.632812 5.238281 -7.253906 4.96875 -6.796875 C 4.707031 -6.335938 4.578125 -5.769531 4.578125 -5.09375 C 4.578125 -4.019531 4.890625 -3.203125 5.515625 -2.640625 C 6.148438 -2.085938 7.03125 -1.8125 8.15625 -1.8125 Z M 8.15625 -1.8125 "/></g></g></g><g fill="#000000" fill-opacity="1"><g transform="translate(122.705604, 1025.734931)"><g><path d="M 7.28125 0.34375 C 5.988281 0.34375 4.972656 -0.0195312 4.234375 -0.75 C 3.492188 -1.488281 3.125 -2.585938 3.125 -4.046875 L 3.125 -25.671875 L 5.828125 -25.671875 L 5.828125 -4.234375 C 5.828125 -3.472656 5.972656 -2.921875 6.265625 -2.578125 C 6.554688 -2.242188 7.015625 -2.078125 7.640625 -2.078125 C 8.015625 -2.078125 8.394531 -2.140625 8.78125 -2.265625 L 9.015625 -2.1875 L 9.328125 -0.0625 C 9.128906 0.0703125 8.84375 0.171875 8.46875 0.234375 C 8.101562 0.304688 7.707031 0.34375 7.28125 0.34375 Z M 7.28125 0.34375 "/></g></g></g><g fill="#000000" fill-opacity="1"><g transform="translate(132.665396, 1025.734931)"><g/></g></g><g fill="#000000" fill-opacity="1"><g transform="translate(140.998423, 1025.734931)"><g><path d="M 6.3125 0 L 3.671875 0 L 3.671875 -24.265625 L 7.90625 -24.265625 L 15.25 -3.71875 L 15.609375 -3.71875 L 22.953125 -24.265625 L 27.046875 -24.265625 L 27.046875 0 L 24.34375 0 L 24.34375 -19.8125 L 23.921875 -19.875 L 16.75 0 L 13.90625 0 L 6.71875 -19.875 L 6.3125 -19.8125 Z M 6.3125 0 "/></g></g></g><g fill="#000000" fill-opacity="1"><g transform="translate(171.724388, 1025.734931)"><g><path d="M 17.453125 -8.53125 L 4.859375 -8.53125 C 4.941406 -6.3125 5.476562 -4.679688 6.46875 -3.640625 C 7.457031 -2.597656 8.816406 -2.078125 10.546875 -2.078125 C 11.847656 -2.078125 12.894531 -2.304688 13.6875 -2.765625 C 14.488281 -3.234375 15.117188 -3.96875 15.578125 -4.96875 L 15.921875 -4.96875 L 17.6875 -3.921875 C 17.15625 -2.585938 16.300781 -1.539062 15.125 -0.78125 C 13.957031 -0.03125 12.429688 0.34375 10.546875 0.34375 C 8.773438 0.34375 7.25 -0.00390625 5.96875 -0.703125 C 4.695312 -1.398438 3.71875 -2.457031 3.03125 -3.875 C 2.351562 -5.289062 2.015625 -7.046875 2.015625 -9.140625 C 2.015625 -11.222656 2.375 -12.976562 3.09375 -14.40625 C 3.820312 -15.832031 4.8125 -16.894531 6.0625 -17.59375 C 7.320312 -18.300781 8.757812 -18.65625 10.375 -18.65625 C 12.71875 -18.65625 14.546875 -17.992188 15.859375 -16.671875 C 17.179688 -15.347656 17.847656 -13.390625 17.859375 -10.796875 C 17.859375 -9.773438 17.835938 -9.085938 17.796875 -8.734375 Z M 15.1875 -10.796875 C 15.144531 -12.742188 14.710938 -14.160156 13.890625 -15.046875 C 13.078125 -15.929688 11.90625 -16.375 10.375 -16.375 C 8.769531 -16.375 7.507812 -15.925781 6.59375 -15.03125 C 5.6875 -14.144531 5.132812 -12.734375 4.9375 -10.796875 Z M 15.1875 -10.796875 "/></g></g></g><g fill="#000000" fill-opacity="1"><g transform="translate(191.24558, 1025.734931)"><g><path d="M 9.5 0.34375 C 8.019531 0.34375 6.71875 -0.00390625 5.59375 -0.703125 C 4.476562 -1.410156 3.601562 -2.472656 2.96875 -3.890625 C 2.332031 -5.304688 2.015625 -7.054688 2.015625 -9.140625 C 2.015625 -11.234375 2.34375 -12.988281 3 -14.40625 C 3.664062 -15.832031 4.582031 -16.894531 5.75 -17.59375 C 6.914062 -18.300781 8.269531 -18.65625 9.8125 -18.65625 C 11.03125 -18.65625 12.125 -18.425781 13.09375 -17.96875 C 14.070312 -17.507812 14.910156 -16.753906 15.609375 -15.703125 L 15.953125 -15.765625 L 15.953125 -25.671875 L 18.65625 -25.671875 L 18.65625 0 L 15.953125 0 L 15.953125 -2.671875 L 15.609375 -2.734375 C 15.003906 -1.828125 14.191406 -1.085938 13.171875 -0.515625 C 12.148438 0.0546875 10.925781 0.34375 9.5 0.34375 Z M 10.34375 -2.078125 C 12.050781 -2.078125 13.410156 -2.660156 14.421875 -3.828125 C 15.441406 -4.992188 15.953125 -6.765625 15.953125 -9.140625 C 15.953125 -11.535156 15.441406 -13.316406 14.421875 -14.484375 C 13.410156 -15.648438 12.050781 -16.234375 10.34375 -16.234375 C 8.582031 -16.234375 7.222656 -15.660156 6.265625 -14.515625 C 5.316406 -13.378906 4.84375 -11.585938 4.84375 -9.140625 C 4.84375 -4.429688 6.675781 -2.078125 10.34375 -2.078125 Z M 10.34375 -2.078125 "/></g></g></g><g fill="#000000" fill-opacity="1"><g transform="translate(213.10733, 1025.734931)"><g><path d="M 4.546875 -21.84375 C 3.972656 -21.84375 3.503906 -22.019531 3.140625 -22.375 C 2.785156 -22.738281 2.609375 -23.195312 2.609375 -23.75 C 2.609375 -24.3125 2.785156 -24.769531 3.140625 -25.125 C 3.503906 -25.488281 3.972656 -25.671875 4.546875 -25.671875 C 5.117188 -25.671875 5.582031 -25.488281 5.9375 -25.125 C 6.300781 -24.769531 6.484375 -24.3125 6.484375 -23.75 C 6.484375 -23.195312 6.300781 -22.738281 5.9375 -22.375 C 5.582031 -22.019531 5.117188 -21.84375 4.546875 -21.84375 Z M 3.1875 0 L 3.1875 -18.3125 L 5.890625 -18.3125 L 5.890625 0 Z M 3.1875 0 "/></g></g></g><g fill="#000000" fill-opacity="1"><g transform="translate(222.187346, 1025.734931)"><g><path d="M 7.546875 0.34375 C 5.742188 0.34375 4.335938 -0.125 3.328125 -1.0625 C 2.316406 -2 1.8125 -3.34375 1.8125 -5.09375 C 1.8125 -6.175781 2.035156 -7.09375 2.484375 -7.84375 C 2.929688 -8.59375 3.625 -9.203125 4.5625 -9.671875 C 5.507812 -10.140625 6.738281 -10.503906 8.25 -10.765625 C 9.582031 -10.984375 10.59375 -11.226562 11.28125 -11.5 C 11.96875 -11.78125 12.429688 -12.09375 12.671875 -12.4375 C 12.910156 -12.78125 13.03125 -13.210938 13.03125 -13.734375 C 13.03125 -14.554688 12.742188 -15.1875 12.171875 -15.625 C 11.609375 -16.070312 10.695312 -16.296875 9.4375 -16.296875 C 8.25 -16.296875 7.226562 -16.066406 6.375 -15.609375 C 5.53125 -15.148438 4.753906 -14.46875 4.046875 -13.5625 L 3.71875 -13.5625 L 2.390625 -15.4375 C 3.160156 -16.425781 4.144531 -17.207031 5.34375 -17.78125 C 6.539062 -18.363281 7.90625 -18.65625 9.4375 -18.65625 C 11.59375 -18.65625 13.179688 -18.179688 14.203125 -17.234375 C 15.222656 -16.296875 15.734375 -14.988281 15.734375 -13.3125 L 15.734375 -3.609375 C 15.734375 -2.585938 16.164062 -2.078125 17.03125 -2.078125 C 17.320312 -2.078125 17.597656 -2.125 17.859375 -2.21875 L 18.09375 -2.15625 L 18.40625 -0.28125 C 18.207031 -0.144531 17.945312 -0.0390625 17.625 0.03125 C 17.300781 0.101562 16.96875 0.140625 16.625 0.140625 C 15.613281 0.140625 14.847656 -0.0820312 14.328125 -0.53125 C 13.816406 -0.976562 13.488281 -1.628906 13.34375 -2.484375 L 13 -2.53125 C 12.476562 -1.5625 11.773438 -0.835938 10.890625 -0.359375 C 10.003906 0.109375 8.890625 0.34375 7.546875 0.34375 Z M 8.15625 -1.8125 C 9.164062 -1.8125 10.046875 -2.046875 10.796875 -2.515625 C 11.546875 -2.984375 12.117188 -3.644531 12.515625 -4.5 C 12.910156 -5.351562 13.109375 -6.335938 13.109375 -7.453125 L 13.109375 -9.78125 L 12.796875 -9.84375 C 12.390625 -9.550781 11.890625 -9.304688 11.296875 -9.109375 C 10.710938 -8.921875 9.894531 -8.75 8.84375 -8.59375 C 7.78125 -8.457031 6.9375 -8.238281 6.3125 -7.9375 C 5.6875 -7.632812 5.238281 -7.253906 4.96875 -6.796875 C 4.707031 -6.335938 4.578125 -5.769531 4.578125 -5.09375 C 4.578125 -4.019531 4.890625 -3.203125 5.515625 -2.640625 C 6.148438 -2.085938 7.03125 -1.8125 8.15625 -1.8125 Z M 8.15625 -1.8125 "/></g></g></g><path stroke-linecap="butt" transform="matrix(0.75, 0, 0, 0.75, 32.691838, 830.484988)" fill="none" stroke-linejoin="miter" d="M -0.000575565 0.999183 L 898.535961 0.999183 " stroke="#000000" stroke-width="2" stroke-opacity="1" stroke-miterlimit="4"/><path stroke-linecap="butt" transform="matrix(0.75, 0, 0, 0.75, 32.691838, 1044.884889)" fill="none" stroke-linejoin="miter" d="M -0.000575565 1.002439 L 898.535961 1.002439 " stroke="#000000" stroke-width="2" stroke-opacity="1" stroke-miterlimit="4"/><g clip-path="url(#c75c084720)"><g clip-path="url(#b1376160de)"><g transform="matrix(1, 0, 0, 1, 259, 614)"><g clip-path="url(#db7e44ef73)"><g clip-path="url(#128fdd9ca3)"><g clip-path="url(#1058c82aef)"><path fill="#d9d9d9" d="M 0.542969 0.175781 L 291.394531 0.175781 L 291.394531 59.882812 L 0.542969 59.882812 Z M 0.542969 0.175781 " fill-opacity="1" fill-rule="nonzero"/></g></g></g></g></g></g><g fill="#000000" fill-opacity="1"><g transform="translate(33.997032, 804.634998)"><g><path d="M 12.359375 -24.265625 C 14.023438 -24.265625 15.453125 -23.96875 16.640625 -23.375 C 17.835938 -22.78125 18.75 -21.925781 19.375 -20.8125 C 20.007812 -19.695312 20.328125 -18.390625 20.328125 -16.890625 C 20.328125 -15.378906 20.007812 -14.070312 19.375 -12.96875 C 18.75 -11.863281 17.835938 -11.007812 16.640625 -10.40625 C 15.453125 -9.800781 14.023438 -9.5 12.359375 -9.5 L 6.53125 -9.5 L 6.53125 0 L 3.671875 0 L 3.671875 -24.265625 Z M 12.265625 -11.9375 C 15.640625 -11.9375 17.328125 -13.585938 17.328125 -16.890625 C 17.328125 -20.191406 15.640625 -21.84375 12.265625 -21.84375 L 6.53125 -21.84375 L 6.53125 -11.9375 Z M 12.265625 -11.9375 "/></g></g></g><g fill="#000000" fill-opacity="1"><g transform="translate(55.161562, 804.634998)"><g><path d="M 17.453125 -8.53125 L 4.859375 -8.53125 C 4.941406 -6.3125 5.476562 -4.679688 6.46875 -3.640625 C 7.457031 -2.597656 8.816406 -2.078125 10.546875 -2.078125 C 11.847656 -2.078125 12.894531 -2.304688 13.6875 -2.765625 C 14.488281 -3.234375 15.117188 -3.96875 15.578125 -4.96875 L 15.921875 -4.96875 L 17.6875 -3.921875 C 17.15625 -2.585938 16.300781 -1.539062 15.125 -0.78125 C 13.957031 -0.03125 12.429688 0.34375 10.546875 0.34375 C 8.773438 0.34375 7.25 -0.00390625 5.96875 -0.703125 C 4.695312 -1.398438 3.71875 -2.457031 3.03125 -3.875 C 2.351562 -5.289062 2.015625 -7.046875 2.015625 -9.140625 C 2.015625 -11.222656 2.375 -12.976562 3.09375 -14.40625 C 3.820312 -15.832031 4.8125 -16.894531 6.0625 -17.59375 C 7.320312 -18.300781 8.757812 -18.65625 10.375 -18.65625 C 12.71875 -18.65625 14.546875 -17.992188 15.859375 -16.671875 C 17.179688 -15.347656 17.847656 -13.390625 17.859375 -10.796875 C 17.859375 -9.773438 17.835938 -9.085938 17.796875 -8.734375 Z M 15.1875 -10.796875 C 15.144531 -12.742188 14.710938 -14.160156 13.890625 -15.046875 C 13.078125 -15.929688 11.90625 -16.375 10.375 -16.375 C 8.769531 -16.375 7.507812 -15.925781 6.59375 -15.03125 C 5.6875 -14.144531 5.132812 -12.734375 4.9375 -10.796875 Z M 15.1875 -10.796875 "/></g></g></g><g fill="#000000" fill-opacity="1"><g transform="translate(74.682755, 804.634998)"><g><path d="M 3.1875 0 L 3.1875 -18.3125 L 5.765625 -18.3125 L 5.765625 -15.4375 L 6.109375 -15.359375 C 6.960938 -17.441406 8.566406 -18.484375 10.921875 -18.484375 C 12.171875 -18.484375 13.109375 -18.253906 13.734375 -17.796875 L 13.03125 -15.5 L 12.703125 -15.4375 C 12.015625 -15.78125 11.257812 -15.953125 10.4375 -15.953125 C 8.976562 -15.953125 7.851562 -15.40625 7.0625 -14.3125 C 6.28125 -13.21875 5.890625 -11.441406 5.890625 -8.984375 L 5.890625 0 Z M 3.1875 0 "/></g></g></g><g fill="#000000" fill-opacity="1"><g transform="translate(88.825659, 804.634998)"><g><path d="M 8.34375 0.34375 C 7.195312 0.34375 6.132812 0.191406 5.15625 -0.109375 C 4.175781 -0.410156 3.347656 -0.828125 2.671875 -1.359375 C 1.992188 -1.890625 1.519531 -2.488281 1.25 -3.15625 L 2.84375 -4.8125 L 3.1875 -4.8125 C 3.78125 -3.90625 4.5 -3.222656 5.34375 -2.765625 C 6.1875 -2.304688 7.1875 -2.078125 8.34375 -2.078125 C 9.695312 -2.078125 10.722656 -2.335938 11.421875 -2.859375 C 12.128906 -3.390625 12.484375 -4.125 12.484375 -5.0625 C 12.484375 -5.78125 12.269531 -6.375 11.84375 -6.84375 C 11.414062 -7.3125 10.726562 -7.664062 9.78125 -7.90625 L 6.6875 -8.671875 C 5.039062 -9.066406 3.835938 -9.695312 3.078125 -10.5625 C 2.316406 -11.425781 1.9375 -12.492188 1.9375 -13.765625 C 1.9375 -14.753906 2.191406 -15.617188 2.703125 -16.359375 C 3.210938 -17.097656 3.945312 -17.664062 4.90625 -18.0625 C 5.863281 -18.457031 7 -18.65625 8.3125 -18.65625 C 10 -18.65625 11.328125 -18.421875 12.296875 -17.953125 C 13.265625 -17.484375 14.019531 -16.828125 14.5625 -15.984375 L 13.03125 -14.5 L 12.703125 -14.5 C 12.117188 -15.164062 11.476562 -15.648438 10.78125 -15.953125 C 10.09375 -16.253906 9.269531 -16.40625 8.3125 -16.40625 C 7.113281 -16.40625 6.191406 -16.1875 5.546875 -15.75 C 4.898438 -15.320312 4.578125 -14.695312 4.578125 -13.875 C 4.578125 -13.132812 4.800781 -12.535156 5.25 -12.078125 C 5.707031 -11.628906 6.503906 -11.265625 7.640625 -10.984375 L 10.671875 -10.265625 C 12.265625 -9.890625 13.414062 -9.265625 14.125 -8.390625 C 14.832031 -7.515625 15.1875 -6.414062 15.1875 -5.09375 C 15.1875 -4.019531 14.929688 -3.070312 14.421875 -2.25 C 13.910156 -1.4375 13.140625 -0.800781 12.109375 -0.34375 C 11.085938 0.113281 9.832031 0.34375 8.34375 0.34375 Z M 8.34375 0.34375 "/></g></g></g><g fill="#000000" fill-opacity="1"><g transform="translate(105.757306, 804.634998)"><g><path d="M 10.515625 0.34375 C 8.785156 0.34375 7.28125 -0.0195312 6 -0.75 C 4.71875 -1.476562 3.734375 -2.550781 3.046875 -3.96875 C 2.359375 -5.394531 2.015625 -7.117188 2.015625 -9.140625 C 2.015625 -11.171875 2.359375 -12.898438 3.046875 -14.328125 C 3.734375 -15.753906 4.71875 -16.832031 6 -17.5625 C 7.28125 -18.289062 8.785156 -18.65625 10.515625 -18.65625 C 12.234375 -18.65625 13.734375 -18.289062 15.015625 -17.5625 C 16.296875 -16.832031 17.28125 -15.753906 17.96875 -14.328125 C 18.664062 -12.898438 19.015625 -11.171875 19.015625 -9.140625 C 19.015625 -7.117188 18.664062 -5.394531 17.96875 -3.96875 C 17.28125 -2.550781 16.296875 -1.476562 15.015625 -0.75 C 13.734375 -0.0195312 12.234375 0.34375 10.515625 0.34375 Z M 10.515625 -2.078125 C 12.335938 -2.078125 13.734375 -2.648438 14.703125 -3.796875 C 15.671875 -4.953125 16.15625 -6.734375 16.15625 -9.140625 C 16.15625 -11.566406 15.671875 -13.351562 14.703125 -14.5 C 13.734375 -15.65625 12.335938 -16.234375 10.515625 -16.234375 C 8.679688 -16.234375 7.273438 -15.65625 6.296875 -14.5 C 5.328125 -13.34375 4.84375 -11.554688 4.84375 -9.140625 C 4.84375 -6.734375 5.328125 -4.953125 6.296875 -3.796875 C 7.273438 -2.648438 8.679688 -2.078125 10.515625 -2.078125 Z M 10.515625 -2.078125 "/></g></g></g><g fill="#000000" fill-opacity="1"><g transform="translate(126.772468, 804.634998)"><g><path d="M 3.1875 0 L 3.1875 -18.3125 L 5.765625 -18.3125 L 5.765625 -15.4375 L 6.109375 -15.359375 C 6.710938 -16.429688 7.488281 -17.25 8.4375 -17.8125 C 9.382812 -18.375 10.539062 -18.65625 11.90625 -18.65625 C 14.101562 -18.65625 15.695312 -18.09375 16.6875 -16.96875 C 17.675781 -15.851562 18.171875 -14.125 18.171875 -11.78125 L 18.171875 0 L 15.46875 0 L 15.46875 -11.71875 C 15.46875 -12.820312 15.328125 -13.707031 15.046875 -14.375 C 14.765625 -15.050781 14.328125 -15.539062 13.734375 -15.84375 C 13.140625 -16.144531 12.363281 -16.296875 11.40625 -16.296875 C 9.757812 -16.296875 8.425781 -15.75 7.40625 -14.65625 C 6.394531 -13.570312 5.890625 -11.816406 5.890625 -9.390625 L 5.890625 0 Z M 3.1875 0 "/></g></g></g><g fill="#000000" fill-opacity="1"><g transform="translate(147.854028, 804.634998)"><g><path d="M 7.546875 0.34375 C 5.742188 0.34375 4.335938 -0.125 3.328125 -1.0625 C 2.316406 -2 1.8125 -3.34375 1.8125 -5.09375 C 1.8125 -6.175781 2.035156 -7.09375 2.484375 -7.84375 C 2.929688 -8.59375 3.625 -9.203125 4.5625 -9.671875 C 5.507812 -10.140625 6.738281 -10.503906 8.25 -10.765625 C 9.582031 -10.984375 10.59375 -11.226562 11.28125 -11.5 C 11.96875 -11.78125 12.429688 -12.09375 12.671875 -12.4375 C 12.910156 -12.78125 13.03125 -13.210938 13.03125 -13.734375 C 13.03125 -14.554688 12.742188 -15.1875 12.171875 -15.625 C 11.609375 -16.070312 10.695312 -16.296875 9.4375 -16.296875 C 8.25 -16.296875 7.226562 -16.066406 6.375 -15.609375 C 5.53125 -15.148438 4.753906 -14.46875 4.046875 -13.5625 L 3.71875 -13.5625 L 2.390625 -15.4375 C 3.160156 -16.425781 4.144531 -17.207031 5.34375 -17.78125 C 6.539062 -18.363281 7.90625 -18.65625 9.4375 -18.65625 C 11.59375 -18.65625 13.179688 -18.179688 14.203125 -17.234375 C 15.222656 -16.296875 15.734375 -14.988281 15.734375 -13.3125 L 15.734375 -3.609375 C 15.734375 -2.585938 16.164062 -2.078125 17.03125 -2.078125 C 17.320312 -2.078125 17.597656 -2.125 17.859375 -2.21875 L 18.09375 -2.15625 L 18.40625 -0.28125 C 18.207031 -0.144531 17.945312 -0.0390625 17.625 0.03125 C 17.300781 0.101562 16.96875 0.140625 16.625 0.140625 C 15.613281 0.140625 14.847656 -0.0820312 14.328125 -0.53125 C 13.816406 -0.976562 13.488281 -1.628906 13.34375 -2.484375 L 13 -2.53125 C 12.476562 -1.5625 11.773438 -0.835938 10.890625 -0.359375 C 10.003906 0.109375 8.890625 0.34375 7.546875 0.34375 Z M 8.15625 -1.8125 C 9.164062 -1.8125 10.046875 -2.046875 10.796875 -2.515625 C 11.546875 -2.984375 12.117188 -3.644531 12.515625 -4.5 C 12.910156 -5.351562 13.109375 -6.335938 13.109375 -7.453125 L 13.109375 -9.78125 L 12.796875 -9.84375 C 12.390625 -9.550781 11.890625 -9.304688 11.296875 -9.109375 C 10.710938 -8.921875 9.894531 -8.75 8.84375 -8.59375 C 7.78125 -8.457031 6.9375 -8.238281 6.3125 -7.9375 C 5.6875 -7.632812 5.238281 -7.253906 4.96875 -6.796875 C 4.707031 -6.335938 4.578125 -5.769531 4.578125 -5.09375 C 4.578125 -4.019531 4.890625 -3.203125 5.515625 -2.640625 C 6.148438 -2.085938 7.03125 -1.8125 8.15625 -1.8125 Z M 8.15625 -1.8125 "/></g></g></g><g fill="#000000" fill-opacity="1"><g transform="translate(166.794238, 804.634998)"><g><path d="M 7.28125 0.34375 C 5.988281 0.34375 4.972656 -0.0195312 4.234375 -0.75 C 3.492188 -1.488281 3.125 -2.585938 3.125 -4.046875 L 3.125 -25.671875 L 5.828125 -25.671875 L 5.828125 -4.234375 C 5.828125 -3.472656 5.972656 -2.921875 6.265625 -2.578125 C 6.554688 -2.242188 7.015625 -2.078125 7.640625 -2.078125 C 8.015625 -2.078125 8.394531 -2.140625 8.78125 -2.265625 L 9.015625 -2.1875 L 9.328125 -0.0625 C 9.128906 0.0703125 8.84375 0.171875 8.46875 0.234375 C 8.101562 0.304688 7.707031 0.34375 7.28125 0.34375 Z M 7.28125 0.34375 "/></g></g></g><g fill="#000000" fill-opacity="1"><g transform="translate(176.75403, 804.634998)"><g/></g></g><g fill="#000000" fill-opacity="1"><g transform="translate(185.087057, 804.634998)"><g><path d="M 6.53125 0 L 3.671875 0 L 3.671875 -24.265625 L 6.53125 -24.265625 Z M 6.53125 0 "/></g></g></g><g fill="#000000" fill-opacity="1"><g transform="translate(195.295849, 804.634998)"><g><path d="M 3.1875 0 L 3.1875 -18.3125 L 5.765625 -18.3125 L 5.765625 -15.4375 L 6.109375 -15.359375 C 6.710938 -16.429688 7.488281 -17.25 8.4375 -17.8125 C 9.382812 -18.375 10.539062 -18.65625 11.90625 -18.65625 C 14.101562 -18.65625 15.695312 -18.09375 16.6875 -16.96875 C 17.675781 -15.851562 18.171875 -14.125 18.171875 -11.78125 L 18.171875 0 L 15.46875 0 L 15.46875 -11.71875 C 15.46875 -12.820312 15.328125 -13.707031 15.046875 -14.375 C 14.765625 -15.050781 14.328125 -15.539062 13.734375 -15.84375 C 13.140625 -16.144531 12.363281 -16.296875 11.40625 -16.296875 C 9.757812 -16.296875 8.425781 -15.75 7.40625 -14.65625 C 6.394531 -13.570312 5.890625 -11.816406 5.890625 -9.390625 L 5.890625 0 Z M 3.1875 0 "/></g></g></g><g fill="#000000" fill-opacity="1"><g transform="translate(216.244612, 804.634998)"><g><path d="M 4.078125 0 L 4.078125 -16.109375 L 0.890625 -16.109375 L 0.890625 -18.328125 L 4.078125 -18.328125 C 3.878906 -19.128906 3.78125 -19.890625 3.78125 -20.609375 C 3.78125 -21.785156 4.03125 -22.78125 4.53125 -23.59375 C 5.039062 -24.40625 5.742188 -25.007812 6.640625 -25.40625 C 7.535156 -25.8125 8.570312 -26.015625 9.75 -26.015625 C 11.570312 -26.015625 12.972656 -25.625 13.953125 -24.84375 L 12.90625 -22.921875 L 12.546875 -22.859375 C 11.828125 -23.429688 10.894531 -23.71875 9.75 -23.71875 C 8.675781 -23.71875 7.863281 -23.441406 7.3125 -22.890625 C 6.757812 -22.335938 6.484375 -21.550781 6.484375 -20.53125 C 6.484375 -19.90625 6.585938 -19.171875 6.796875 -18.328125 L 12.625 -18.328125 L 12.625 -16.109375 L 6.796875 -16.109375 L 6.796875 0 Z M 4.078125 0 "/></g></g></g><g fill="#000000" fill-opacity="1"><g transform="translate(229.076139, 804.634998)"><g><path d="M 10.515625 0.34375 C 8.785156 0.34375 7.28125 -0.0195312 6 -0.75 C 4.71875 -1.476562 3.734375 -2.550781 3.046875 -3.96875 C 2.359375 -5.394531 2.015625 -7.117188 2.015625 -9.140625 C 2.015625 -11.171875 2.359375 -12.898438 3.046875 -14.328125 C 3.734375 -15.753906 4.71875 -16.832031 6 -17.5625 C 7.28125 -18.289062 8.785156 -18.65625 10.515625 -18.65625 C 12.234375 -18.65625 13.734375 -18.289062 15.015625 -17.5625 C 16.296875 -16.832031 17.28125 -15.753906 17.96875 -14.328125 C 18.664062 -12.898438 19.015625 -11.171875 19.015625 -9.140625 C 19.015625 -7.117188 18.664062 -5.394531 17.96875 -3.96875 C 17.28125 -2.550781 16.296875 -1.476562 15.015625 -0.75 C 13.734375 -0.0195312 12.234375 0.34375 10.515625 0.34375 Z M 10.515625 -2.078125 C 12.335938 -2.078125 13.734375 -2.648438 14.703125 -3.796875 C 15.671875 -4.953125 16.15625 -6.734375 16.15625 -9.140625 C 16.15625 -11.566406 15.671875 -13.351562 14.703125 -14.5 C 13.734375 -15.65625 12.335938 -16.234375 10.515625 -16.234375 C 8.679688 -16.234375 7.273438 -15.65625 6.296875 -14.5 C 5.328125 -13.34375 4.84375 -11.554688 4.84375 -9.140625 C 4.84375 -6.734375 5.328125 -4.953125 6.296875 -3.796875 C 7.273438 -2.648438 8.679688 -2.078125 10.515625 -2.078125 Z M 10.515625 -2.078125 "/></g></g></g><g fill="#000000" fill-opacity="1"><g transform="translate(33.997032, 1229.634953)"><g><path d="M 6.53125 -24.265625 L 6.53125 -2.359375 L 18.21875 -2.359375 L 18.21875 0 L 3.671875 0 L 3.671875 -24.265625 Z M 6.53125 -24.265625 "/></g></g></g><g fill="#000000" fill-opacity="1"><g transform="translate(53.236036, 1229.634953)"><g><path d="M 4.546875 -21.84375 C 3.972656 -21.84375 3.503906 -22.019531 3.140625 -22.375 C 2.785156 -22.738281 2.609375 -23.195312 2.609375 -23.75 C 2.609375 -24.3125 2.785156 -24.769531 3.140625 -25.125 C 3.503906 -25.488281 3.972656 -25.671875 4.546875 -25.671875 C 5.117188 -25.671875 5.582031 -25.488281 5.9375 -25.125 C 6.300781 -24.769531 6.484375 -24.3125 6.484375 -23.75 C 6.484375 -23.195312 6.300781 -22.738281 5.9375 -22.375 C 5.582031 -22.019531 5.117188 -21.84375 4.546875 -21.84375 Z M 3.1875 0 L 3.1875 -18.3125 L 5.890625 -18.3125 L 5.890625 0 Z M 3.1875 0 "/></g></g></g><g fill="#000000" fill-opacity="1"><g transform="translate(62.316053, 1229.634953)"><g><path d="M 3.1875 0 L 3.1875 -18.3125 L 5.765625 -18.3125 L 5.765625 -15.4375 L 6.109375 -15.359375 C 6.710938 -16.429688 7.488281 -17.25 8.4375 -17.8125 C 9.382812 -18.375 10.539062 -18.65625 11.90625 -18.65625 C 14.101562 -18.65625 15.695312 -18.09375 16.6875 -16.96875 C 17.675781 -15.851562 18.171875 -14.125 18.171875 -11.78125 L 18.171875 0 L 15.46875 0 L 15.46875 -11.71875 C 15.46875 -12.820312 15.328125 -13.707031 15.046875 -14.375 C 14.765625 -15.050781 14.328125 -15.539062 13.734375 -15.84375 C 13.140625 -16.144531 12.363281 -16.296875 11.40625 -16.296875 C 9.757812 -16.296875 8.425781 -15.75 7.40625 -14.65625 C 6.394531 -13.570312 5.890625 -11.816406 5.890625 -9.390625 L 5.890625 0 Z M 3.1875 0 "/></g></g></g><g fill="#000000" fill-opacity="1"><g transform="translate(83.397613, 1229.634953)"><g><path d="M 3.1875 0 L 3.1875 -25.671875 L 5.890625 -25.671875 L 5.890625 -10.671875 L 6.34375 -10.671875 L 13.15625 -18.3125 L 15.984375 -18.3125 L 15.984375 -17.9375 L 8.734375 -9.71875 L 16.6875 -0.421875 L 16.6875 0 L 13.65625 0 L 6.34375 -8.46875 L 5.890625 -8.46875 L 5.890625 0 Z M 3.1875 0 "/></g></g></g><g fill="#000000" fill-opacity="1"><g transform="translate(100.428857, 1229.634953)"><g><path d="M 8.34375 0.34375 C 7.195312 0.34375 6.132812 0.191406 5.15625 -0.109375 C 4.175781 -0.410156 3.347656 -0.828125 2.671875 -1.359375 C 1.992188 -1.890625 1.519531 -2.488281 1.25 -3.15625 L 2.84375 -4.8125 L 3.1875 -4.8125 C 3.78125 -3.90625 4.5 -3.222656 5.34375 -2.765625 C 6.1875 -2.304688 7.1875 -2.078125 8.34375 -2.078125 C 9.695312 -2.078125 10.722656 -2.335938 11.421875 -2.859375 C 12.128906 -3.390625 12.484375 -4.125 12.484375 -5.0625 C 12.484375 -5.78125 12.269531 -6.375 11.84375 -6.84375 C 11.414062 -7.3125 10.726562 -7.664062 9.78125 -7.90625 L 6.6875 -8.671875 C 5.039062 -9.066406 3.835938 -9.695312 3.078125 -10.5625 C 2.316406 -11.425781 1.9375 -12.492188 1.9375 -13.765625 C 1.9375 -14.753906 2.191406 -15.617188 2.703125 -16.359375 C 3.210938 -17.097656 3.945312 -17.664062 4.90625 -18.0625 C 5.863281 -18.457031 7 -18.65625 8.3125 -18.65625 C 10 -18.65625 11.328125 -18.421875 12.296875 -17.953125 C 13.265625 -17.484375 14.019531 -16.828125 14.5625 -15.984375 L 13.03125 -14.5 L 12.703125 -14.5 C 12.117188 -15.164062 11.476562 -15.648438 10.78125 -15.953125 C 10.09375 -16.253906 9.269531 -16.40625 8.3125 -16.40625 C 7.113281 -16.40625 6.191406 -16.1875 5.546875 -15.75 C 4.898438 -15.320312 4.578125 -14.695312 4.578125 -13.875 C 4.578125 -13.132812 4.800781 -12.535156 5.25 -12.078125 C 5.707031 -11.628906 6.503906 -11.265625 7.640625 -10.984375 L 10.671875 -10.265625 C 12.265625 -9.890625 13.414062 -9.265625 14.125 -8.390625 C 14.832031 -7.515625 15.1875 -6.414062 15.1875 -5.09375 C 15.1875 -4.019531 14.929688 -3.070312 14.421875 -2.25 C 13.910156 -1.4375 13.140625 -0.800781 12.109375 -0.34375 C 11.085938 0.113281 9.832031 0.34375 8.34375 0.34375 Z M 8.34375 0.34375 "/></g></g></g><path stroke-linecap="butt" transform="matrix(0.75, 0, 0, 0.75, 32.691838, 1244.984992)" fill="none" stroke-linejoin="miter" d="M -0.000575565 0.999178 L 898.535961 0.999178 " stroke="#000000" stroke-width="2" stroke-opacity="1" stroke-miterlimit="4"/></svg>