<svg xmlns="http://www.w3.org/2000/svg" xmlns:xlink="http://www.w3.org/1999/xlink" width="1080" zoomAndPan="magnify" viewBox="0 0 810 1439.999935" height="1920" preserveAspectRatio="xMidYMid meet" version="1.0"><defs><g/><clipPath id="09fe931309"><path d="M 0 235 L 810 235 L 810 1439.988281 L 0 1439.988281 Z M 0 235 " clip-rule="nonzero"/></clipPath><clipPath id="ccee5a4961"><path d="M 539.855469 240.910156 C 498.328125 237.46875 451.117188 235.210938 404.78125 235.210938 C 358.445312 235.210938 313.859375 237.144531 272.769531 240.589844 C 271.894531 240.695312 271.019531 240.695312 270.144531 240.804688 C 115.839844 254.574219 2.183594 290.929688 0 354.785156 L 0 1439.988281 L 810 1439.988281 L 810 355.589844 C 807.8125 290.714844 695.910156 254.355469 539.855469 240.910156 Z M 539.855469 240.910156 " clip-rule="nonzero"/></clipPath><clipPath id="387088265b"><path d="M 0 0.199219 L 810 0.199219 L 810 1204.988281 L 0 1204.988281 Z M 0 0.199219 " clip-rule="nonzero"/></clipPath><clipPath id="352d6e27e8"><path d="M 539.855469 5.910156 C 498.328125 2.46875 451.117188 0.210938 404.78125 0.210938 C 358.445312 0.210938 313.859375 2.144531 272.769531 5.589844 C 271.894531 5.695312 271.019531 5.695312 270.144531 5.804688 C 115.839844 19.574219 2.183594 55.929688 0 119.785156 L 0 1204.988281 L 810 1204.988281 L 810 120.589844 C 807.8125 55.714844 695.910156 19.355469 539.855469 5.910156 Z M 539.855469 5.910156 " clip-rule="nonzero"/></clipPath><clipPath id="2e79fc0027"><rect x="0" width="810" y="0" height="1205"/></clipPath><clipPath id="a32410d3f3"><path d="M 248.015625 1334.933594 L 503.882812 1334.933594 L 503.882812 1394.644531 L 248.015625 1394.644531 Z M 248.015625 1334.933594 " clip-rule="nonzero"/></clipPath><clipPath id="db3546347d"><path d="M 277.871094 1334.933594 L 473.878906 1334.933594 C 490.367188 1334.933594 503.734375 1348.300781 503.734375 1364.789062 C 503.734375 1381.277344 490.367188 1394.644531 473.878906 1394.644531 L 277.871094 1394.644531 C 261.382812 1394.644531 248.015625 1381.277344 248.015625 1364.789062 C 248.015625 1348.300781 261.382812 1334.933594 277.871094 1334.933594 Z M 277.871094 1334.933594 " clip-rule="nonzero"/></clipPath><clipPath id="6401ca8f77"><path d="M 0.015625 0.933594 L 255.761719 0.933594 L 255.761719 60.644531 L 0.015625 60.644531 Z M 0.015625 0.933594 " clip-rule="nonzero"/></clipPath><clipPath id="da7ff3ec25"><path d="M 29.871094 0.933594 L 225.878906 0.933594 C 242.367188 0.933594 255.734375 14.300781 255.734375 30.789062 C 255.734375 47.277344 242.367188 60.644531 225.878906 60.644531 L 29.871094 60.644531 C 13.382812 60.644531 0.015625 47.277344 0.015625 30.789062 C 0.015625 14.300781 13.382812 0.933594 29.871094 0.933594 Z M 29.871094 0.933594 " clip-rule="nonzero"/></clipPath><clipPath id="6b90d6d475"><rect x="0" width="256" y="0" height="61"/></clipPath><clipPath id="7424f02b46"><path d="M 0 1.734375 L 810 1.734375 L 810 479.433594 L 0 479.433594 Z M 0 1.734375 " clip-rule="nonzero"/></clipPath><clipPath id="91a2e58b07"><path d="M 791.25 1.734375 L 18.75 1.734375 C 8.394531 1.734375 0 10.128906 0 20.484375 L 0 430.261719 C 43.085938 467.367188 180.957031 519.320312 387.765625 430.261719 C 594.574219 341.199219 755.425781 393.152344 810 430.261719 L 810 20.484375 C 810 10.128906 801.605469 1.734375 791.25 1.734375 Z M 791.25 1.734375 " clip-rule="nonzero"/></clipPath><clipPath id="c1b3763259"><path d="M 0 0.734375 L 810 0.734375 L 810 478.433594 L 0 478.433594 Z M 0 0.734375 " clip-rule="nonzero"/></clipPath><clipPath id="8f769d44c0"><path d="M 791.25 0.734375 L 18.75 0.734375 C 8.394531 0.734375 0 9.128906 0 19.484375 L 0 429.261719 C 43.085938 466.367188 180.957031 518.320312 387.765625 429.261719 C 594.574219 340.199219 755.425781 392.152344 810 429.261719 L 810 19.484375 C 810 9.128906 801.605469 0.734375 791.25 0.734375 Z M 791.25 0.734375 " clip-rule="nonzero"/></clipPath><clipPath id="e25a4ab7ba"><rect x="0" width="810" y="0" height="479"/></clipPath><clipPath id="9c8892d123"><path d="M 33.996094 769.800781 L 87.996094 769.800781 L 87.996094 810.300781 L 33.996094 810.300781 Z M 33.996094 769.800781 " clip-rule="nonzero"/></clipPath><clipPath id="c38a46bf9a"><path d="M 34.332031 852.074219 L 87.582031 852.074219 L 87.582031 905.324219 L 34.332031 905.324219 Z M 34.332031 852.074219 " clip-rule="nonzero"/></clipPath><clipPath id="4fa4473182"><path d="M 34.332031 973.570312 L 146.871094 973.570312 L 146.871094 1086.109375 L 34.332031 1086.109375 Z M 34.332031 973.570312 " clip-rule="nonzero"/></clipPath><clipPath id="e43003d830"><path d="M 90.601562 973.570312 C 59.523438 973.570312 34.332031 998.761719 34.332031 1029.839844 C 34.332031 1060.917969 59.523438 1086.109375 90.601562 1086.109375 C 121.675781 1086.109375 146.871094 1060.917969 146.871094 1029.839844 C 146.871094 998.761719 121.675781 973.570312 90.601562 973.570312 Z M 90.601562 973.570312 " clip-rule="nonzero"/></clipPath><clipPath id="3490237d90"><path d="M 0.332031 0.570312 L 112.871094 0.570312 L 112.871094 113.109375 L 0.332031 113.109375 Z M 0.332031 0.570312 " clip-rule="nonzero"/></clipPath><clipPath id="0d6a89d7c4"><path d="M 56.601562 0.570312 C 25.523438 0.570312 0.332031 25.761719 0.332031 56.839844 C 0.332031 87.917969 25.523438 113.109375 56.601562 113.109375 C 87.675781 113.109375 112.871094 87.917969 112.871094 56.839844 C 112.871094 25.761719 87.675781 0.570312 56.601562 0.570312 Z M 56.601562 0.570312 " clip-rule="nonzero"/></clipPath><clipPath id="2122b1adb8"><rect x="0" width="113" y="0" height="114"/></clipPath><clipPath id="6cc82b5492"><path d="M 171.308594 973.570312 L 283.847656 973.570312 L 283.847656 1086.109375 L 171.308594 1086.109375 Z M 171.308594 973.570312 " clip-rule="nonzero"/></clipPath><clipPath id="7e8f87fd6f"><path d="M 227.578125 973.570312 C 196.5 973.570312 171.308594 998.761719 171.308594 1029.839844 C 171.308594 1060.917969 196.5 1086.109375 227.578125 1086.109375 C 258.65625 1086.109375 283.847656 1060.917969 283.847656 1029.839844 C 283.847656 998.761719 258.65625 973.570312 227.578125 973.570312 Z M 227.578125 973.570312 " clip-rule="nonzero"/></clipPath><clipPath id="5c1eb087fb"><path d="M 0.308594 0.570312 L 112.847656 0.570312 L 112.847656 113.109375 L 0.308594 113.109375 Z M 0.308594 0.570312 " clip-rule="nonzero"/></clipPath><clipPath id="478074a4ed"><path d="M 56.578125 0.570312 C 25.5 0.570312 0.308594 25.761719 0.308594 56.839844 C 0.308594 87.917969 25.5 113.109375 56.578125 113.109375 C 87.65625 113.109375 112.847656 87.917969 112.847656 56.839844 C 112.847656 25.761719 87.65625 0.570312 56.578125 0.570312 Z M 56.578125 0.570312 " clip-rule="nonzero"/></clipPath><clipPath id="77a23adac7"><rect x="0" width="113" y="0" height="114"/></clipPath><clipPath id="bbdc04ce92"><path d="M 308.597656 973.570312 L 421.136719 973.570312 L 421.136719 1086.109375 L 308.597656 1086.109375 Z M 308.597656 973.570312 " clip-rule="nonzero"/></clipPath><clipPath id="3077b79f43"><path d="M 364.867188 973.570312 C 333.792969 973.570312 308.597656 998.761719 308.597656 1029.839844 C 308.597656 1060.917969 333.792969 1086.109375 364.867188 1086.109375 C 395.945312 1086.109375 421.136719 1060.917969 421.136719 1029.839844 C 421.136719 998.761719 395.945312 973.570312 364.867188 973.570312 Z M 364.867188 973.570312 " clip-rule="nonzero"/></clipPath><clipPath id="0fd9a04eea"><path d="M 0.597656 0.570312 L 113.136719 0.570312 L 113.136719 113.109375 L 0.597656 113.109375 Z M 0.597656 0.570312 " clip-rule="nonzero"/></clipPath><clipPath id="50e3ed2757"><path d="M 56.867188 0.570312 C 25.792969 0.570312 0.597656 25.761719 0.597656 56.839844 C 0.597656 87.917969 25.792969 113.109375 56.867188 113.109375 C 87.945312 113.109375 113.136719 87.917969 113.136719 56.839844 C 113.136719 25.761719 87.945312 0.570312 56.867188 0.570312 Z M 56.867188 0.570312 " clip-rule="nonzero"/></clipPath><clipPath id="29f11d3687"><rect x="0" width="114" y="0" height="114"/></clipPath></defs><rect x="-81" width="972" fill="#ffffff" y="-143.999994" height="1727.999922" fill-opacity="1"/><rect x="-81" width="972" fill="#ffffff" y="-143.999994" height="1727.999922" fill-opacity="1"/><g clip-path="url(#09fe931309)"><g clip-path="url(#ccee5a4961)"><g transform="matrix(1, 0, 0, 1, 0, 235)"><g clip-path="url(#2e79fc0027)"><g clip-path="url(#387088265b)"><g clip-path="url(#352d6e27e8)"><path fill="#ffffff" d="M 810 1204.988281 L 0 1204.988281 L 0 -0.519531 L 810 -0.519531 Z M 810 1204.988281 " fill-opacity="1" fill-rule="nonzero"/></g></g></g></g></g></g><g clip-path="url(#a32410d3f3)"><g clip-path="url(#db3546347d)"><g transform="matrix(1, 0, 0, 1, 248, 1334)"><g clip-path="url(#6b90d6d475)"><g clip-path="url(#6401ca8f77)"><g clip-path="url(#da7ff3ec25)"><path fill="#919191" d="M 0.015625 0.933594 L 255.648438 0.933594 L 255.648438 60.644531 L 0.015625 60.644531 Z M 0.015625 0.933594 " fill-opacity="1" fill-rule="nonzero"/></g></g></g></g></g></g><g clip-path="url(#7424f02b46)"><g clip-path="url(#91a2e58b07)"><g transform="matrix(1, 0, 0, 1, 0, 1)"><g clip-path="url(#e25a4ab7ba)"><g clip-path="url(#c1b3763259)"><g clip-path="url(#8f769d44c0)"><path fill="#919191" d="M 0 0.734375 L 809.855469 0.734375 L 809.855469 478.433594 L 0 478.433594 Z M 0 0.734375 " fill-opacity="1" fill-rule="nonzero"/></g></g></g></g></g></g><g clip-path="url(#9c8892d123)"><path fill="#000000" d="M 83.761719 810.296875 L 38.179688 810.296875 C 37.835938 810.253906 37.582031 810.214844 37.425781 810.179688 C 35.964844 809.875 34.753906 808.726562 34.265625 807.359375 C 34.121094 806.953125 34.066406 806.523438 33.996094 806.089844 L 33.996094 773.941406 C 34.074219 773.734375 34.066406 773.503906 34.109375 773.328125 C 34.167969 773.085938 34.226562 772.816406 34.324219 772.59375 C 34.9375 771.152344 36.011719 770.261719 37.546875 769.921875 C 37.6875 769.890625 37.828125 769.871094 37.96875 769.863281 C 38.160156 769.855469 38.34375 769.8125 38.539062 769.8125 C 53.386719 769.804688 68.394531 769.804688 83.558594 769.8125 C 83.675781 769.8125 83.792969 769.820312 83.90625 769.835938 C 84.019531 769.855469 84.132812 769.871094 84.246094 769.886719 C 84.644531 769.9375 84.996094 770.03125 85.300781 770.167969 C 86.75 770.816406 87.824219 772.183594 87.929688 773.808594 C 87.945312 774.074219 87.972656 774.332031 87.972656 774.59375 C 87.910156 782.664062 87.945312 790.742188 87.945312 799.386719 C 87.945312 801.238281 87.992188 803.183594 87.96875 805.136719 C 87.960938 805.734375 87.945312 806.144531 87.925781 806.355469 C 87.804688 807.632812 87.203125 808.675781 86.121094 809.480469 C 85.605469 809.863281 85.027344 810.105469 84.390625 810.207031 C 84.179688 810.242188 83.96875 810.273438 83.761719 810.296875 Z M 60.183594 794.148438 C 60.867188 794.410156 61.671875 794.242188 62.203125 793.746094 C 66.910156 789.359375 71.585938 785.015625 76.234375 780.71875 C 78.921875 778.234375 81.585938 775.765625 84.226562 773.308594 C 84.265625 773.269531 84.265625 773.230469 84.230469 773.191406 C 84.167969 773.125 84.078125 773.09375 83.960938 773.09375 C 68.558594 773.089844 53.34375 773.085938 38.3125 773.085938 C 38.019531 773.085938 37.851562 773.15625 37.652344 773.347656 C 37.621094 773.375 37.621094 773.402344 37.652344 773.429688 C 37.8125 773.570312 37.972656 773.714844 38.136719 773.859375 C 39.929688 775.5 41.9375 777.363281 44.167969 779.445312 C 48.949219 783.914062 53.59375 788.238281 58.09375 792.410156 C 58.496094 792.78125 58.90625 793.160156 59.328125 793.550781 C 59.664062 793.863281 59.949219 794.0625 60.183594 794.148438 Z M 84.613281 777.59375 C 84.613281 777.582031 84.609375 777.574219 84.597656 777.566406 C 84.585938 777.558594 84.574219 777.554688 84.5625 777.566406 C 84.191406 777.851562 83.894531 778.1875 83.542969 778.515625 C 79.722656 782.074219 75.800781 785.734375 71.785156 789.503906 C 71.746094 789.542969 71.703125 789.574219 71.664062 789.601562 C 71.601562 789.644531 71.597656 789.6875 71.65625 789.738281 C 71.789062 789.851562 71.90625 789.957031 72.011719 790.050781 C 74.183594 792.089844 76.519531 794.296875 79.027344 796.675781 C 79.511719 797.132812 79.933594 797.542969 80.300781 797.902344 C 80.699219 798.296875 81.121094 798.664062 81.519531 799.054688 C 81.832031 799.363281 82.136719 799.648438 82.433594 799.921875 C 82.929688 800.371094 83.378906 800.84375 83.878906 801.292969 C 84.113281 801.507812 84.34375 801.730469 84.5625 801.957031 C 84.574219 801.96875 84.582031 801.972656 84.597656 801.96875 C 84.617188 801.964844 84.625 801.957031 84.625 801.941406 C 84.628906 793.839844 84.625 785.738281 84.625 777.644531 C 84.625 777.632812 84.621094 777.625 84.617188 777.613281 C 84.613281 777.609375 84.613281 777.601562 84.613281 777.59375 Z M 37.410156 801.96875 C 37.746094 801.636719 38.105469 801.28125 38.496094 800.910156 C 41.992188 797.582031 45.441406 794.28125 48.851562 791.007812 C 49.238281 790.632812 49.648438 790.25 50.074219 789.847656 C 50.160156 789.773438 50.15625 789.695312 50.074219 789.617188 C 49.910156 789.46875 49.753906 789.324219 49.605469 789.1875 C 45.488281 785.324219 41.609375 781.707031 37.972656 778.332031 C 37.753906 778.128906 37.546875 777.933594 37.347656 777.746094 C 37.339844 777.738281 37.335938 777.738281 37.335938 777.746094 L 37.320312 801.933594 C 37.320312 802.019531 37.347656 802.03125 37.410156 801.96875 Z M 61.152344 797.652344 C 59.515625 797.726562 58.195312 797.132812 57 796 C 55.910156 794.972656 54.5625 793.710938 52.960938 792.214844 C 52.894531 792.152344 52.824219 792.09375 52.746094 792.03125 C 52.691406 791.992188 52.640625 791.996094 52.59375 792.039062 C 52.390625 792.222656 52.203125 792.429688 52.007812 792.613281 C 47.832031 796.609375 43.699219 800.574219 39.601562 804.511719 C 39.085938 805.007812 38.625 805.445312 38.21875 805.8125 C 37.992188 806.023438 37.777344 806.230469 37.574219 806.433594 C 37.519531 806.488281 37.519531 806.542969 37.570312 806.601562 C 37.894531 806.945312 38.179688 806.921875 38.703125 806.921875 C 53.671875 806.921875 68.640625 806.921875 83.605469 806.921875 C 83.976562 806.921875 84.179688 806.886719 84.378906 806.585938 C 84.421875 806.515625 84.414062 806.453125 84.355469 806.398438 C 79.53125 801.828125 74.710938 797.25 69.890625 792.671875 C 69.621094 792.414062 69.394531 792.183594 69.207031 791.980469 C 69.148438 791.914062 69.085938 791.914062 69.023438 791.972656 C 67.664062 793.230469 66.3125 794.507812 64.964844 795.777344 C 64.449219 796.261719 64.050781 796.597656 63.765625 796.78125 C 62.933594 797.320312 62.0625 797.609375 61.152344 797.652344 Z M 61.152344 797.652344 " fill-opacity="1" fill-rule="nonzero"/></g><g clip-path="url(#c38a46bf9a)"><path fill="#000000" d="M 60.957031 852.074219 C 46.273438 852.074219 34.332031 864.015625 34.332031 878.699219 C 34.332031 893.382812 46.273438 905.324219 60.957031 905.324219 C 75.640625 905.324219 87.582031 893.382812 87.582031 878.699219 C 87.582031 864.015625 75.640625 852.074219 60.957031 852.074219 Z M 60.957031 903.457031 C 47.285156 903.457031 36.199219 892.367188 36.199219 878.699219 C 36.199219 865.027344 47.285156 853.941406 60.957031 853.941406 C 74.625 853.941406 85.714844 865.027344 85.714844 878.699219 C 85.714844 892.367188 74.625 903.457031 60.957031 903.457031 Z M 60.957031 903.457031 " fill-opacity="1" fill-rule="nonzero"/></g><path fill="#000000" d="M 72.242188 888.300781 C 73.898438 886.316406 72.679688 885.15625 71.578125 884.320312 C 70.480469 883.488281 67.890625 882.421875 67.09375 883.375 C 66.300781 884.328125 65.027344 885.519531 64.046875 885.261719 C 62.394531 884.824219 60.28125 882.59375 58.671875 880.984375 C 57.0625 879.375 54.828125 877.261719 54.390625 875.605469 C 54.132812 874.625 55.238281 873.425781 56.28125 872.558594 C 57.320312 871.691406 56.226562 869.265625 55.332031 868.074219 C 54.4375 866.882812 53.339844 865.757812 51.351562 867.414062 C 49.367188 869.070312 46.855469 873.472656 51.484375 880.1875 C 52.671875 881.910156 53.691406 882.90625 55.21875 884.433594 C 56.75 885.964844 57.742188 886.984375 59.464844 888.167969 C 66.179688 892.800781 70.585938 890.289062 72.242188 888.300781 Z M 72.242188 888.300781 " fill-opacity="1" fill-rule="nonzero"/><path fill="#000000" d="M 66.679688 879.738281 C 66.4375 879.738281 66.226562 879.660156 66.050781 879.496094 C 65.871094 879.332031 65.773438 879.132812 65.75 878.890625 C 65.699219 878.308594 65.546875 877.75 65.300781 877.222656 C 65.050781 876.691406 64.71875 876.21875 64.308594 875.804688 C 63.894531 875.390625 63.421875 875.058594 62.890625 874.8125 C 62.359375 874.5625 61.804688 874.414062 61.222656 874.359375 C 60.964844 874.335938 60.753906 874.226562 60.585938 874.03125 C 60.421875 873.832031 60.351562 873.605469 60.371094 873.347656 C 60.394531 873.089844 60.507812 872.878906 60.703125 872.714844 C 60.902344 872.546875 61.128906 872.476562 61.386719 872.5 C 62.1875 872.574219 62.949219 872.78125 63.679688 873.121094 C 64.40625 873.460938 65.054688 873.914062 65.625 874.484375 C 66.191406 875.050781 66.648438 875.699219 66.988281 876.425781 C 67.332031 877.15625 67.539062 877.917969 67.613281 878.71875 C 67.636719 878.976562 67.5625 879.203125 67.398438 879.402344 C 67.234375 879.601562 67.023438 879.714844 66.765625 879.738281 Z M 66.679688 879.738281 " fill-opacity="1" fill-rule="nonzero"/><path fill="#000000" d="M 71.023438 879.792969 C 70.773438 879.792969 70.558594 879.707031 70.375 879.53125 C 70.195312 879.359375 70.101562 879.148438 70.089844 878.898438 C 70.0625 878.324219 69.980469 877.753906 69.847656 877.195312 C 69.71875 876.636719 69.535156 876.09375 69.300781 875.566406 C 69.070312 875.042969 68.789062 874.542969 68.464844 874.066406 C 68.140625 873.59375 67.773438 873.152344 67.367188 872.746094 C 66.960938 872.339844 66.519531 871.972656 66.042969 871.648438 C 65.570312 871.320312 65.070312 871.042969 64.542969 870.808594 C 64.019531 870.578125 63.476562 870.394531 62.914062 870.261719 C 62.355469 870.128906 61.789062 870.050781 61.214844 870.023438 C 60.957031 870.011719 60.742188 869.910156 60.566406 869.71875 C 60.390625 869.527344 60.3125 869.304688 60.324219 869.046875 C 60.335938 868.789062 60.4375 868.570312 60.628906 868.398438 C 60.816406 868.222656 61.042969 868.144531 61.300781 868.15625 C 61.988281 868.1875 62.671875 868.285156 63.34375 868.445312 C 64.015625 868.601562 64.667969 868.824219 65.296875 869.101562 C 65.929688 869.382812 66.53125 869.71875 67.097656 870.109375 C 67.667969 870.5 68.199219 870.9375 68.6875 871.425781 C 69.175781 871.914062 69.613281 872.441406 70.003906 873.011719 C 70.394531 873.582031 70.730469 874.183594 71.007812 874.8125 C 71.289062 875.445312 71.507812 876.097656 71.667969 876.769531 C 71.828125 877.441406 71.921875 878.121094 71.957031 878.8125 C 71.96875 879.070312 71.886719 879.292969 71.710938 879.484375 C 71.535156 879.671875 71.320312 879.773438 71.0625 879.785156 Z M 71.023438 879.792969 " fill-opacity="1" fill-rule="nonzero"/><g fill="#000000" fill-opacity="1"><g transform="translate(34.330808, 561.925179)"><g><path d="M 28.359375 -37.125 L 28.359375 -30.984375 L 12.15625 -30.984375 L 12.15625 -21.15625 L 26.859375 -21.15625 L 26.859375 -15.078125 L 12.15625 -15.078125 L 12.15625 0 L 4.828125 0 L 4.828125 -37.125 Z M 28.359375 -37.125 "/></g></g></g><g fill="#000000" fill-opacity="1"><g transform="translate(63.807089, 561.925179)"><g><path d="M 12.828125 0.53125 C 9.671875 0.53125 7.34375 -0.328125 5.84375 -2.046875 C 4.351562 -3.765625 3.609375 -6.234375 3.609375 -9.453125 L 3.609375 -28 L 10.640625 -28 L 10.640625 -10.328125 C 10.640625 -8.617188 11.003906 -7.367188 11.734375 -6.578125 C 12.472656 -5.796875 13.613281 -5.40625 15.15625 -5.40625 C 17.101562 -5.40625 18.617188 -6.046875 19.703125 -7.328125 C 20.785156 -8.609375 21.328125 -10.617188 21.328125 -13.359375 L 21.328125 -28 L 28.359375 -28 L 28.359375 0 L 21.609375 0 L 21.609375 -4.109375 L 21.078125 -4.234375 C 20.179688 -2.628906 19.082031 -1.429688 17.78125 -0.640625 C 16.488281 0.140625 14.835938 0.53125 12.828125 0.53125 Z M 12.828125 0.53125 "/></g></g></g><g fill="#000000" fill-opacity="1"><g transform="translate(96.20309, 561.925179)"><g><path d="M 11.625 0.53125 C 9.101562 0.53125 7.175781 -0.148438 5.84375 -1.515625 C 4.519531 -2.878906 3.859375 -4.945312 3.859375 -7.71875 L 3.859375 -39.25 L 10.890625 -39.25 L 10.890625 -8 C 10.890625 -6.289062 11.601562 -5.4375 13.03125 -5.4375 C 13.4375 -5.4375 13.867188 -5.503906 14.328125 -5.640625 L 14.671875 -5.53125 L 15.3125 -0.125 C 14.925781 0.0703125 14.410156 0.226562 13.765625 0.34375 C 13.117188 0.46875 12.40625 0.53125 11.625 0.53125 Z M 11.625 0.53125 "/></g></g></g><g fill="#000000" fill-opacity="1"><g transform="translate(112.299536, 561.925179)"><g><path d="M 11.625 0.53125 C 9.101562 0.53125 7.175781 -0.148438 5.84375 -1.515625 C 4.519531 -2.878906 3.859375 -4.945312 3.859375 -7.71875 L 3.859375 -39.25 L 10.890625 -39.25 L 10.890625 -8 C 10.890625 -6.289062 11.601562 -5.4375 13.03125 -5.4375 C 13.4375 -5.4375 13.867188 -5.503906 14.328125 -5.640625 L 14.671875 -5.53125 L 15.3125 -0.125 C 14.925781 0.0703125 14.410156 0.226562 13.765625 0.34375 C 13.117188 0.46875 12.40625 0.53125 11.625 0.53125 Z M 11.625 0.53125 "/></g></g></g><g fill="#000000" fill-opacity="1"><g transform="translate(128.395981, 561.925179)"><g/></g></g><g fill="#000000" fill-opacity="1"><g transform="translate(140.658736, 561.925179)"><g><path d="M 11.9375 0 L 4.828125 0 L 4.828125 -37.125 L 13.234375 -37.125 L 28.140625 -13.203125 L 28.796875 -13.3125 L 28.796875 -37.125 L 35.859375 -37.125 L 35.859375 0 L 28.34375 0 L 12.5625 -25.546875 L 11.9375 -25.4375 Z M 11.9375 0 "/></g></g></g><g fill="#000000" fill-opacity="1"><g transform="translate(181.356853, 561.925179)"><g><path d="M 10.921875 0.53125 C 9.128906 0.53125 7.570312 0.203125 6.25 -0.453125 C 4.925781 -1.117188 3.910156 -2.085938 3.203125 -3.359375 C 2.492188 -4.640625 2.140625 -6.175781 2.140625 -7.96875 C 2.140625 -9.632812 2.492188 -11.03125 3.203125 -12.15625 C 3.910156 -13.28125 5.007812 -14.203125 6.5 -14.921875 C 7.988281 -15.640625 9.9375 -16.191406 12.34375 -16.578125 C 14.019531 -16.847656 15.289062 -17.144531 16.15625 -17.46875 C 17.03125 -17.789062 17.617188 -18.15625 17.921875 -18.5625 C 18.234375 -18.96875 18.390625 -19.484375 18.390625 -20.109375 C 18.390625 -21.003906 18.070312 -21.6875 17.4375 -22.15625 C 16.8125 -22.632812 15.773438 -22.875 14.328125 -22.875 C 12.765625 -22.875 11.28125 -22.523438 9.875 -21.828125 C 8.46875 -21.140625 7.25 -20.226562 6.21875 -19.09375 L 5.71875 -19.09375 L 2.765625 -23.53125 C 4.191406 -25.113281 5.925781 -26.34375 7.96875 -27.21875 C 10.019531 -28.101562 12.253906 -28.546875 14.671875 -28.546875 C 18.378906 -28.546875 21.0625 -27.753906 22.71875 -26.171875 C 24.382812 -24.597656 25.21875 -22.363281 25.21875 -19.46875 L 25.21875 -7.3125 C 25.21875 -6.0625 25.765625 -5.4375 26.859375 -5.4375 C 27.285156 -5.4375 27.703125 -5.507812 28.109375 -5.65625 L 28.46875 -5.5625 L 28.96875 -0.65625 C 28.582031 -0.40625 28.039062 -0.195312 27.34375 -0.03125 C 26.65625 0.125 25.894531 0.203125 25.0625 0.203125 C 23.382812 0.203125 22.078125 -0.117188 21.140625 -0.765625 C 20.203125 -1.410156 19.53125 -2.414062 19.125 -3.78125 L 18.59375 -3.828125 C 17.21875 -0.921875 14.660156 0.53125 10.921875 0.53125 Z M 13.15625 -4.71875 C 14.78125 -4.71875 16.078125 -5.265625 17.046875 -6.359375 C 18.023438 -7.453125 18.515625 -8.972656 18.515625 -10.921875 L 18.515625 -13.765625 L 18.03125 -13.859375 C 17.601562 -13.523438 17.046875 -13.242188 16.359375 -13.015625 C 15.679688 -12.785156 14.695312 -12.5625 13.40625 -12.34375 C 11.882812 -12.082031 10.785156 -11.644531 10.109375 -11.03125 C 9.441406 -10.414062 9.109375 -9.539062 9.109375 -8.40625 C 9.109375 -7.207031 9.460938 -6.289062 10.171875 -5.65625 C 10.890625 -5.03125 11.882812 -4.71875 13.15625 -4.71875 Z M 13.15625 -4.71875 "/></g></g></g><g fill="#000000" fill-opacity="1"><g transform="translate(210.883935, 561.925179)"><g><path d="M 4.03125 0 L 4.03125 -28 L 10.796875 -28 L 10.796875 -24.25 L 11.328125 -24.140625 C 12.242188 -25.648438 13.3125 -26.757812 14.53125 -27.46875 C 15.757812 -28.1875 17.332031 -28.546875 19.25 -28.546875 C 21.363281 -28.546875 23.0625 -28.125 24.34375 -27.28125 C 25.632812 -26.445312 26.578125 -25.222656 27.171875 -23.609375 L 27.703125 -23.609375 C 28.566406 -25.285156 29.675781 -26.523438 31.03125 -27.328125 C 32.394531 -28.140625 34.09375 -28.546875 36.125 -28.546875 C 41.9375 -28.546875 44.84375 -25.3125 44.84375 -18.84375 L 44.84375 0 L 37.8125 0 L 37.8125 -17.953125 C 37.8125 -19.597656 37.488281 -20.78125 36.84375 -21.5 C 36.195312 -22.226562 35.164062 -22.59375 33.75 -22.59375 C 29.882812 -22.59375 27.953125 -20.015625 27.953125 -14.859375 L 27.953125 0 L 20.921875 0 L 20.921875 -17.953125 C 20.921875 -19.597656 20.59375 -20.78125 19.9375 -21.5 C 19.289062 -22.226562 18.253906 -22.59375 16.828125 -22.59375 C 15.023438 -22.59375 13.613281 -21.988281 12.59375 -20.78125 C 11.582031 -19.570312 11.078125 -17.644531 11.078125 -15 L 11.078125 0 Z M 4.03125 0 "/></g></g></g><g fill="#000000" fill-opacity="1"><g transform="translate(259.325615, 561.925179)"><g><path d="M 27.671875 -12.421875 L 9.671875 -12.421875 C 9.878906 -9.984375 10.570312 -8.207031 11.75 -7.09375 C 12.9375 -5.988281 14.554688 -5.4375 16.609375 -5.4375 C 18.210938 -5.4375 19.515625 -5.734375 20.515625 -6.328125 C 21.515625 -6.929688 22.316406 -7.84375 22.921875 -9.0625 L 23.46875 -9.0625 L 28.140625 -6.0625 C 27.222656 -4.101562 25.84375 -2.515625 24 -1.296875 C 22.15625 -0.078125 19.691406 0.53125 16.609375 0.53125 C 13.710938 0.53125 11.207031 -0.015625 9.09375 -1.109375 C 6.988281 -2.210938 5.363281 -3.851562 4.21875 -6.03125 C 3.082031 -8.207031 2.515625 -10.859375 2.515625 -13.984375 C 2.515625 -17.171875 3.113281 -19.851562 4.3125 -22.03125 C 5.519531 -24.21875 7.144531 -25.847656 9.1875 -26.921875 C 11.238281 -28.003906 13.539062 -28.546875 16.09375 -28.546875 C 20.0625 -28.546875 23.097656 -27.492188 25.203125 -25.390625 C 27.304688 -23.296875 28.359375 -20.21875 28.359375 -16.15625 C 28.359375 -14.675781 28.304688 -13.53125 28.203125 -12.71875 Z M 21.640625 -16.96875 C 21.566406 -19.09375 21.066406 -20.640625 20.140625 -21.609375 C 19.222656 -22.585938 17.875 -23.078125 16.09375 -23.078125 C 12.539062 -23.078125 10.453125 -21.039062 9.828125 -16.96875 Z M 21.640625 -16.96875 "/></g></g></g><g fill="#000000" fill-opacity="1"><g transform="translate(34.330808, 627.001918)"><g><path d="M 8.015625 0.34375 C 6.804688 0.34375 5.695312 0.164062 4.6875 -0.1875 C 3.6875 -0.550781 2.835938 -1.039062 2.140625 -1.65625 C 1.453125 -2.28125 0.945312 -2.96875 0.625 -3.71875 L 2.109375 -5.65625 L 2.53125 -5.65625 C 3.007812 -4.613281 3.722656 -3.789062 4.671875 -3.1875 C 5.617188 -2.59375 6.734375 -2.296875 8.015625 -2.296875 C 9.054688 -2.296875 9.898438 -2.460938 10.546875 -2.796875 C 11.203125 -3.128906 11.691406 -3.6875 12.015625 -4.46875 C 12.347656 -5.25 12.515625 -6.304688 12.515625 -7.640625 L 12.515625 -24.265625 L 15.359375 -24.265625 L 15.359375 -7.59375 C 15.359375 -4.84375 14.742188 -2.832031 13.515625 -1.5625 C 12.296875 -0.289062 10.460938 0.34375 8.015625 0.34375 Z M 8.015625 0.34375 "/></g></g></g><g fill="#000000" fill-opacity="1"><g transform="translate(53.138221, 627.001918)"><g><path d="M 10.515625 0.34375 C 8.785156 0.34375 7.28125 -0.0195312 6 -0.75 C 4.71875 -1.476562 3.734375 -2.550781 3.046875 -3.96875 C 2.359375 -5.394531 2.015625 -7.117188 2.015625 -9.140625 C 2.015625 -11.171875 2.359375 -12.898438 3.046875 -14.328125 C 3.734375 -15.753906 4.71875 -16.832031 6 -17.5625 C 7.28125 -18.289062 8.785156 -18.65625 10.515625 -18.65625 C 12.234375 -18.65625 13.734375 -18.289062 15.015625 -17.5625 C 16.296875 -16.832031 17.28125 -15.753906 17.96875 -14.328125 C 18.664062 -12.898438 19.015625 -11.171875 19.015625 -9.140625 C 19.015625 -7.117188 18.664062 -5.394531 17.96875 -3.96875 C 17.28125 -2.550781 16.296875 -1.476562 15.015625 -0.75 C 13.734375 -0.0195312 12.234375 0.34375 10.515625 0.34375 Z M 10.515625 -2.078125 C 12.335938 -2.078125 13.734375 -2.648438 14.703125 -3.796875 C 15.671875 -4.953125 16.15625 -6.734375 16.15625 -9.140625 C 16.15625 -11.566406 15.671875 -13.351562 14.703125 -14.5 C 13.734375 -15.65625 12.335938 -16.234375 10.515625 -16.234375 C 8.679688 -16.234375 7.273438 -15.65625 6.296875 -14.5 C 5.328125 -13.34375 4.84375 -11.554688 4.84375 -9.140625 C 4.84375 -6.734375 5.328125 -4.953125 6.296875 -3.796875 C 7.273438 -2.648438 8.679688 -2.078125 10.515625 -2.078125 Z M 10.515625 -2.078125 "/></g></g></g><g fill="#000000" fill-opacity="1"><g transform="translate(74.153382, 627.001918)"><g><path d="M 12.171875 0.34375 C 10.804688 0.34375 9.625 0.0820312 8.625 -0.4375 C 7.625 -0.96875 6.832031 -1.664062 6.25 -2.53125 L 5.890625 -2.453125 L 5.890625 0 L 3.1875 0 L 3.1875 -25.671875 L 5.890625 -25.671875 L 5.890625 -15.578125 L 6.25 -15.5 C 7.632812 -17.601562 9.65625 -18.65625 12.3125 -18.65625 C 13.820312 -18.65625 15.140625 -18.304688 16.265625 -17.609375 C 17.398438 -16.910156 18.28125 -15.847656 18.90625 -14.421875 C 19.53125 -13.003906 19.84375 -11.242188 19.84375 -9.140625 C 19.84375 -7.066406 19.507812 -5.316406 18.84375 -3.890625 C 18.1875 -2.472656 17.28125 -1.410156 16.125 -0.703125 C 14.976562 -0.00390625 13.660156 0.34375 12.171875 0.34375 Z M 11.515625 -2.078125 C 15.171875 -2.078125 17 -4.429688 17 -9.140625 C 17 -11.585938 16.519531 -13.378906 15.5625 -14.515625 C 14.613281 -15.660156 13.265625 -16.234375 11.515625 -16.234375 C 9.804688 -16.234375 8.441406 -15.648438 7.421875 -14.484375 C 6.398438 -13.316406 5.890625 -11.535156 5.890625 -9.140625 C 5.890625 -6.765625 6.398438 -4.992188 7.421875 -3.828125 C 8.441406 -2.660156 9.804688 -2.078125 11.515625 -2.078125 Z M 11.515625 -2.078125 "/></g></g></g><g fill="#000000" fill-opacity="1"><g transform="translate(104.331553, 627.001918)"><g><path d="M 18.9375 -24.265625 L 18.9375 -21.84375 L 11.34375 -21.84375 L 11.34375 0 L 8.5 0 L 8.5 -21.84375 L 0.890625 -21.84375 L 0.890625 -24.265625 Z M 18.9375 -24.265625 "/></g></g></g><g fill="#000000" fill-opacity="1"><g transform="translate(123.736531, 627.001918)"><g><path d="M 4.546875 -21.84375 C 3.972656 -21.84375 3.503906 -22.019531 3.140625 -22.375 C 2.785156 -22.738281 2.609375 -23.195312 2.609375 -23.75 C 2.609375 -24.3125 2.785156 -24.769531 3.140625 -25.125 C 3.503906 -25.488281 3.972656 -25.671875 4.546875 -25.671875 C 5.117188 -25.671875 5.582031 -25.488281 5.9375 -25.125 C 6.300781 -24.769531 6.484375 -24.3125 6.484375 -23.75 C 6.484375 -23.195312 6.300781 -22.738281 5.9375 -22.375 C 5.582031 -22.019531 5.117188 -21.84375 4.546875 -21.84375 Z M 3.1875 0 L 3.1875 -18.3125 L 5.890625 -18.3125 L 5.890625 0 Z M 3.1875 0 "/></g></g></g><g fill="#000000" fill-opacity="1"><g transform="translate(132.816547, 627.001918)"><g><path d="M 12.390625 -2.90625 L 13.25 -0.96875 C 12.8125 -0.53125 12.242188 -0.203125 11.546875 0.015625 C 10.847656 0.234375 10.085938 0.34375 9.265625 0.34375 C 5.765625 0.34375 4.015625 -1.425781 4.015625 -4.96875 L 4.015625 -16.109375 L 0.828125 -16.109375 L 0.828125 -18.328125 L 4.015625 -18.328125 L 4.015625 -22.203125 L 6.71875 -22.640625 L 6.71875 -18.328125 L 12.625 -18.328125 L 12.625 -16.109375 L 6.71875 -16.109375 L 6.71875 -5.234375 C 6.71875 -3.128906 7.632812 -2.078125 9.46875 -2.078125 C 10.457031 -2.078125 11.3125 -2.351562 12.03125 -2.90625 Z M 12.390625 -2.90625 "/></g></g></g><g fill="#000000" fill-opacity="1"><g transform="translate(146.760257, 627.001918)"><g><path d="M 7.28125 0.34375 C 5.988281 0.34375 4.972656 -0.0195312 4.234375 -0.75 C 3.492188 -1.488281 3.125 -2.585938 3.125 -4.046875 L 3.125 -25.671875 L 5.828125 -25.671875 L 5.828125 -4.234375 C 5.828125 -3.472656 5.972656 -2.921875 6.265625 -2.578125 C 6.554688 -2.242188 7.015625 -2.078125 7.640625 -2.078125 C 8.015625 -2.078125 8.394531 -2.140625 8.78125 -2.265625 L 9.015625 -2.1875 L 9.328125 -0.0625 C 9.128906 0.0703125 8.84375 0.171875 8.46875 0.234375 C 8.101562 0.304688 7.707031 0.34375 7.28125 0.34375 Z M 7.28125 0.34375 "/></g></g></g><g fill="#000000" fill-opacity="1"><g transform="translate(156.720049, 627.001918)"><g><path d="M 17.453125 -8.53125 L 4.859375 -8.53125 C 4.941406 -6.3125 5.476562 -4.679688 6.46875 -3.640625 C 7.457031 -2.597656 8.816406 -2.078125 10.546875 -2.078125 C 11.847656 -2.078125 12.894531 -2.304688 13.6875 -2.765625 C 14.488281 -3.234375 15.117188 -3.96875 15.578125 -4.96875 L 15.921875 -4.96875 L 17.6875 -3.921875 C 17.15625 -2.585938 16.300781 -1.539062 15.125 -0.78125 C 13.957031 -0.03125 12.429688 0.34375 10.546875 0.34375 C 8.773438 0.34375 7.25 -0.00390625 5.96875 -0.703125 C 4.695312 -1.398438 3.71875 -2.457031 3.03125 -3.875 C 2.351562 -5.289062 2.015625 -7.046875 2.015625 -9.140625 C 2.015625 -11.222656 2.375 -12.976562 3.09375 -14.40625 C 3.820312 -15.832031 4.8125 -16.894531 6.0625 -17.59375 C 7.320312 -18.300781 8.757812 -18.65625 10.375 -18.65625 C 12.71875 -18.65625 14.546875 -17.992188 15.859375 -16.671875 C 17.179688 -15.347656 17.847656 -13.390625 17.859375 -10.796875 C 17.859375 -9.773438 17.835938 -9.085938 17.796875 -8.734375 Z M 15.1875 -10.796875 C 15.144531 -12.742188 14.710938 -14.160156 13.890625 -15.046875 C 13.078125 -15.929688 11.90625 -16.375 10.375 -16.375 C 8.769531 -16.375 7.507812 -15.925781 6.59375 -15.03125 C 5.6875 -14.144531 5.132812 -12.734375 4.9375 -10.796875 Z M 15.1875 -10.796875 "/></g></g></g><g fill="#000000" fill-opacity="1"><g transform="translate(112.146006, 891.120959)"><g><path d="M 10.09375 -13.28125 L 16.015625 -13.28125 L 16.015625 -10.984375 L 10.09375 -10.984375 L 10.09375 -5 L 7.671875 -5 L 7.671875 -10.984375 L 1.734375 -10.984375 L 1.734375 -13.28125 L 7.671875 -13.28125 L 7.671875 -19.28125 L 10.09375 -19.28125 Z M 10.09375 -13.28125 "/></g></g></g><g fill="#000000" fill-opacity="1"><g transform="translate(129.874436, 891.120959)"><g><path d="M 11.59375 0.34375 C 9.875 0.34375 8.332031 -0.0664062 6.96875 -0.890625 C 5.613281 -1.710938 4.523438 -3.050781 3.703125 -4.90625 C 2.890625 -6.769531 2.484375 -9.179688 2.484375 -12.140625 C 2.484375 -15.003906 2.890625 -17.367188 3.703125 -19.234375 C 4.523438 -21.097656 5.632812 -22.460938 7.03125 -23.328125 C 8.4375 -24.191406 10.046875 -24.625 11.859375 -24.625 C 14.960938 -24.625 17.253906 -23.675781 18.734375 -21.78125 L 17.328125 -19.90625 L 16.921875 -19.90625 C 15.722656 -21.34375 14.035156 -22.0625 11.859375 -22.0625 C 9.753906 -22.0625 8.144531 -21.265625 7.03125 -19.671875 C 5.925781 -18.085938 5.375 -15.550781 5.375 -12.0625 L 5.734375 -11.96875 C 6.390625 -13.34375 7.25 -14.375 8.3125 -15.0625 C 9.375 -15.75 10.679688 -16.09375 12.234375 -16.09375 C 13.773438 -16.09375 15.101562 -15.765625 16.21875 -15.109375 C 17.34375 -14.453125 18.203125 -13.503906 18.796875 -12.265625 C 19.398438 -11.035156 19.703125 -9.582031 19.703125 -7.90625 C 19.703125 -6.21875 19.367188 -4.753906 18.703125 -3.515625 C 18.046875 -2.273438 17.101562 -1.320312 15.875 -0.65625 C 14.65625 0.0078125 13.226562 0.34375 11.59375 0.34375 Z M 11.59375 -2.21875 C 13.195312 -2.21875 14.453125 -2.703125 15.359375 -3.671875 C 16.265625 -4.648438 16.71875 -6.0625 16.71875 -7.90625 C 16.71875 -9.75 16.265625 -11.15625 15.359375 -12.125 C 14.453125 -13.101562 13.195312 -13.59375 11.59375 -13.59375 C 10.488281 -13.59375 9.53125 -13.367188 8.71875 -12.921875 C 7.914062 -12.472656 7.296875 -11.820312 6.859375 -10.96875 C 6.421875 -10.125 6.203125 -9.101562 6.203125 -7.90625 C 6.203125 -6.71875 6.421875 -5.695312 6.859375 -4.84375 C 7.296875 -3.988281 7.914062 -3.335938 8.71875 -2.890625 C 9.53125 -2.441406 10.488281 -2.21875 11.59375 -2.21875 Z M 11.59375 -2.21875 "/></g></g></g><g fill="#000000" fill-opacity="1"><g transform="translate(151.736186, 891.120959)"><g><path d="M 1.734375 0 L 1.734375 -2.359375 L 8.34375 -2.359375 L 8.34375 -20.921875 L 7.96875 -21.015625 C 6.894531 -20.484375 5.953125 -20.078125 5.140625 -19.796875 C 4.335938 -19.515625 3.304688 -19.238281 2.046875 -18.96875 L 2.046875 -21.59375 C 3.296875 -21.863281 4.53125 -22.222656 5.75 -22.671875 C 6.976562 -23.128906 8.085938 -23.660156 9.078125 -24.265625 L 11.140625 -24.265625 L 11.140625 -2.359375 L 17.0625 -2.359375 L 17.0625 0 Z M 1.734375 0 "/></g></g></g><g fill="#000000" fill-opacity="1"><g transform="translate(169.829808, 891.120959)"><g/></g></g><g fill="#000000" fill-opacity="1"><g transform="translate(178.162835, 891.120959)"><g><path d="M 15.1875 0 L 12.484375 0 L 12.484375 -5.796875 L 1.109375 -5.796875 L 1.109375 -8.078125 L 11.828125 -24.265625 L 15.1875 -24.265625 L 15.1875 -8.078125 L 19.390625 -8.078125 L 19.390625 -5.796875 L 15.1875 -5.796875 Z M 4.46875 -8.4375 L 4.609375 -8.078125 L 12.484375 -8.078125 L 12.484375 -20.328125 L 12.109375 -20.390625 Z M 4.46875 -8.4375 "/></g></g></g><g fill="#000000" fill-opacity="1"><g transform="translate(197.268985, 891.120959)"><g><path d="M 6.59375 0 L 3.8125 0 L 12.828125 -21.5 L 12.734375 -21.84375 L 0.890625 -21.84375 L 0.890625 -24.265625 L 15.703125 -24.265625 L 15.703125 -21.65625 Z M 6.59375 0 "/></g></g></g><g fill="#000000" fill-opacity="1"><g transform="translate(214.449643, 891.120959)"><g><path d="M 1.46875 -1.109375 C 1.46875 -2.453125 1.613281 -3.53125 1.90625 -4.34375 C 2.195312 -5.164062 2.695312 -5.929688 3.40625 -6.640625 C 4.113281 -7.347656 5.242188 -8.265625 6.796875 -9.390625 L 9.46875 -11.34375 C 10.445312 -12.0625 11.242188 -12.722656 11.859375 -13.328125 C 12.484375 -13.941406 12.972656 -14.601562 13.328125 -15.3125 C 13.691406 -16.03125 13.875 -16.832031 13.875 -17.71875 C 13.875 -19.15625 13.492188 -20.238281 12.734375 -20.96875 C 11.972656 -21.695312 10.773438 -22.0625 9.140625 -22.0625 C 7.859375 -22.0625 6.71875 -21.757812 5.71875 -21.15625 C 4.726562 -20.5625 3.9375 -19.71875 3.34375 -18.625 L 2.953125 -18.5625 L 1.25 -20.359375 C 2.0625 -21.679688 3.132812 -22.722656 4.46875 -23.484375 C 5.800781 -24.242188 7.359375 -24.625 9.140625 -24.625 C 10.867188 -24.625 12.300781 -24.328125 13.4375 -23.734375 C 14.582031 -23.148438 15.425781 -22.335938 15.96875 -21.296875 C 16.507812 -20.265625 16.78125 -19.070312 16.78125 -17.71875 C 16.78125 -16.632812 16.550781 -15.617188 16.09375 -14.671875 C 15.644531 -13.734375 15.003906 -12.847656 14.171875 -12.015625 C 13.347656 -11.191406 12.3125 -10.316406 11.0625 -9.390625 L 8.34375 -7.421875 C 7.34375 -6.679688 6.570312 -6.050781 6.03125 -5.53125 C 5.488281 -5.007812 5.09375 -4.5 4.84375 -4 C 4.59375 -3.507812 4.46875 -2.960938 4.46875 -2.359375 L 16.78125 -2.359375 L 16.78125 0 L 1.46875 0 Z M 1.46875 -1.109375 "/></g></g></g><g fill="#000000" fill-opacity="1"><g transform="translate(233.107654, 891.120959)"><g/></g></g><g fill="#000000" fill-opacity="1"><g transform="translate(241.44068, 891.120959)"><g><path d="M 10.265625 0.34375 C 8.492188 0.34375 6.976562 0.0625 5.71875 -0.5 C 4.457031 -1.070312 3.5 -1.882812 2.84375 -2.9375 C 2.195312 -4 1.875 -5.25 1.875 -6.6875 C 1.875 -8.226562 2.253906 -9.515625 3.015625 -10.546875 C 3.785156 -11.578125 4.914062 -12.382812 6.40625 -12.96875 L 6.40625 -13.3125 C 5.351562 -13.945312 4.539062 -14.679688 3.96875 -15.515625 C 3.40625 -16.347656 3.125 -17.335938 3.125 -18.484375 C 3.125 -19.722656 3.414062 -20.800781 4 -21.71875 C 4.582031 -22.644531 5.414062 -23.359375 6.5 -23.859375 C 7.582031 -24.367188 8.835938 -24.625 10.265625 -24.625 C 11.691406 -24.625 12.945312 -24.367188 14.03125 -23.859375 C 15.113281 -23.359375 15.945312 -22.644531 16.53125 -21.71875 C 17.125 -20.800781 17.421875 -19.722656 17.421875 -18.484375 C 17.421875 -17.335938 17.128906 -16.347656 16.546875 -15.515625 C 15.972656 -14.679688 15.160156 -13.945312 14.109375 -13.3125 L 14.109375 -12.96875 C 15.617188 -12.382812 16.753906 -11.578125 17.515625 -10.546875 C 18.273438 -9.515625 18.65625 -8.226562 18.65625 -6.6875 C 18.65625 -5.238281 18.328125 -3.988281 17.671875 -2.9375 C 17.023438 -1.882812 16.070312 -1.070312 14.8125 -0.5 C 13.550781 0.0625 12.035156 0.34375 10.265625 0.34375 Z M 10.265625 -14.078125 C 11.128906 -14.078125 11.890625 -14.238281 12.546875 -14.5625 C 13.203125 -14.894531 13.710938 -15.367188 14.078125 -15.984375 C 14.453125 -16.597656 14.640625 -17.316406 14.640625 -18.140625 C 14.640625 -18.984375 14.453125 -19.710938 14.078125 -20.328125 C 13.710938 -20.953125 13.195312 -21.429688 12.53125 -21.765625 C 11.863281 -22.097656 11.109375 -22.265625 10.265625 -22.265625 C 8.921875 -22.265625 7.851562 -21.894531 7.0625 -21.15625 C 6.28125 -20.425781 5.890625 -19.421875 5.890625 -18.140625 C 5.890625 -16.878906 6.28125 -15.882812 7.0625 -15.15625 C 7.851562 -14.4375 8.921875 -14.078125 10.265625 -14.078125 Z M 10.265625 -2.15625 C 12.015625 -2.15625 13.351562 -2.570312 14.28125 -3.40625 C 15.207031 -4.238281 15.671875 -5.394531 15.671875 -6.875 C 15.671875 -8.34375 15.207031 -9.492188 14.28125 -10.328125 C 13.351562 -11.171875 12.015625 -11.59375 10.265625 -11.59375 C 8.515625 -11.59375 7.171875 -11.171875 6.234375 -10.328125 C 5.304688 -9.492188 4.84375 -8.34375 4.84375 -6.875 C 4.84375 -5.394531 5.304688 -4.238281 6.234375 -3.40625 C 7.171875 -2.570312 8.515625 -2.15625 10.265625 -2.15625 Z M 10.265625 -2.15625 "/></g></g></g><g fill="#000000" fill-opacity="1"><g transform="translate(261.974458, 891.120959)"><g><path d="M 9.609375 0.34375 C 7.253906 0.34375 5.382812 -0.1875 4 -1.25 C 2.613281 -2.3125 1.71875 -3.78125 1.3125 -5.65625 L 3.4375 -6.625 L 3.8125 -6.5625 C 4.238281 -5.113281 4.890625 -4.023438 5.765625 -3.296875 C 6.648438 -2.578125 7.929688 -2.21875 9.609375 -2.21875 C 11.328125 -2.21875 12.632812 -2.609375 13.53125 -3.390625 C 14.425781 -4.179688 14.875 -5.34375 14.875 -6.875 C 14.875 -8.363281 14.414062 -9.5 13.5 -10.28125 C 12.59375 -11.070312 11.160156 -11.46875 9.203125 -11.46875 L 6.5625 -11.46875 L 6.5625 -13.828125 L 8.921875 -13.828125 C 10.441406 -13.828125 11.648438 -14.207031 12.546875 -14.96875 C 13.453125 -15.726562 13.90625 -16.796875 13.90625 -18.171875 C 13.90625 -19.492188 13.515625 -20.484375 12.734375 -21.140625 C 11.960938 -21.796875 10.875 -22.125 9.46875 -22.125 C 7.019531 -22.125 5.273438 -21.148438 4.234375 -19.203125 L 3.859375 -19.140625 L 2.265625 -20.890625 C 2.910156 -22.003906 3.847656 -22.90625 5.078125 -23.59375 C 6.304688 -24.28125 7.769531 -24.625 9.46875 -24.625 C 11.007812 -24.625 12.328125 -24.378906 13.421875 -23.890625 C 14.515625 -23.410156 15.34375 -22.71875 15.90625 -21.8125 C 16.46875 -20.90625 16.75 -19.820312 16.75 -18.5625 C 16.75 -17.363281 16.398438 -16.3125 15.703125 -15.40625 C 15.015625 -14.507812 14.101562 -13.800781 12.96875 -13.28125 L 12.96875 -12.9375 C 14.570312 -12.550781 15.773438 -11.828125 16.578125 -10.765625 C 17.390625 -9.710938 17.796875 -8.414062 17.796875 -6.875 C 17.796875 -4.570312 17.109375 -2.789062 15.734375 -1.53125 C 14.367188 -0.28125 12.328125 0.34375 9.609375 0.34375 Z M 9.609375 0.34375 "/></g></g></g><g fill="#000000" fill-opacity="1"><g transform="translate(281.694846, 891.120959)"><g><path d="M 9.609375 0.34375 C 7.253906 0.34375 5.382812 -0.1875 4 -1.25 C 2.613281 -2.3125 1.71875 -3.78125 1.3125 -5.65625 L 3.4375 -6.625 L 3.8125 -6.5625 C 4.238281 -5.113281 4.890625 -4.023438 5.765625 -3.296875 C 6.648438 -2.578125 7.929688 -2.21875 9.609375 -2.21875 C 11.328125 -2.21875 12.632812 -2.609375 13.53125 -3.390625 C 14.425781 -4.179688 14.875 -5.34375 14.875 -6.875 C 14.875 -8.363281 14.414062 -9.5 13.5 -10.28125 C 12.59375 -11.070312 11.160156 -11.46875 9.203125 -11.46875 L 6.5625 -11.46875 L 6.5625 -13.828125 L 8.921875 -13.828125 C 10.441406 -13.828125 11.648438 -14.207031 12.546875 -14.96875 C 13.453125 -15.726562 13.90625 -16.796875 13.90625 -18.171875 C 13.90625 -19.492188 13.515625 -20.484375 12.734375 -21.140625 C 11.960938 -21.796875 10.875 -22.125 9.46875 -22.125 C 7.019531 -22.125 5.273438 -21.148438 4.234375 -19.203125 L 3.859375 -19.140625 L 2.265625 -20.890625 C 2.910156 -22.003906 3.847656 -22.90625 5.078125 -23.59375 C 6.304688 -24.28125 7.769531 -24.625 9.46875 -24.625 C 11.007812 -24.625 12.328125 -24.378906 13.421875 -23.890625 C 14.515625 -23.410156 15.34375 -22.71875 15.90625 -21.8125 C 16.46875 -20.90625 16.75 -19.820312 16.75 -18.5625 C 16.75 -17.363281 16.398438 -16.3125 15.703125 -15.40625 C 15.015625 -14.507812 14.101562 -13.800781 12.96875 -13.28125 L 12.96875 -12.9375 C 14.570312 -12.550781 15.773438 -11.828125 16.578125 -10.765625 C 17.390625 -9.710938 17.796875 -8.414062 17.796875 -6.875 C 17.796875 -4.570312 17.109375 -2.789062 15.734375 -1.53125 C 14.367188 -0.28125 12.328125 0.34375 9.609375 0.34375 Z M 9.609375 0.34375 "/></g></g></g><g fill="#000000" fill-opacity="1"><g transform="translate(301.415235, 891.120959)"><g/></g></g><g fill="#000000" fill-opacity="1"><g transform="translate(309.748261, 891.120959)"><g><path d="M 6.59375 0 L 3.8125 0 L 12.828125 -21.5 L 12.734375 -21.84375 L 0.890625 -21.84375 L 0.890625 -24.265625 L 15.703125 -24.265625 L 15.703125 -21.65625 Z M 6.59375 0 "/></g></g></g><g fill="#000000" fill-opacity="1"><g transform="translate(326.513923, 891.120959)"><g><path d="M 1.734375 0 L 1.734375 -2.359375 L 8.34375 -2.359375 L 8.34375 -20.921875 L 7.96875 -21.015625 C 6.894531 -20.484375 5.953125 -20.078125 5.140625 -19.796875 C 4.335938 -19.515625 3.304688 -19.238281 2.046875 -18.96875 L 2.046875 -21.59375 C 3.296875 -21.863281 4.53125 -22.222656 5.75 -22.671875 C 6.976562 -23.128906 8.085938 -23.660156 9.078125 -24.265625 L 11.140625 -24.265625 L 11.140625 -2.359375 L 17.0625 -2.359375 L 17.0625 0 Z M 1.734375 0 "/></g></g></g><g fill="#000000" fill-opacity="1"><g transform="translate(343.777517, 891.120959)"><g><path d="M 10.265625 0.34375 C 8.160156 0.34375 6.453125 -0.132812 5.140625 -1.09375 C 3.828125 -2.050781 2.992188 -3.363281 2.640625 -5.03125 L 4.75 -6 L 5.125 -5.921875 C 5.519531 -4.691406 6.117188 -3.765625 6.921875 -3.140625 C 7.722656 -2.523438 8.835938 -2.21875 10.265625 -2.21875 C 12.273438 -2.21875 13.8125 -3.054688 14.875 -4.734375 C 15.9375 -6.421875 16.46875 -9.023438 16.46875 -12.546875 L 16.125 -12.65625 C 15.445312 -11.269531 14.585938 -10.234375 13.546875 -9.546875 C 12.503906 -8.867188 11.191406 -8.53125 9.609375 -8.53125 C 8.097656 -8.53125 6.78125 -8.859375 5.65625 -9.515625 C 4.53125 -10.179688 3.664062 -11.113281 3.0625 -12.3125 C 2.457031 -13.519531 2.15625 -14.925781 2.15625 -16.53125 C 2.15625 -18.132812 2.488281 -19.546875 3.15625 -20.765625 C 3.820312 -21.992188 4.765625 -22.941406 5.984375 -23.609375 C 7.203125 -24.285156 8.628906 -24.625 10.265625 -24.625 C 13.109375 -24.625 15.332031 -23.660156 16.9375 -21.734375 C 18.550781 -19.816406 19.359375 -16.710938 19.359375 -12.421875 C 19.359375 -9.515625 18.972656 -7.109375 18.203125 -5.203125 C 17.441406 -3.304688 16.382812 -1.90625 15.03125 -1 C 13.675781 -0.101562 12.085938 0.34375 10.265625 0.34375 Z M 10.265625 -11.03125 C 11.359375 -11.03125 12.304688 -11.242188 13.109375 -11.671875 C 13.921875 -12.097656 14.546875 -12.726562 14.984375 -13.5625 C 15.421875 -14.394531 15.640625 -15.382812 15.640625 -16.53125 C 15.640625 -17.6875 15.421875 -18.675781 14.984375 -19.5 C 14.546875 -20.332031 13.921875 -20.96875 13.109375 -21.40625 C 12.304688 -21.84375 11.359375 -22.0625 10.265625 -22.0625 C 8.660156 -22.0625 7.398438 -21.585938 6.484375 -20.640625 C 5.578125 -19.691406 5.125 -18.320312 5.125 -16.53125 C 5.125 -14.738281 5.578125 -13.375 6.484375 -12.4375 C 7.398438 -11.5 8.660156 -11.03125 10.265625 -11.03125 Z M 10.265625 -11.03125 "/></g></g></g><g fill="#000000" fill-opacity="1"><g transform="translate(112.146006, 802.401942)"><g><path d="M 17.453125 -8.53125 L 4.859375 -8.53125 C 4.941406 -6.3125 5.476562 -4.679688 6.46875 -3.640625 C 7.457031 -2.597656 8.816406 -2.078125 10.546875 -2.078125 C 11.847656 -2.078125 12.894531 -2.304688 13.6875 -2.765625 C 14.488281 -3.234375 15.117188 -3.96875 15.578125 -4.96875 L 15.921875 -4.96875 L 17.6875 -3.921875 C 17.15625 -2.585938 16.300781 -1.539062 15.125 -0.78125 C 13.957031 -0.03125 12.429688 0.34375 10.546875 0.34375 C 8.773438 0.34375 7.25 -0.00390625 5.96875 -0.703125 C 4.695312 -1.398438 3.71875 -2.457031 3.03125 -3.875 C 2.351562 -5.289062 2.015625 -7.046875 2.015625 -9.140625 C 2.015625 -11.222656 2.375 -12.976562 3.09375 -14.40625 C 3.820312 -15.832031 4.8125 -16.894531 6.0625 -17.59375 C 7.320312 -18.300781 8.757812 -18.65625 10.375 -18.65625 C 12.71875 -18.65625 14.546875 -17.992188 15.859375 -16.671875 C 17.179688 -15.347656 17.847656 -13.390625 17.859375 -10.796875 C 17.859375 -9.773438 17.835938 -9.085938 17.796875 -8.734375 Z M 15.1875 -10.796875 C 15.144531 -12.742188 14.710938 -14.160156 13.890625 -15.046875 C 13.078125 -15.929688 11.90625 -16.375 10.375 -16.375 C 8.769531 -16.375 7.507812 -15.925781 6.59375 -15.03125 C 5.6875 -14.144531 5.132812 -12.734375 4.9375 -10.796875 Z M 15.1875 -10.796875 "/></g></g></g><g fill="#000000" fill-opacity="1"><g transform="translate(131.667199, 802.401942)"><g><path d="M 3.1875 0 L 3.1875 -18.3125 L 5.765625 -18.3125 L 5.765625 -15.609375 L 6.109375 -15.546875 C 6.734375 -16.566406 7.484375 -17.335938 8.359375 -17.859375 C 9.234375 -18.390625 10.285156 -18.65625 11.515625 -18.65625 C 12.929688 -18.65625 14.023438 -18.382812 14.796875 -17.84375 C 15.578125 -17.3125 16.1875 -16.445312 16.625 -15.25 L 16.96875 -15.25 C 17.59375 -16.375 18.367188 -17.222656 19.296875 -17.796875 C 20.222656 -18.367188 21.363281 -18.65625 22.71875 -18.65625 C 24.59375 -18.65625 25.992188 -18.144531 26.921875 -17.125 C 27.847656 -16.113281 28.3125 -14.566406 28.3125 -12.484375 L 28.3125 0 L 25.59375 0 L 25.59375 -12.421875 C 25.59375 -13.742188 25.3125 -14.71875 24.75 -15.34375 C 24.195312 -15.976562 23.300781 -16.296875 22.0625 -16.296875 C 20.601562 -16.296875 19.410156 -15.765625 18.484375 -14.703125 C 17.554688 -13.640625 17.09375 -11.894531 17.09375 -9.46875 L 17.09375 0 L 14.390625 0 L 14.390625 -12.421875 C 14.390625 -13.742188 14.109375 -14.71875 13.546875 -15.34375 C 12.992188 -15.976562 12.097656 -16.296875 10.859375 -16.296875 C 9.398438 -16.296875 8.207031 -15.78125 7.28125 -14.75 C 6.351562 -13.726562 5.890625 -12.0625 5.890625 -9.75 L 5.890625 0 Z M 3.1875 0 "/></g></g></g><g fill="#000000" fill-opacity="1"><g transform="translate(162.874547, 802.401942)"><g><path d="M 7.546875 0.34375 C 5.742188 0.34375 4.335938 -0.125 3.328125 -1.0625 C 2.316406 -2 1.8125 -3.34375 1.8125 -5.09375 C 1.8125 -6.175781 2.035156 -7.09375 2.484375 -7.84375 C 2.929688 -8.59375 3.625 -9.203125 4.5625 -9.671875 C 5.507812 -10.140625 6.738281 -10.503906 8.25 -10.765625 C 9.582031 -10.984375 10.59375 -11.226562 11.28125 -11.5 C 11.96875 -11.78125 12.429688 -12.09375 12.671875 -12.4375 C 12.910156 -12.78125 13.03125 -13.210938 13.03125 -13.734375 C 13.03125 -14.554688 12.742188 -15.1875 12.171875 -15.625 C 11.609375 -16.070312 10.695312 -16.296875 9.4375 -16.296875 C 8.25 -16.296875 7.226562 -16.066406 6.375 -15.609375 C 5.53125 -15.148438 4.753906 -14.46875 4.046875 -13.5625 L 3.71875 -13.5625 L 2.390625 -15.4375 C 3.160156 -16.425781 4.144531 -17.207031 5.34375 -17.78125 C 6.539062 -18.363281 7.90625 -18.65625 9.4375 -18.65625 C 11.59375 -18.65625 13.179688 -18.179688 14.203125 -17.234375 C 15.222656 -16.296875 15.734375 -14.988281 15.734375 -13.3125 L 15.734375 -3.609375 C 15.734375 -2.585938 16.164062 -2.078125 17.03125 -2.078125 C 17.320312 -2.078125 17.597656 -2.125 17.859375 -2.21875 L 18.09375 -2.15625 L 18.40625 -0.28125 C 18.207031 -0.144531 17.945312 -0.0390625 17.625 0.03125 C 17.300781 0.101562 16.96875 0.140625 16.625 0.140625 C 15.613281 0.140625 14.847656 -0.0820312 14.328125 -0.53125 C 13.816406 -0.976562 13.488281 -1.628906 13.34375 -2.484375 L 13 -2.53125 C 12.476562 -1.5625 11.773438 -0.835938 10.890625 -0.359375 C 10.003906 0.109375 8.890625 0.34375 7.546875 0.34375 Z M 8.15625 -1.8125 C 9.164062 -1.8125 10.046875 -2.046875 10.796875 -2.515625 C 11.546875 -2.984375 12.117188 -3.644531 12.515625 -4.5 C 12.910156 -5.351562 13.109375 -6.335938 13.109375 -7.453125 L 13.109375 -9.78125 L 12.796875 -9.84375 C 12.390625 -9.550781 11.890625 -9.304688 11.296875 -9.109375 C 10.710938 -8.921875 9.894531 -8.75 8.84375 -8.59375 C 7.78125 -8.457031 6.9375 -8.238281 6.3125 -7.9375 C 5.6875 -7.632812 5.238281 -7.253906 4.96875 -6.796875 C 4.707031 -6.335938 4.578125 -5.769531 4.578125 -5.09375 C 4.578125 -4.019531 4.890625 -3.203125 5.515625 -2.640625 C 6.148438 -2.085938 7.03125 -1.8125 8.15625 -1.8125 Z M 8.15625 -1.8125 "/></g></g></g><g fill="#000000" fill-opacity="1"><g transform="translate(181.814758, 802.401942)"><g><path d="M 4.546875 -21.84375 C 3.972656 -21.84375 3.503906 -22.019531 3.140625 -22.375 C 2.785156 -22.738281 2.609375 -23.195312 2.609375 -23.75 C 2.609375 -24.3125 2.785156 -24.769531 3.140625 -25.125 C 3.503906 -25.488281 3.972656 -25.671875 4.546875 -25.671875 C 5.117188 -25.671875 5.582031 -25.488281 5.9375 -25.125 C 6.300781 -24.769531 6.484375 -24.3125 6.484375 -23.75 C 6.484375 -23.195312 6.300781 -22.738281 5.9375 -22.375 C 5.582031 -22.019531 5.117188 -21.84375 4.546875 -21.84375 Z M 3.1875 0 L 3.1875 -18.3125 L 5.890625 -18.3125 L 5.890625 0 Z M 3.1875 0 "/></g></g></g><g fill="#000000" fill-opacity="1"><g transform="translate(190.894774, 802.401942)"><g><path d="M 7.28125 0.34375 C 5.988281 0.34375 4.972656 -0.0195312 4.234375 -0.75 C 3.492188 -1.488281 3.125 -2.585938 3.125 -4.046875 L 3.125 -25.671875 L 5.828125 -25.671875 L 5.828125 -4.234375 C 5.828125 -3.472656 5.972656 -2.921875 6.265625 -2.578125 C 6.554688 -2.242188 7.015625 -2.078125 7.640625 -2.078125 C 8.015625 -2.078125 8.394531 -2.140625 8.78125 -2.265625 L 9.015625 -2.1875 L 9.328125 -0.0625 C 9.128906 0.0703125 8.84375 0.171875 8.46875 0.234375 C 8.101562 0.304688 7.707031 0.34375 7.28125 0.34375 Z M 7.28125 0.34375 "/></g></g></g><g fill="#000000" fill-opacity="1"><g transform="translate(201.900385, 802.401942)"><g><path d="M 4.46875 0.171875 C 3.832031 0.171875 3.332031 -0.00390625 2.96875 -0.359375 C 2.601562 -0.710938 2.421875 -1.1875 2.421875 -1.78125 C 2.421875 -2.351562 2.601562 -2.820312 2.96875 -3.1875 C 3.332031 -3.5625 3.832031 -3.75 4.46875 -3.75 C 5.101562 -3.75 5.601562 -3.570312 5.96875 -3.21875 C 6.34375 -2.863281 6.53125 -2.394531 6.53125 -1.8125 C 6.53125 -1.226562 6.34375 -0.75 5.96875 -0.375 C 5.59375 -0.0078125 5.09375 0.171875 4.46875 0.171875 Z M 4.46875 0.171875 "/></g></g></g><g fill="#000000" fill-opacity="1"><g transform="translate(210.017587, 802.401942)"><g><path d="M 10.515625 0.34375 C 8.890625 0.34375 7.4375 -0.0195312 6.15625 -0.75 C 4.875 -1.488281 3.863281 -2.570312 3.125 -4 C 2.382812 -5.4375 2.015625 -7.148438 2.015625 -9.140625 C 2.015625 -11.148438 2.382812 -12.867188 3.125 -14.296875 C 3.863281 -15.734375 4.875 -16.816406 6.15625 -17.546875 C 7.4375 -18.285156 8.890625 -18.65625 10.515625 -18.65625 C 12.453125 -18.65625 13.988281 -18.289062 15.125 -17.5625 C 16.269531 -16.832031 17.097656 -15.859375 17.609375 -14.640625 L 15.765625 -13.3125 L 15.4375 -13.3125 C 14.9375 -14.320312 14.296875 -15.0625 13.515625 -15.53125 C 12.742188 -16 11.742188 -16.234375 10.515625 -16.234375 C 9.378906 -16.234375 8.382812 -15.96875 7.53125 -15.4375 C 6.6875 -14.90625 6.023438 -14.109375 5.546875 -13.046875 C 5.078125 -11.984375 4.84375 -10.679688 4.84375 -9.140625 C 4.84375 -7.617188 5.082031 -6.328125 5.5625 -5.265625 C 6.039062 -4.210938 6.703125 -3.414062 7.546875 -2.875 C 8.390625 -2.34375 9.378906 -2.078125 10.515625 -2.078125 C 11.785156 -2.078125 12.835938 -2.363281 13.671875 -2.9375 C 14.503906 -3.507812 15.160156 -4.414062 15.640625 -5.65625 L 15.984375 -5.65625 L 17.765625 -4.609375 C 17.285156 -3.078125 16.429688 -1.867188 15.203125 -0.984375 C 13.984375 -0.0976562 12.421875 0.34375 10.515625 0.34375 Z M 10.515625 0.34375 "/></g></g></g><g fill="#000000" fill-opacity="1"><g transform="translate(228.891399, 802.401942)"><g><path d="M 10.515625 0.34375 C 8.785156 0.34375 7.28125 -0.0195312 6 -0.75 C 4.71875 -1.476562 3.734375 -2.550781 3.046875 -3.96875 C 2.359375 -5.394531 2.015625 -7.117188 2.015625 -9.140625 C 2.015625 -11.171875 2.359375 -12.898438 3.046875 -14.328125 C 3.734375 -15.753906 4.71875 -16.832031 6 -17.5625 C 7.28125 -18.289062 8.785156 -18.65625 10.515625 -18.65625 C 12.234375 -18.65625 13.734375 -18.289062 15.015625 -17.5625 C 16.296875 -16.832031 17.28125 -15.753906 17.96875 -14.328125 C 18.664062 -12.898438 19.015625 -11.171875 19.015625 -9.140625 C 19.015625 -7.117188 18.664062 -5.394531 17.96875 -3.96875 C 17.28125 -2.550781 16.296875 -1.476562 15.015625 -0.75 C 13.734375 -0.0195312 12.234375 0.34375 10.515625 0.34375 Z M 10.515625 -2.078125 C 12.335938 -2.078125 13.734375 -2.648438 14.703125 -3.796875 C 15.671875 -4.953125 16.15625 -6.734375 16.15625 -9.140625 C 16.15625 -11.566406 15.671875 -13.351562 14.703125 -14.5 C 13.734375 -15.65625 12.335938 -16.234375 10.515625 -16.234375 C 8.679688 -16.234375 7.273438 -15.65625 6.296875 -14.5 C 5.328125 -13.34375 4.84375 -11.554688 4.84375 -9.140625 C 4.84375 -6.734375 5.328125 -4.953125 6.296875 -3.796875 C 7.273438 -2.648438 8.679688 -2.078125 10.515625 -2.078125 Z M 10.515625 -2.078125 "/></g></g></g><g fill="#000000" fill-opacity="1"><g transform="translate(249.906561, 802.401942)"><g><path d="M 3.1875 0 L 3.1875 -18.3125 L 5.765625 -18.3125 L 5.765625 -15.609375 L 6.109375 -15.546875 C 6.734375 -16.566406 7.484375 -17.335938 8.359375 -17.859375 C 9.234375 -18.390625 10.285156 -18.65625 11.515625 -18.65625 C 12.929688 -18.65625 14.023438 -18.382812 14.796875 -17.84375 C 15.578125 -17.3125 16.1875 -16.445312 16.625 -15.25 L 16.96875 -15.25 C 17.59375 -16.375 18.367188 -17.222656 19.296875 -17.796875 C 20.222656 -18.367188 21.363281 -18.65625 22.71875 -18.65625 C 24.59375 -18.65625 25.992188 -18.144531 26.921875 -17.125 C 27.847656 -16.113281 28.3125 -14.566406 28.3125 -12.484375 L 28.3125 0 L 25.59375 0 L 25.59375 -12.421875 C 25.59375 -13.742188 25.3125 -14.71875 24.75 -15.34375 C 24.195312 -15.976562 23.300781 -16.296875 22.0625 -16.296875 C 20.601562 -16.296875 19.410156 -15.765625 18.484375 -14.703125 C 17.554688 -13.640625 17.09375 -11.894531 17.09375 -9.46875 L 17.09375 0 L 14.390625 0 L 14.390625 -12.421875 C 14.390625 -13.742188 14.109375 -14.71875 13.546875 -15.34375 C 12.992188 -15.976562 12.097656 -16.296875 10.859375 -16.296875 C 9.398438 -16.296875 8.207031 -15.78125 7.28125 -14.75 C 6.351562 -13.726562 5.890625 -12.0625 5.890625 -9.75 L 5.890625 0 Z M 3.1875 0 "/></g></g></g><g fill="#000000" fill-opacity="1"><g transform="translate(34.330808, 687.70192)"><g><path d="M 12.171875 0.34375 C 10.804688 0.34375 9.625 0.0820312 8.625 -0.4375 C 7.625 -0.96875 6.832031 -1.664062 6.25 -2.53125 L 5.890625 -2.453125 L 5.890625 0 L 3.1875 0 L 3.1875 -25.671875 L 5.890625 -25.671875 L 5.890625 -15.578125 L 6.25 -15.5 C 7.632812 -17.601562 9.65625 -18.65625 12.3125 -18.65625 C 13.820312 -18.65625 15.140625 -18.304688 16.265625 -17.609375 C 17.398438 -16.910156 18.28125 -15.847656 18.90625 -14.421875 C 19.53125 -13.003906 19.84375 -11.242188 19.84375 -9.140625 C 19.84375 -7.066406 19.507812 -5.316406 18.84375 -3.890625 C 18.1875 -2.472656 17.28125 -1.410156 16.125 -0.703125 C 14.976562 -0.00390625 13.660156 0.34375 12.171875 0.34375 Z M 11.515625 -2.078125 C 15.171875 -2.078125 17 -4.429688 17 -9.140625 C 17 -11.585938 16.519531 -13.378906 15.5625 -14.515625 C 14.613281 -15.660156 13.265625 -16.234375 11.515625 -16.234375 C 9.804688 -16.234375 8.441406 -15.648438 7.421875 -14.484375 C 6.398438 -13.316406 5.890625 -11.535156 5.890625 -9.140625 C 5.890625 -6.765625 6.398438 -4.992188 7.421875 -3.828125 C 8.441406 -2.660156 9.804688 -2.078125 11.515625 -2.078125 Z M 11.515625 -2.078125 "/></g></g></g><g fill="#000000" fill-opacity="1"><g transform="translate(56.175952, 687.70192)"><g><path d="M 4.546875 -21.84375 C 3.972656 -21.84375 3.503906 -22.019531 3.140625 -22.375 C 2.785156 -22.738281 2.609375 -23.195312 2.609375 -23.75 C 2.609375 -24.3125 2.785156 -24.769531 3.140625 -25.125 C 3.503906 -25.488281 3.972656 -25.671875 4.546875 -25.671875 C 5.117188 -25.671875 5.582031 -25.488281 5.9375 -25.125 C 6.300781 -24.769531 6.484375 -24.3125 6.484375 -23.75 C 6.484375 -23.195312 6.300781 -22.738281 5.9375 -22.375 C 5.582031 -22.019531 5.117188 -21.84375 4.546875 -21.84375 Z M 3.1875 0 L 3.1875 -18.3125 L 5.890625 -18.3125 L 5.890625 0 Z M 3.1875 0 "/></g></g></g><g fill="#000000" fill-opacity="1"><g transform="translate(65.255969, 687.70192)"><g><path d="M 10.515625 0.34375 C 8.785156 0.34375 7.28125 -0.0195312 6 -0.75 C 4.71875 -1.476562 3.734375 -2.550781 3.046875 -3.96875 C 2.359375 -5.394531 2.015625 -7.117188 2.015625 -9.140625 C 2.015625 -11.171875 2.359375 -12.898438 3.046875 -14.328125 C 3.734375 -15.753906 4.71875 -16.832031 6 -17.5625 C 7.28125 -18.289062 8.785156 -18.65625 10.515625 -18.65625 C 12.234375 -18.65625 13.734375 -18.289062 15.015625 -17.5625 C 16.296875 -16.832031 17.28125 -15.753906 17.96875 -14.328125 C 18.664062 -12.898438 19.015625 -11.171875 19.015625 -9.140625 C 19.015625 -7.117188 18.664062 -5.394531 17.96875 -3.96875 C 17.28125 -2.550781 16.296875 -1.476562 15.015625 -0.75 C 13.734375 -0.0195312 12.234375 0.34375 10.515625 0.34375 Z M 10.515625 -2.078125 C 12.335938 -2.078125 13.734375 -2.648438 14.703125 -3.796875 C 15.671875 -4.953125 16.15625 -6.734375 16.15625 -9.140625 C 16.15625 -11.566406 15.671875 -13.351562 14.703125 -14.5 C 13.734375 -15.65625 12.335938 -16.234375 10.515625 -16.234375 C 8.679688 -16.234375 7.273438 -15.65625 6.296875 -14.5 C 5.328125 -13.34375 4.84375 -11.554688 4.84375 -9.140625 C 4.84375 -6.734375 5.328125 -4.953125 6.296875 -3.796875 C 7.273438 -2.648438 8.679688 -2.078125 10.515625 -2.078125 Z M 10.515625 -2.078125 "/></g></g></g><g fill="#000000" fill-opacity="1"><g transform="translate(33.997032, 1186.860573)"><g><path d="M 6.53125 -24.265625 L 6.53125 -2.359375 L 18.21875 -2.359375 L 18.21875 0 L 3.671875 0 L 3.671875 -24.265625 Z M 6.53125 -24.265625 "/></g></g></g><g fill="#000000" fill-opacity="1"><g transform="translate(53.236036, 1186.860573)"><g><path d="M 4.546875 -21.84375 C 3.972656 -21.84375 3.503906 -22.019531 3.140625 -22.375 C 2.785156 -22.738281 2.609375 -23.195312 2.609375 -23.75 C 2.609375 -24.3125 2.785156 -24.769531 3.140625 -25.125 C 3.503906 -25.488281 3.972656 -25.671875 4.546875 -25.671875 C 5.117188 -25.671875 5.582031 -25.488281 5.9375 -25.125 C 6.300781 -24.769531 6.484375 -24.3125 6.484375 -23.75 C 6.484375 -23.195312 6.300781 -22.738281 5.9375 -22.375 C 5.582031 -22.019531 5.117188 -21.84375 4.546875 -21.84375 Z M 3.1875 0 L 3.1875 -18.3125 L 5.890625 -18.3125 L 5.890625 0 Z M 3.1875 0 "/></g></g></g><g fill="#000000" fill-opacity="1"><g transform="translate(62.316053, 1186.860573)"><g><path d="M 3.1875 0 L 3.1875 -18.3125 L 5.765625 -18.3125 L 5.765625 -15.4375 L 6.109375 -15.359375 C 6.710938 -16.429688 7.488281 -17.25 8.4375 -17.8125 C 9.382812 -18.375 10.539062 -18.65625 11.90625 -18.65625 C 14.101562 -18.65625 15.695312 -18.09375 16.6875 -16.96875 C 17.675781 -15.851562 18.171875 -14.125 18.171875 -11.78125 L 18.171875 0 L 15.46875 0 L 15.46875 -11.71875 C 15.46875 -12.820312 15.328125 -13.707031 15.046875 -14.375 C 14.765625 -15.050781 14.328125 -15.539062 13.734375 -15.84375 C 13.140625 -16.144531 12.363281 -16.296875 11.40625 -16.296875 C 9.757812 -16.296875 8.425781 -15.75 7.40625 -14.65625 C 6.394531 -13.570312 5.890625 -11.816406 5.890625 -9.390625 L 5.890625 0 Z M 3.1875 0 "/></g></g></g><g fill="#000000" fill-opacity="1"><g transform="translate(83.397613, 1186.860573)"><g><path d="M 3.1875 0 L 3.1875 -25.671875 L 5.890625 -25.671875 L 5.890625 -10.671875 L 6.34375 -10.671875 L 13.15625 -18.3125 L 15.984375 -18.3125 L 15.984375 -17.9375 L 8.734375 -9.71875 L 16.6875 -0.421875 L 16.6875 0 L 13.65625 0 L 6.34375 -8.46875 L 5.890625 -8.46875 L 5.890625 0 Z M 3.1875 0 "/></g></g></g><g fill="#000000" fill-opacity="1"><g transform="translate(100.428857, 1186.860573)"><g><path d="M 8.34375 0.34375 C 7.195312 0.34375 6.132812 0.191406 5.15625 -0.109375 C 4.175781 -0.410156 3.347656 -0.828125 2.671875 -1.359375 C 1.992188 -1.890625 1.519531 -2.488281 1.25 -3.15625 L 2.84375 -4.8125 L 3.1875 -4.8125 C 3.78125 -3.90625 4.5 -3.222656 5.34375 -2.765625 C 6.1875 -2.304688 7.1875 -2.078125 8.34375 -2.078125 C 9.695312 -2.078125 10.722656 -2.335938 11.421875 -2.859375 C 12.128906 -3.390625 12.484375 -4.125 12.484375 -5.0625 C 12.484375 -5.78125 12.269531 -6.375 11.84375 -6.84375 C 11.414062 -7.3125 10.726562 -7.664062 9.78125 -7.90625 L 6.6875 -8.671875 C 5.039062 -9.066406 3.835938 -9.695312 3.078125 -10.5625 C 2.316406 -11.425781 1.9375 -12.492188 1.9375 -13.765625 C 1.9375 -14.753906 2.191406 -15.617188 2.703125 -16.359375 C 3.210938 -17.097656 3.945312 -17.664062 4.90625 -18.0625 C 5.863281 -18.457031 7 -18.65625 8.3125 -18.65625 C 10 -18.65625 11.328125 -18.421875 12.296875 -17.953125 C 13.265625 -17.484375 14.019531 -16.828125 14.5625 -15.984375 L 13.03125 -14.5 L 12.703125 -14.5 C 12.117188 -15.164062 11.476562 -15.648438 10.78125 -15.953125 C 10.09375 -16.253906 9.269531 -16.40625 8.3125 -16.40625 C 7.113281 -16.40625 6.191406 -16.1875 5.546875 -15.75 C 4.898438 -15.320312 4.578125 -14.695312 4.578125 -13.875 C 4.578125 -13.132812 4.800781 -12.535156 5.25 -12.078125 C 5.707031 -11.628906 6.503906 -11.265625 7.640625 -10.984375 L 10.671875 -10.265625 C 12.265625 -9.890625 13.414062 -9.265625 14.125 -8.390625 C 14.832031 -7.515625 15.1875 -6.414062 15.1875 -5.09375 C 15.1875 -4.019531 14.929688 -3.070312 14.421875 -2.25 C 13.910156 -1.4375 13.140625 -0.800781 12.109375 -0.34375 C 11.085938 0.113281 9.832031 0.34375 8.34375 0.34375 Z M 8.34375 0.34375 "/></g></g></g><g fill="#000000" fill-opacity="1"><g transform="translate(33.997032, 1247.560648)"><g><path d="M 7.28125 0.34375 C 5.988281 0.34375 4.972656 -0.0195312 4.234375 -0.75 C 3.492188 -1.488281 3.125 -2.585938 3.125 -4.046875 L 3.125 -25.671875 L 5.828125 -25.671875 L 5.828125 -4.234375 C 5.828125 -3.472656 5.972656 -2.921875 6.265625 -2.578125 C 6.554688 -2.242188 7.015625 -2.078125 7.640625 -2.078125 C 8.015625 -2.078125 8.394531 -2.140625 8.78125 -2.265625 L 9.015625 -2.1875 L 9.328125 -0.0625 C 9.128906 0.0703125 8.84375 0.171875 8.46875 0.234375 C 8.101562 0.304688 7.707031 0.34375 7.28125 0.34375 Z M 7.28125 0.34375 "/></g></g></g><g fill="#000000" fill-opacity="1"><g transform="translate(43.956824, 1247.560648)"><g><path d="M 4.546875 -21.84375 C 3.972656 -21.84375 3.503906 -22.019531 3.140625 -22.375 C 2.785156 -22.738281 2.609375 -23.195312 2.609375 -23.75 C 2.609375 -24.3125 2.785156 -24.769531 3.140625 -25.125 C 3.503906 -25.488281 3.972656 -25.671875 4.546875 -25.671875 C 5.117188 -25.671875 5.582031 -25.488281 5.9375 -25.125 C 6.300781 -24.769531 6.484375 -24.3125 6.484375 -23.75 C 6.484375 -23.195312 6.300781 -22.738281 5.9375 -22.375 C 5.582031 -22.019531 5.117188 -21.84375 4.546875 -21.84375 Z M 3.1875 0 L 3.1875 -18.3125 L 5.890625 -18.3125 L 5.890625 0 Z M 3.1875 0 "/></g></g></g><g fill="#000000" fill-opacity="1"><g transform="translate(53.036841, 1247.560648)"><g><path d="M 3.1875 0 L 3.1875 -18.3125 L 5.765625 -18.3125 L 5.765625 -15.4375 L 6.109375 -15.359375 C 6.710938 -16.429688 7.488281 -17.25 8.4375 -17.8125 C 9.382812 -18.375 10.539062 -18.65625 11.90625 -18.65625 C 14.101562 -18.65625 15.695312 -18.09375 16.6875 -16.96875 C 17.675781 -15.851562 18.171875 -14.125 18.171875 -11.78125 L 18.171875 0 L 15.46875 0 L 15.46875 -11.71875 C 15.46875 -12.820312 15.328125 -13.707031 15.046875 -14.375 C 14.765625 -15.050781 14.328125 -15.539062 13.734375 -15.84375 C 13.140625 -16.144531 12.363281 -16.296875 11.40625 -16.296875 C 9.757812 -16.296875 8.425781 -15.75 7.40625 -14.65625 C 6.394531 -13.570312 5.890625 -11.816406 5.890625 -9.390625 L 5.890625 0 Z M 3.1875 0 "/></g></g></g><g fill="#000000" fill-opacity="1"><g transform="translate(74.1184, 1247.560648)"><g><path d="M 3.1875 0 L 3.1875 -25.671875 L 5.890625 -25.671875 L 5.890625 -10.671875 L 6.34375 -10.671875 L 13.15625 -18.3125 L 15.984375 -18.3125 L 15.984375 -17.9375 L 8.734375 -9.71875 L 16.6875 -0.421875 L 16.6875 0 L 13.65625 0 L 6.34375 -8.46875 L 5.890625 -8.46875 L 5.890625 0 Z M 3.1875 0 "/></g></g></g><g fill="#000000" fill-opacity="1"><g transform="translate(91.149645, 1247.560648)"><g><path d="M 1.734375 0 L 1.734375 -2.359375 L 8.34375 -2.359375 L 8.34375 -20.921875 L 7.96875 -21.015625 C 6.894531 -20.484375 5.953125 -20.078125 5.140625 -19.796875 C 4.335938 -19.515625 3.304688 -19.238281 2.046875 -18.96875 L 2.046875 -21.59375 C 3.296875 -21.863281 4.53125 -22.222656 5.75 -22.671875 C 6.976562 -23.128906 8.085938 -23.660156 9.078125 -24.265625 L 11.140625 -24.265625 L 11.140625 -2.359375 L 17.0625 -2.359375 L 17.0625 0 Z M 1.734375 0 "/></g></g></g><g clip-path="url(#4fa4473182)"><g clip-path="url(#e43003d830)"><g transform="matrix(1, 0, 0, 1, 34, 973)"><g clip-path="url(#2122b1adb8)"><g clip-path="url(#3490237d90)"><g clip-path="url(#0d6a89d7c4)"><path fill="#d9d9d9" d="M 0.332031 0.570312 L 112.871094 0.570312 L 112.871094 113.109375 L 0.332031 113.109375 Z M 0.332031 0.570312 " fill-opacity="1" fill-rule="nonzero"/></g></g></g></g></g></g><g clip-path="url(#6cc82b5492)"><g clip-path="url(#7e8f87fd6f)"><g transform="matrix(1, 0, 0, 1, 171, 973)"><g clip-path="url(#77a23adac7)"><g clip-path="url(#5c1eb087fb)"><g clip-path="url(#478074a4ed)"><path fill="#d9d9d9" d="M 0.308594 0.570312 L 112.847656 0.570312 L 112.847656 113.109375 L 0.308594 113.109375 Z M 0.308594 0.570312 " fill-opacity="1" fill-rule="nonzero"/></g></g></g></g></g></g><g clip-path="url(#bbdc04ce92)"><g clip-path="url(#3077b79f43)"><g transform="matrix(1, 0, 0, 1, 308, 973)"><g clip-path="url(#29f11d3687)"><g clip-path="url(#0fd9a04eea)"><g clip-path="url(#50e3ed2757)"><path fill="#d9d9d9" d="M 0.597656 0.570312 L 113.136719 0.570312 L 113.136719 113.109375 L 0.597656 113.109375 Z M 0.597656 0.570312 " fill-opacity="1" fill-rule="nonzero"/></g></g></g></g></g></g></svg>