<svg xmlns="http://www.w3.org/2000/svg" xmlns:xlink="http://www.w3.org/1999/xlink" width="1080" zoomAndPan="magnify" viewBox="0 0 810 1439.999935" height="1920" preserveAspectRatio="xMidYMid meet" version="1.0"><defs><clipPath id="f418e87617"><path d="M 0 0 L 810 0 L 810 557.820312 L 0 557.820312 Z M 0 0 " clip-rule="nonzero"/></clipPath><clipPath id="52ac26b2bc"><path d="M 0 0 L 810 0 L 810 557.820312 L 0 557.820312 Z M 0 0 " clip-rule="nonzero"/></clipPath><clipPath id="6768c9b7c0"><rect x="0" width="810" y="0" height="558"/></clipPath><clipPath id="fc6313977b"><path d="M 44.160156 445.941406 L 245.230469 445.941406 L 245.230469 647.015625 L 44.160156 647.015625 Z M 44.160156 445.941406 " clip-rule="nonzero"/></clipPath><clipPath id="949acf8321"><path d="M 144.695312 445.941406 C 89.171875 445.941406 44.160156 490.953125 44.160156 546.476562 C 44.160156 602.003906 89.171875 647.015625 144.695312 647.015625 C 200.21875 647.015625 245.230469 602.003906 245.230469 546.476562 C 245.230469 490.953125 200.21875 445.941406 144.695312 445.941406 Z M 144.695312 445.941406 " clip-rule="nonzero"/></clipPath><clipPath id="c8360da4a9"><path d="M 0.160156 0.941406 L 201.230469 0.941406 L 201.230469 202.015625 L 0.160156 202.015625 Z M 0.160156 0.941406 " clip-rule="nonzero"/></clipPath><clipPath id="db81d75c67"><path d="M 100.695312 0.941406 C 45.171875 0.941406 0.160156 45.953125 0.160156 101.476562 C 0.160156 157.003906 45.171875 202.015625 100.695312 202.015625 C 156.21875 202.015625 201.230469 157.003906 201.230469 101.476562 C 201.230469 45.953125 156.21875 0.941406 100.695312 0.941406 Z M 100.695312 0.941406 " clip-rule="nonzero"/></clipPath><clipPath id="39a75cc6a9"><rect x="0" width="202" y="0" height="203"/></clipPath><clipPath id="e784e2bad0"><path d="M 44.160156 921.261719 L 156.699219 921.261719 L 156.699219 1033.800781 L 44.160156 1033.800781 Z M 44.160156 921.261719 " clip-rule="nonzero"/></clipPath><clipPath id="440b771cf4"><path d="M 100.429688 921.261719 C 69.351562 921.261719 44.160156 946.457031 44.160156 977.53125 C 44.160156 1008.609375 69.351562 1033.800781 100.429688 1033.800781 C 131.503906 1033.800781 156.699219 1008.609375 156.699219 977.53125 C 156.699219 946.457031 131.503906 921.261719 100.429688 921.261719 Z M 100.429688 921.261719 " clip-rule="nonzero"/></clipPath><clipPath id="6e586c5c42"><path d="M 0.160156 0.261719 L 112.699219 0.261719 L 112.699219 112.800781 L 0.160156 112.800781 Z M 0.160156 0.261719 " clip-rule="nonzero"/></clipPath><clipPath id="575792d469"><path d="M 56.429688 0.261719 C 25.351562 0.261719 0.160156 25.457031 0.160156 56.53125 C 0.160156 87.609375 25.351562 112.800781 56.429688 112.800781 C 87.503906 112.800781 112.699219 87.609375 112.699219 56.53125 C 112.699219 25.457031 87.503906 0.261719 56.429688 0.261719 Z M 56.429688 0.261719 " clip-rule="nonzero"/></clipPath><clipPath id="f7595243c8"><rect x="0" width="113" y="0" height="113"/></clipPath><clipPath id="eee3e515e7"><path d="M 187.0625 921.261719 L 299.605469 921.261719 L 299.605469 1033.800781 L 187.0625 1033.800781 Z M 187.0625 921.261719 " clip-rule="nonzero"/></clipPath><clipPath id="365ffd2d37"><path d="M 243.332031 921.261719 C 212.257812 921.261719 187.0625 946.457031 187.0625 977.53125 C 187.0625 1008.609375 212.257812 1033.800781 243.332031 1033.800781 C 274.410156 1033.800781 299.605469 1008.609375 299.605469 977.53125 C 299.605469 946.457031 274.410156 921.261719 243.332031 921.261719 Z M 243.332031 921.261719 " clip-rule="nonzero"/></clipPath><clipPath id="6ff856551d"><path d="M 0.0625 0.261719 L 112.605469 0.261719 L 112.605469 112.800781 L 0.0625 112.800781 Z M 0.0625 0.261719 " clip-rule="nonzero"/></clipPath><clipPath id="8d578b29f6"><path d="M 56.332031 0.261719 C 25.257812 0.261719 0.0625 25.457031 0.0625 56.53125 C 0.0625 87.609375 25.257812 112.800781 56.332031 112.800781 C 87.410156 112.800781 112.605469 87.609375 112.605469 56.53125 C 112.605469 25.457031 87.410156 0.261719 56.332031 0.261719 Z M 56.332031 0.261719 " clip-rule="nonzero"/></clipPath><clipPath id="8dfba80637"><rect x="0" width="113" y="0" height="113"/></clipPath><clipPath id="ec0258508b"><path d="M 329.605469 921.261719 L 442.144531 921.261719 L 442.144531 1033.800781 L 329.605469 1033.800781 Z M 329.605469 921.261719 " clip-rule="nonzero"/></clipPath><clipPath id="099b8beea1"><path d="M 385.875 921.261719 C 354.796875 921.261719 329.605469 946.457031 329.605469 977.53125 C 329.605469 1008.609375 354.796875 1033.800781 385.875 1033.800781 C 416.949219 1033.800781 442.144531 1008.609375 442.144531 977.53125 C 442.144531 946.457031 416.949219 921.261719 385.875 921.261719 Z M 385.875 921.261719 " clip-rule="nonzero"/></clipPath><clipPath id="a44a8b40ba"><path d="M 0.605469 0.261719 L 113.144531 0.261719 L 113.144531 112.800781 L 0.605469 112.800781 Z M 0.605469 0.261719 " clip-rule="nonzero"/></clipPath><clipPath id="5e4f6eedc9"><path d="M 56.875 0.261719 C 25.796875 0.261719 0.605469 25.457031 0.605469 56.53125 C 0.605469 87.609375 25.796875 112.800781 56.875 112.800781 C 87.949219 112.800781 113.144531 87.609375 113.144531 56.53125 C 113.144531 25.457031 87.949219 0.261719 56.875 0.261719 Z M 56.875 0.261719 " clip-rule="nonzero"/></clipPath><clipPath id="eaec5e1f78"><rect x="0" width="114" y="0" height="113"/></clipPath><clipPath id="b75a606e7d"><path d="M 130.15625 1329.144531 L 641.65625 1329.144531 L 641.65625 1388.855469 L 130.15625 1388.855469 Z M 130.15625 1329.144531 " clip-rule="nonzero"/></clipPath><clipPath id="bb5807c9ce"><path d="M 148.90625 1329.144531 L 622.839844 1329.144531 C 627.8125 1329.144531 632.582031 1331.121094 636.097656 1334.636719 C 639.613281 1338.152344 641.589844 1342.921875 641.589844 1347.894531 L 641.589844 1370.105469 C 641.589844 1375.078125 639.613281 1379.847656 636.097656 1383.363281 C 632.582031 1386.878906 627.8125 1388.855469 622.839844 1388.855469 L 148.90625 1388.855469 C 143.933594 1388.855469 139.164062 1386.878906 135.648438 1383.363281 C 132.132812 1379.847656 130.15625 1375.078125 130.15625 1370.105469 L 130.15625 1347.894531 C 130.15625 1342.921875 132.132812 1338.152344 135.648438 1334.636719 C 139.164062 1331.121094 143.933594 1329.144531 148.90625 1329.144531 Z M 148.90625 1329.144531 " clip-rule="nonzero"/></clipPath><clipPath id="4d56d1b1ed"><path d="M 0.15625 0.144531 L 511.65625 0.144531 L 511.65625 59.855469 L 0.15625 59.855469 Z M 0.15625 0.144531 " clip-rule="nonzero"/></clipPath><clipPath id="f0c436832b"><path d="M 18.90625 0.144531 L 492.839844 0.144531 C 497.8125 0.144531 502.582031 2.121094 506.097656 5.636719 C 509.613281 9.152344 511.589844 13.921875 511.589844 18.894531 L 511.589844 41.105469 C 511.589844 46.078125 509.613281 50.847656 506.097656 54.363281 C 502.582031 57.878906 497.8125 59.855469 492.839844 59.855469 L 18.90625 59.855469 C 13.933594 59.855469 9.164062 57.878906 5.648438 54.363281 C 2.132812 50.847656 0.15625 46.078125 0.15625 41.105469 L 0.15625 18.894531 C 0.15625 13.921875 2.132812 9.152344 5.648438 5.636719 C 9.164062 2.121094 13.933594 0.144531 18.90625 0.144531 Z M 18.90625 0.144531 " clip-rule="nonzero"/></clipPath><clipPath id="6a8527c940"><rect x="0" width="512" y="0" height="60"/></clipPath></defs><rect x="-81" width="972" fill="#ffffff" y="-143.999994" height="1727.999922" fill-opacity="1"/><rect x="-81" width="972" fill="#ffffff" y="-143.999994" height="1727.999922" fill-opacity="1"/><g clip-path="url(#f418e87617)"><g transform="matrix(1, 0, 0, 1, 0, -0.000000000000101068)"><g clip-path="url(#6768c9b7c0)"><g clip-path="url(#52ac26b2bc)"><path fill="#919191" d="M 0 0 L 810.582031 0 L 810.582031 557.820312 L 0 557.820312 Z M 0 0 " fill-opacity="1" fill-rule="nonzero"/></g></g></g></g><g clip-path="url(#fc6313977b)"><g clip-path="url(#949acf8321)"><g transform="matrix(1, 0, 0, 1, 44, 445)"><g clip-path="url(#39a75cc6a9)"><g clip-path="url(#c8360da4a9)"><g clip-path="url(#db81d75c67)"><path fill="#d9d9d9" d="M 0.160156 0.941406 L 201.230469 0.941406 L 201.230469 202.015625 L 0.160156 202.015625 Z M 0.160156 0.941406 " fill-opacity="1" fill-rule="nonzero"/></g></g></g></g></g></g><g clip-path="url(#e784e2bad0)"><g clip-path="url(#440b771cf4)"><g transform="matrix(1, 0, 0, 1, 44, 921)"><g clip-path="url(#f7595243c8)"><g clip-path="url(#6e586c5c42)"><g clip-path="url(#575792d469)"><path fill="#d9d9d9" d="M 0.160156 0.261719 L 112.699219 0.261719 L 112.699219 112.800781 L 0.160156 112.800781 Z M 0.160156 0.261719 " fill-opacity="1" fill-rule="nonzero"/></g></g></g></g></g></g><g clip-path="url(#eee3e515e7)"><g clip-path="url(#365ffd2d37)"><g transform="matrix(1, 0, 0, 1, 187, 921)"><g clip-path="url(#8dfba80637)"><g clip-path="url(#6ff856551d)"><g clip-path="url(#8d578b29f6)"><path fill="#d9d9d9" d="M 0.0625 0.261719 L 112.605469 0.261719 L 112.605469 112.800781 L 0.0625 112.800781 Z M 0.0625 0.261719 " fill-opacity="1" fill-rule="nonzero"/></g></g></g></g></g></g><g clip-path="url(#ec0258508b)"><g clip-path="url(#099b8beea1)"><g transform="matrix(1, 0, 0, 1, 329, 921)"><g clip-path="url(#eaec5e1f78)"><g clip-path="url(#a44a8b40ba)"><g clip-path="url(#5e4f6eedc9)"><path fill="#d9d9d9" d="M 0.605469 0.261719 L 113.144531 0.261719 L 113.144531 112.800781 L 0.605469 112.800781 Z M 0.605469 0.261719 " fill-opacity="1" fill-rule="nonzero"/></g></g></g></g></g></g><g clip-path="url(#b75a606e7d)"><g clip-path="url(#bb5807c9ce)"><g transform="matrix(1, 0, 0, 1, 130, 1329)"><g clip-path="url(#6a8527c940)"><g clip-path="url(#4d56d1b1ed)"><g clip-path="url(#f0c436832b)"><path fill="#5170ff" d="M 0.15625 0.144531 L 511.65625 0.144531 L 511.65625 59.855469 L 0.15625 59.855469 Z M 0.15625 0.144531 " fill-opacity="1" fill-rule="nonzero"/></g></g></g></g></g></g><path stroke-linecap="butt" transform="matrix(0.75, 0, 0, 0.75, 42.281004, 1128.251954)" fill="none" stroke-linejoin="miter" d="M 0.000327719 1.002603 L 898.536864 1.002603 " stroke="#000000" stroke-width="2" stroke-opacity="1" stroke-miterlimit="4"/><path stroke-linecap="butt" transform="matrix(0.75, 0, 0, 0.75, 42.281004, 1203.951907)" fill="none" stroke-linejoin="miter" d="M 0.000327719 1.001623 L 898.536864 1.001623 " stroke="#000000" stroke-width="2" stroke-opacity="1" stroke-miterlimit="4"/><path stroke-linecap="butt" transform="matrix(0.75, 0, 0, 0.75, 44.158349, 1275.901981)" fill="none" stroke-linejoin="miter" d="M 0.00240987 1.000483 L 898.538946 1.000483 " stroke="#000000" stroke-width="2" stroke-opacity="1" stroke-miterlimit="4"/></svg>