<svg xmlns="http://www.w3.org/2000/svg" xmlns:xlink="http://www.w3.org/1999/xlink" width="1080" zoomAndPan="magnify" viewBox="0 0 810 1439.999935" height="1920" preserveAspectRatio="xMidYMid meet" version="1.0"><defs><g/><clipPath id="28a9f9820b"><path d="M 0 235 L 810 235 L 810 1439.988281 L 0 1439.988281 Z M 0 235 " clip-rule="nonzero"/></clipPath><clipPath id="ae8eb30ad9"><path d="M 539.855469 240.910156 C 498.328125 237.46875 451.117188 235.210938 404.78125 235.210938 C 358.445312 235.210938 313.859375 237.144531 272.769531 240.589844 C 271.894531 240.695312 271.019531 240.695312 270.144531 240.804688 C 115.839844 254.574219 2.183594 290.929688 0 354.785156 L 0 1439.988281 L 810 1439.988281 L 810 355.589844 C 807.8125 290.714844 695.910156 254.355469 539.855469 240.910156 Z M 539.855469 240.910156 " clip-rule="nonzero"/></clipPath><clipPath id="d027126f2d"><path d="M 0 0.199219 L 810 0.199219 L 810 1204.988281 L 0 1204.988281 Z M 0 0.199219 " clip-rule="nonzero"/></clipPath><clipPath id="0f7c3978e4"><path d="M 539.855469 5.910156 C 498.328125 2.46875 451.117188 0.210938 404.78125 0.210938 C 358.445312 0.210938 313.859375 2.144531 272.769531 5.589844 C 271.894531 5.695312 271.019531 5.695312 270.144531 5.804688 C 115.839844 19.574219 2.183594 55.929688 0 119.785156 L 0 1204.988281 L 810 1204.988281 L 810 120.589844 C 807.8125 55.714844 695.910156 19.355469 539.855469 5.910156 Z M 539.855469 5.910156 " clip-rule="nonzero"/></clipPath><clipPath id="d070b8faec"><rect x="0" width="810" y="0" height="1205"/></clipPath><clipPath id="7b95e3dd70"><path d="M 33.996094 769.800781 L 87.996094 769.800781 L 87.996094 810.300781 L 33.996094 810.300781 Z M 33.996094 769.800781 " clip-rule="nonzero"/></clipPath><clipPath id="4b2557bd9d"><path d="M 34.332031 852.074219 L 87.582031 852.074219 L 87.582031 905.324219 L 34.332031 905.324219 Z M 34.332031 852.074219 " clip-rule="nonzero"/></clipPath><clipPath id="f97104aad9"><path d="M 34.332031 973.570312 L 146.871094 973.570312 L 146.871094 1086.109375 L 34.332031 1086.109375 Z M 34.332031 973.570312 " clip-rule="nonzero"/></clipPath><clipPath id="2c492bb690"><path d="M 90.601562 973.570312 C 59.523438 973.570312 34.332031 998.761719 34.332031 1029.839844 C 34.332031 1060.917969 59.523438 1086.109375 90.601562 1086.109375 C 121.675781 1086.109375 146.871094 1060.917969 146.871094 1029.839844 C 146.871094 998.761719 121.675781 973.570312 90.601562 973.570312 Z M 90.601562 973.570312 " clip-rule="nonzero"/></clipPath><clipPath id="3b3fc37f82"><path d="M 0.332031 0.570312 L 112.871094 0.570312 L 112.871094 113.109375 L 0.332031 113.109375 Z M 0.332031 0.570312 " clip-rule="nonzero"/></clipPath><clipPath id="c612e21620"><path d="M 56.601562 0.570312 C 25.523438 0.570312 0.332031 25.761719 0.332031 56.839844 C 0.332031 87.917969 25.523438 113.109375 56.601562 113.109375 C 87.675781 113.109375 112.871094 87.917969 112.871094 56.839844 C 112.871094 25.761719 87.675781 0.570312 56.601562 0.570312 Z M 56.601562 0.570312 " clip-rule="nonzero"/></clipPath><clipPath id="b9545a8218"><rect x="0" width="113" y="0" height="114"/></clipPath><clipPath id="b7425cf5a4"><path d="M 171.308594 973.570312 L 283.847656 973.570312 L 283.847656 1086.109375 L 171.308594 1086.109375 Z M 171.308594 973.570312 " clip-rule="nonzero"/></clipPath><clipPath id="90e8e543ae"><path d="M 227.578125 973.570312 C 196.5 973.570312 171.308594 998.761719 171.308594 1029.839844 C 171.308594 1060.917969 196.5 1086.109375 227.578125 1086.109375 C 258.65625 1086.109375 283.847656 1060.917969 283.847656 1029.839844 C 283.847656 998.761719 258.65625 973.570312 227.578125 973.570312 Z M 227.578125 973.570312 " clip-rule="nonzero"/></clipPath><clipPath id="86dc1f46b4"><path d="M 0.308594 0.570312 L 112.847656 0.570312 L 112.847656 113.109375 L 0.308594 113.109375 Z M 0.308594 0.570312 " clip-rule="nonzero"/></clipPath><clipPath id="087541707c"><path d="M 56.578125 0.570312 C 25.5 0.570312 0.308594 25.761719 0.308594 56.839844 C 0.308594 87.917969 25.5 113.109375 56.578125 113.109375 C 87.65625 113.109375 112.847656 87.917969 112.847656 56.839844 C 112.847656 25.761719 87.65625 0.570312 56.578125 0.570312 Z M 56.578125 0.570312 " clip-rule="nonzero"/></clipPath><clipPath id="54e9448a52"><rect x="0" width="113" y="0" height="114"/></clipPath><clipPath id="c85b3bdb6c"><path d="M 0 0 L 810 0 L 810 526.734375 L 0 526.734375 Z M 0 0 " clip-rule="nonzero"/></clipPath><clipPath id="a14cb43d1b"><path d="M 28.082031 -13.902344 C 7.347656 -13.902344 -9.621094 0.453125 -9.621094 17.996094 L -9.621094 349.996094 C -9.621094 367.539062 6.953125 384.945312 27.214844 388.675781 L 773.148438 526.082031 C 793.410156 528.59375 809.984375 518.507812 809.984375 500.964844 L 809.984375 17.996094 C 809.984375 0.453125 793.015625 -13.902344 772.28125 -13.902344 Z M 28.082031 -13.902344 " clip-rule="nonzero"/></clipPath><clipPath id="0385c1b352"><path d="M 0 0 L 810 0 L 810 526.734375 L 0 526.734375 Z M 0 0 " clip-rule="nonzero"/></clipPath><clipPath id="c87ed1d2db"><path d="M 28.082031 -13.902344 C 7.347656 -13.902344 -9.621094 0.453125 -9.621094 17.996094 L -9.621094 349.996094 C -9.621094 367.539062 6.953125 384.945312 27.214844 388.675781 L 773.148438 526.082031 C 793.410156 528.59375 809.984375 518.507812 809.984375 500.964844 L 809.984375 17.996094 C 809.984375 0.453125 793.015625 -13.902344 772.28125 -13.902344 Z M 28.082031 -13.902344 " clip-rule="nonzero"/></clipPath><clipPath id="511c927627"><rect x="0" width="810" y="0" height="527"/></clipPath><clipPath id="a046d5c778"><path d="M 246.246094 1329.144531 L 563.921875 1329.144531 L 563.921875 1388.855469 L 246.246094 1388.855469 Z M 246.246094 1329.144531 " clip-rule="nonzero"/></clipPath><clipPath id="0b5dbe83ac"><path d="M 276.101562 1329.144531 L 533.898438 1329.144531 C 550.386719 1329.144531 563.753906 1342.511719 563.753906 1359 C 563.753906 1375.488281 550.386719 1388.855469 533.898438 1388.855469 L 276.101562 1388.855469 C 259.613281 1388.855469 246.246094 1375.488281 246.246094 1359 C 246.246094 1342.511719 259.613281 1329.144531 276.101562 1329.144531 Z M 276.101562 1329.144531 " clip-rule="nonzero"/></clipPath><clipPath id="d312a2cb67"><path d="M 0.246094 0.144531 L 317.761719 0.144531 L 317.761719 59.855469 L 0.246094 59.855469 Z M 0.246094 0.144531 " clip-rule="nonzero"/></clipPath><clipPath id="1fb56d52ad"><path d="M 30.101562 0.144531 L 287.898438 0.144531 C 304.386719 0.144531 317.753906 13.511719 317.753906 30 C 317.753906 46.488281 304.386719 59.855469 287.898438 59.855469 L 30.101562 59.855469 C 13.613281 59.855469 0.246094 46.488281 0.246094 30 C 0.246094 13.511719 13.613281 0.144531 30.101562 0.144531 Z M 30.101562 0.144531 " clip-rule="nonzero"/></clipPath><clipPath id="57d88b3287"><rect x="0" width="318" y="0" height="60"/></clipPath></defs><rect x="-81" width="972" fill="#ffffff" y="-143.999994" height="1727.999922" fill-opacity="1"/><rect x="-81" width="972" fill="#ffffff" y="-143.999994" height="1727.999922" fill-opacity="1"/><g clip-path="url(#28a9f9820b)"><g clip-path="url(#ae8eb30ad9)"><g transform="matrix(1, 0, 0, 1, 0, 235)"><g clip-path="url(#d070b8faec)"><g clip-path="url(#d027126f2d)"><g clip-path="url(#0f7c3978e4)"><path fill="#ffffff" d="M 810 1204.988281 L 0 1204.988281 L 0 -0.519531 L 810 -0.519531 Z M 810 1204.988281 " fill-opacity="1" fill-rule="nonzero"/></g></g></g></g></g></g><g clip-path="url(#7b95e3dd70)"><path fill="#000000" d="M 83.761719 810.296875 L 38.179688 810.296875 C 37.835938 810.253906 37.582031 810.214844 37.425781 810.179688 C 35.964844 809.875 34.753906 808.726562 34.265625 807.359375 C 34.121094 806.953125 34.066406 806.523438 33.996094 806.089844 L 33.996094 773.941406 C 34.074219 773.734375 34.066406 773.503906 34.109375 773.328125 C 34.167969 773.085938 34.226562 772.816406 34.324219 772.59375 C 34.9375 771.152344 36.011719 770.261719 37.546875 769.921875 C 37.6875 769.890625 37.828125 769.871094 37.96875 769.863281 C 38.160156 769.855469 38.34375 769.8125 38.539062 769.8125 C 53.386719 769.804688 68.394531 769.804688 83.558594 769.8125 C 83.675781 769.8125 83.792969 769.820312 83.90625 769.835938 C 84.019531 769.855469 84.132812 769.871094 84.246094 769.886719 C 84.644531 769.9375 84.996094 770.03125 85.300781 770.167969 C 86.75 770.816406 87.824219 772.183594 87.929688 773.808594 C 87.945312 774.074219 87.972656 774.332031 87.972656 774.59375 C 87.910156 782.664062 87.945312 790.742188 87.945312 799.386719 C 87.945312 801.238281 87.992188 803.183594 87.96875 805.136719 C 87.960938 805.734375 87.945312 806.144531 87.925781 806.355469 C 87.804688 807.632812 87.203125 808.675781 86.121094 809.480469 C 85.605469 809.863281 85.027344 810.105469 84.390625 810.207031 C 84.179688 810.242188 83.96875 810.273438 83.761719 810.296875 Z M 60.183594 794.148438 C 60.867188 794.410156 61.671875 794.242188 62.203125 793.746094 C 66.910156 789.359375 71.585938 785.015625 76.234375 780.71875 C 78.921875 778.234375 81.585938 775.765625 84.226562 773.308594 C 84.265625 773.269531 84.265625 773.230469 84.230469 773.191406 C 84.167969 773.125 84.078125 773.09375 83.960938 773.09375 C 68.558594 773.089844 53.34375 773.085938 38.3125 773.085938 C 38.019531 773.085938 37.851562 773.15625 37.652344 773.347656 C 37.621094 773.375 37.621094 773.402344 37.652344 773.429688 C 37.8125 773.570312 37.972656 773.714844 38.136719 773.859375 C 39.929688 775.5 41.9375 777.363281 44.167969 779.445312 C 48.949219 783.914062 53.59375 788.238281 58.09375 792.410156 C 58.496094 792.78125 58.90625 793.160156 59.328125 793.550781 C 59.664062 793.863281 59.949219 794.0625 60.183594 794.148438 Z M 84.613281 777.59375 C 84.613281 777.582031 84.609375 777.574219 84.597656 777.566406 C 84.585938 777.558594 84.574219 777.554688 84.5625 777.566406 C 84.191406 777.851562 83.894531 778.1875 83.542969 778.515625 C 79.722656 782.074219 75.800781 785.734375 71.785156 789.503906 C 71.746094 789.542969 71.703125 789.574219 71.664062 789.601562 C 71.601562 789.644531 71.597656 789.6875 71.65625 789.738281 C 71.789062 789.851562 71.90625 789.957031 72.011719 790.050781 C 74.183594 792.089844 76.519531 794.296875 79.027344 796.675781 C 79.511719 797.132812 79.933594 797.542969 80.300781 797.902344 C 80.699219 798.296875 81.121094 798.664062 81.519531 799.054688 C 81.832031 799.363281 82.136719 799.648438 82.433594 799.921875 C 82.929688 800.371094 83.378906 800.84375 83.878906 801.292969 C 84.113281 801.507812 84.34375 801.730469 84.5625 801.957031 C 84.574219 801.96875 84.582031 801.972656 84.597656 801.96875 C 84.617188 801.964844 84.625 801.957031 84.625 801.941406 C 84.628906 793.839844 84.625 785.738281 84.625 777.644531 C 84.625 777.632812 84.621094 777.625 84.617188 777.613281 C 84.613281 777.609375 84.613281 777.601562 84.613281 777.59375 Z M 37.410156 801.96875 C 37.746094 801.636719 38.105469 801.28125 38.496094 800.910156 C 41.992188 797.582031 45.441406 794.28125 48.851562 791.007812 C 49.238281 790.632812 49.648438 790.25 50.074219 789.847656 C 50.160156 789.773438 50.15625 789.695312 50.074219 789.617188 C 49.910156 789.46875 49.753906 789.324219 49.605469 789.1875 C 45.488281 785.324219 41.609375 781.707031 37.972656 778.332031 C 37.753906 778.128906 37.546875 777.933594 37.347656 777.746094 C 37.339844 777.738281 37.335938 777.738281 37.335938 777.746094 L 37.320312 801.933594 C 37.320312 802.019531 37.347656 802.03125 37.410156 801.96875 Z M 61.152344 797.652344 C 59.515625 797.726562 58.195312 797.132812 57 796 C 55.910156 794.972656 54.5625 793.710938 52.960938 792.214844 C 52.894531 792.152344 52.824219 792.09375 52.746094 792.03125 C 52.691406 791.992188 52.640625 791.996094 52.59375 792.039062 C 52.390625 792.222656 52.203125 792.429688 52.007812 792.613281 C 47.832031 796.609375 43.699219 800.574219 39.601562 804.511719 C 39.085938 805.007812 38.625 805.445312 38.21875 805.8125 C 37.992188 806.023438 37.777344 806.230469 37.574219 806.433594 C 37.519531 806.488281 37.519531 806.542969 37.570312 806.601562 C 37.894531 806.945312 38.179688 806.921875 38.703125 806.921875 C 53.671875 806.921875 68.640625 806.921875 83.605469 806.921875 C 83.976562 806.921875 84.179688 806.886719 84.378906 806.585938 C 84.421875 806.515625 84.414062 806.453125 84.355469 806.398438 C 79.53125 801.828125 74.710938 797.25 69.890625 792.671875 C 69.621094 792.414062 69.394531 792.183594 69.207031 791.980469 C 69.148438 791.914062 69.085938 791.914062 69.023438 791.972656 C 67.664062 793.230469 66.3125 794.507812 64.964844 795.777344 C 64.449219 796.261719 64.050781 796.597656 63.765625 796.78125 C 62.933594 797.320312 62.0625 797.609375 61.152344 797.652344 Z M 61.152344 797.652344 " fill-opacity="1" fill-rule="nonzero"/></g><g clip-path="url(#4b2557bd9d)"><path fill="#000000" d="M 60.957031 852.074219 C 46.273438 852.074219 34.332031 864.015625 34.332031 878.699219 C 34.332031 893.382812 46.273438 905.324219 60.957031 905.324219 C 75.640625 905.324219 87.582031 893.382812 87.582031 878.699219 C 87.582031 864.015625 75.640625 852.074219 60.957031 852.074219 Z M 60.957031 903.457031 C 47.285156 903.457031 36.199219 892.367188 36.199219 878.699219 C 36.199219 865.027344 47.285156 853.941406 60.957031 853.941406 C 74.625 853.941406 85.714844 865.027344 85.714844 878.699219 C 85.714844 892.367188 74.625 903.457031 60.957031 903.457031 Z M 60.957031 903.457031 " fill-opacity="1" fill-rule="nonzero"/></g><path fill="#000000" d="M 72.242188 888.300781 C 73.898438 886.316406 72.679688 885.15625 71.578125 884.320312 C 70.480469 883.488281 67.890625 882.421875 67.09375 883.375 C 66.300781 884.328125 65.027344 885.519531 64.046875 885.261719 C 62.394531 884.824219 60.28125 882.59375 58.671875 880.984375 C 57.0625 879.375 54.828125 877.261719 54.390625 875.605469 C 54.132812 874.625 55.238281 873.425781 56.28125 872.558594 C 57.320312 871.691406 56.226562 869.265625 55.332031 868.074219 C 54.4375 866.882812 53.339844 865.757812 51.351562 867.414062 C 49.367188 869.070312 46.855469 873.472656 51.484375 880.1875 C 52.671875 881.910156 53.691406 882.90625 55.21875 884.433594 C 56.75 885.964844 57.742188 886.984375 59.464844 888.167969 C 66.179688 892.800781 70.585938 890.289062 72.242188 888.300781 Z M 72.242188 888.300781 " fill-opacity="1" fill-rule="nonzero"/><path fill="#000000" d="M 66.679688 879.738281 C 66.4375 879.738281 66.226562 879.660156 66.050781 879.496094 C 65.871094 879.332031 65.773438 879.132812 65.75 878.890625 C 65.699219 878.308594 65.546875 877.75 65.300781 877.222656 C 65.050781 876.691406 64.71875 876.21875 64.308594 875.804688 C 63.894531 875.390625 63.421875 875.058594 62.890625 874.8125 C 62.359375 874.5625 61.804688 874.414062 61.222656 874.359375 C 60.964844 874.335938 60.753906 874.226562 60.585938 874.03125 C 60.421875 873.832031 60.351562 873.605469 60.371094 873.347656 C 60.394531 873.089844 60.507812 872.878906 60.703125 872.714844 C 60.902344 872.546875 61.128906 872.476562 61.386719 872.5 C 62.1875 872.574219 62.949219 872.78125 63.679688 873.121094 C 64.40625 873.460938 65.054688 873.914062 65.625 874.484375 C 66.191406 875.050781 66.648438 875.699219 66.988281 876.425781 C 67.332031 877.15625 67.539062 877.917969 67.613281 878.71875 C 67.636719 878.976562 67.5625 879.203125 67.398438 879.402344 C 67.234375 879.601562 67.023438 879.714844 66.765625 879.738281 Z M 66.679688 879.738281 " fill-opacity="1" fill-rule="nonzero"/><path fill="#000000" d="M 71.023438 879.792969 C 70.773438 879.792969 70.558594 879.707031 70.375 879.53125 C 70.195312 879.359375 70.101562 879.148438 70.089844 878.898438 C 70.0625 878.324219 69.980469 877.753906 69.847656 877.195312 C 69.71875 876.636719 69.535156 876.09375 69.300781 875.566406 C 69.070312 875.042969 68.789062 874.542969 68.464844 874.066406 C 68.140625 873.59375 67.773438 873.152344 67.367188 872.746094 C 66.960938 872.339844 66.519531 871.972656 66.042969 871.648438 C 65.570312 871.320312 65.070312 871.042969 64.542969 870.808594 C 64.019531 870.578125 63.476562 870.394531 62.914062 870.261719 C 62.355469 870.128906 61.789062 870.050781 61.214844 870.023438 C 60.957031 870.011719 60.742188 869.910156 60.566406 869.71875 C 60.390625 869.527344 60.3125 869.304688 60.324219 869.046875 C 60.335938 868.789062 60.4375 868.570312 60.628906 868.398438 C 60.816406 868.222656 61.042969 868.144531 61.300781 868.15625 C 61.988281 868.1875 62.671875 868.285156 63.34375 868.445312 C 64.015625 868.601562 64.667969 868.824219 65.296875 869.101562 C 65.929688 869.382812 66.53125 869.71875 67.097656 870.109375 C 67.667969 870.5 68.199219 870.9375 68.6875 871.425781 C 69.175781 871.914062 69.613281 872.441406 70.003906 873.011719 C 70.394531 873.582031 70.730469 874.183594 71.007812 874.8125 C 71.289062 875.445312 71.507812 876.097656 71.667969 876.769531 C 71.828125 877.441406 71.921875 878.121094 71.957031 878.8125 C 71.96875 879.070312 71.886719 879.292969 71.710938 879.484375 C 71.535156 879.671875 71.320312 879.773438 71.0625 879.785156 Z M 71.023438 879.792969 " fill-opacity="1" fill-rule="nonzero"/><g fill="#000000" fill-opacity="1"><g transform="translate(33.997032, 1186.860573)"><g><path d="M 6.53125 -24.265625 L 6.53125 -2.359375 L 18.21875 -2.359375 L 18.21875 0 L 3.671875 0 L 3.671875 -24.265625 Z M 6.53125 -24.265625 "/></g></g></g><g fill="#000000" fill-opacity="1"><g transform="translate(53.236036, 1186.860573)"><g><path d="M 4.546875 -21.84375 C 3.972656 -21.84375 3.503906 -22.019531 3.140625 -22.375 C 2.785156 -22.738281 2.609375 -23.195312 2.609375 -23.75 C 2.609375 -24.3125 2.785156 -24.769531 3.140625 -25.125 C 3.503906 -25.488281 3.972656 -25.671875 4.546875 -25.671875 C 5.117188 -25.671875 5.582031 -25.488281 5.9375 -25.125 C 6.300781 -24.769531 6.484375 -24.3125 6.484375 -23.75 C 6.484375 -23.195312 6.300781 -22.738281 5.9375 -22.375 C 5.582031 -22.019531 5.117188 -21.84375 4.546875 -21.84375 Z M 3.1875 0 L 3.1875 -18.3125 L 5.890625 -18.3125 L 5.890625 0 Z M 3.1875 0 "/></g></g></g><g fill="#000000" fill-opacity="1"><g transform="translate(62.316053, 1186.860573)"><g><path d="M 3.1875 0 L 3.1875 -18.3125 L 5.765625 -18.3125 L 5.765625 -15.4375 L 6.109375 -15.359375 C 6.710938 -16.429688 7.488281 -17.25 8.4375 -17.8125 C 9.382812 -18.375 10.539062 -18.65625 11.90625 -18.65625 C 14.101562 -18.65625 15.695312 -18.09375 16.6875 -16.96875 C 17.675781 -15.851562 18.171875 -14.125 18.171875 -11.78125 L 18.171875 0 L 15.46875 0 L 15.46875 -11.71875 C 15.46875 -12.820312 15.328125 -13.707031 15.046875 -14.375 C 14.765625 -15.050781 14.328125 -15.539062 13.734375 -15.84375 C 13.140625 -16.144531 12.363281 -16.296875 11.40625 -16.296875 C 9.757812 -16.296875 8.425781 -15.75 7.40625 -14.65625 C 6.394531 -13.570312 5.890625 -11.816406 5.890625 -9.390625 L 5.890625 0 Z M 3.1875 0 "/></g></g></g><g fill="#000000" fill-opacity="1"><g transform="translate(83.397613, 1186.860573)"><g><path d="M 3.1875 0 L 3.1875 -25.671875 L 5.890625 -25.671875 L 5.890625 -10.671875 L 6.34375 -10.671875 L 13.15625 -18.3125 L 15.984375 -18.3125 L 15.984375 -17.9375 L 8.734375 -9.71875 L 16.6875 -0.421875 L 16.6875 0 L 13.65625 0 L 6.34375 -8.46875 L 5.890625 -8.46875 L 5.890625 0 Z M 3.1875 0 "/></g></g></g><g fill="#000000" fill-opacity="1"><g transform="translate(100.428857, 1186.860573)"><g><path d="M 8.34375 0.34375 C 7.195312 0.34375 6.132812 0.191406 5.15625 -0.109375 C 4.175781 -0.410156 3.347656 -0.828125 2.671875 -1.359375 C 1.992188 -1.890625 1.519531 -2.488281 1.25 -3.15625 L 2.84375 -4.8125 L 3.1875 -4.8125 C 3.78125 -3.90625 4.5 -3.222656 5.34375 -2.765625 C 6.1875 -2.304688 7.1875 -2.078125 8.34375 -2.078125 C 9.695312 -2.078125 10.722656 -2.335938 11.421875 -2.859375 C 12.128906 -3.390625 12.484375 -4.125 12.484375 -5.0625 C 12.484375 -5.78125 12.269531 -6.375 11.84375 -6.84375 C 11.414062 -7.3125 10.726562 -7.664062 9.78125 -7.90625 L 6.6875 -8.671875 C 5.039062 -9.066406 3.835938 -9.695312 3.078125 -10.5625 C 2.316406 -11.425781 1.9375 -12.492188 1.9375 -13.765625 C 1.9375 -14.753906 2.191406 -15.617188 2.703125 -16.359375 C 3.210938 -17.097656 3.945312 -17.664062 4.90625 -18.0625 C 5.863281 -18.457031 7 -18.65625 8.3125 -18.65625 C 10 -18.65625 11.328125 -18.421875 12.296875 -17.953125 C 13.265625 -17.484375 14.019531 -16.828125 14.5625 -15.984375 L 13.03125 -14.5 L 12.703125 -14.5 C 12.117188 -15.164062 11.476562 -15.648438 10.78125 -15.953125 C 10.09375 -16.253906 9.269531 -16.40625 8.3125 -16.40625 C 7.113281 -16.40625 6.191406 -16.1875 5.546875 -15.75 C 4.898438 -15.320312 4.578125 -14.695312 4.578125 -13.875 C 4.578125 -13.132812 4.800781 -12.535156 5.25 -12.078125 C 5.707031 -11.628906 6.503906 -11.265625 7.640625 -10.984375 L 10.671875 -10.265625 C 12.265625 -9.890625 13.414062 -9.265625 14.125 -8.390625 C 14.832031 -7.515625 15.1875 -6.414062 15.1875 -5.09375 C 15.1875 -4.019531 14.929688 -3.070312 14.421875 -2.25 C 13.910156 -1.4375 13.140625 -0.800781 12.109375 -0.34375 C 11.085938 0.113281 9.832031 0.34375 8.34375 0.34375 Z M 8.34375 0.34375 "/></g></g></g><g clip-path="url(#f97104aad9)"><g clip-path="url(#2c492bb690)"><g transform="matrix(1, 0, 0, 1, 34, 973)"><g clip-path="url(#b9545a8218)"><g clip-path="url(#3b3fc37f82)"><g clip-path="url(#c612e21620)"><path fill="#d9d9d9" d="M 0.332031 0.570312 L 112.871094 0.570312 L 112.871094 113.109375 L 0.332031 113.109375 Z M 0.332031 0.570312 " fill-opacity="1" fill-rule="nonzero"/></g></g></g></g></g></g><g clip-path="url(#b7425cf5a4)"><g clip-path="url(#90e8e543ae)"><g transform="matrix(1, 0, 0, 1, 171, 973)"><g clip-path="url(#54e9448a52)"><g clip-path="url(#86dc1f46b4)"><g clip-path="url(#087541707c)"><path fill="#d9d9d9" d="M 0.308594 0.570312 L 112.847656 0.570312 L 112.847656 113.109375 L 0.308594 113.109375 Z M 0.308594 0.570312 " fill-opacity="1" fill-rule="nonzero"/></g></g></g></g></g></g><g clip-path="url(#c85b3bdb6c)"><g clip-path="url(#a14cb43d1b)"><g transform="matrix(1, 0, 0, 1, 0, -0.000000000000101068)"><g clip-path="url(#511c927627)"><g clip-path="url(#0385c1b352)"><g clip-path="url(#c87ed1d2db)"><path fill="#919191" d="M -9.621094 -13.902344 L 810 -13.902344 L 810 526.734375 L -9.621094 526.734375 Z M -9.621094 -13.902344 " fill-opacity="1" fill-rule="nonzero"/></g></g></g></g></g></g><g clip-path="url(#a046d5c778)"><g clip-path="url(#0b5dbe83ac)"><g transform="matrix(1, 0, 0, 1, 246, 1329)"><g clip-path="url(#57d88b3287)"><g clip-path="url(#d312a2cb67)"><g clip-path="url(#1fb56d52ad)"><path fill="#000000" d="M 0.246094 0.144531 L 317.6875 0.144531 L 317.6875 59.855469 L 0.246094 59.855469 Z M 0.246094 0.144531 " fill-opacity="1" fill-rule="nonzero"/></g></g></g></g></g></g></svg>