<?xml version="1.0" standalone="no"?>
<!DOCTYPE svg PUBLIC "-//W3C//DTD SVG 20010904//EN"
 "http://www.w3.org/TR/2001/REC-SVG-20010904/DTD/svg10.dtd">
<svg version="1.0" xmlns="http://www.w3.org/2000/svg"
 width="1622.000000pt" height="1818.000000pt" viewBox="0 0 1622.000000 1818.000000"
 preserveAspectRatio="xMidYMid meet">

<g transform="translate(0.000000,1818.000000) scale(0.100000,-0.100000)"
fill="#000000" stroke="none">
<path d="M6810 18164 c-25 -2 -108 -8 -185 -14 -1061 -81 -2145 -420 -3072
-963 -821 -481 -1536 -1117 -2105 -1875 -413 -548 -760 -1188 -1002 -1843
-377 -1023 -511 -2142 -391 -3244 150 -1360 688 -2656 1549 -3725 328 -408
759 -832 1164 -1147 1147 -892 2518 -1410 3980 -1504 241 -15 849 -7 1077 15
1626 157 3088 816 4276 1928 261 245 389 392 509 583 38 61 76 119 84 131 25
35 249 180 369 239 306 149 619 199 1034 164 391 -32 656 -142 799 -332 114
-152 164 -307 184 -574 54 -705 -305 -1196 -1050 -1438 -225 -73 -537 -127
-805 -140 -66 -3 -158 -8 -204 -11 l-84 -6 7 -177 c3 -97 9 -236 13 -309 l6
-132 196 0 c755 0 1287 -123 1622 -375 269 -201 469 -535 543 -906 38 -188 44
-470 16 -699 -88 -706 -471 -1140 -1120 -1269 -175 -34 -315 -44 -554 -38
-320 8 -543 49 -743 135 -163 70 -235 121 -392 281 -222 226 -317 353 -463
620 -103 187 -143 246 -212 308 -71 65 -133 87 -239 86 -66 0 -87 -5 -143 -33
-112 -55 -169 -163 -181 -342 -18 -270 114 -561 377 -832 532 -548 1415 -805
2405 -700 629 67 1164 303 1539 680 382 384 596 911 596 1472 0 662 -289 1197
-840 1555 -295 191 -711 333 -1105 377 -182 20 -185 21 -185 35 0 16 5 18 150
41 334 53 681 175 920 323 573 357 842 972 720 1649 -65 359 -249 686 -512
909 -310 263 -705 420 -1233 490 -189 25 -670 24 -850 -1 -301 -42 -516 -100
-761 -207 l-92 -40 -93 -127 c-205 -278 -419 -522 -688 -784 -877 -857 -1986
-1441 -3191 -1682 -1151 -230 -2372 -134 -3457 270 -1838 685 -3254 2159
-3857 4014 -418 1285 -414 2687 10 3969 125 377 348 872 544 1206 722 1230
1816 2175 3140 2712 173 70 503 181 695 233 988 268 2063 292 3065 69 1605
-357 3015 -1328 3925 -2704 489 -739 816 -1562 965 -2425 71 -417 95 -741 87
-1209 -6 -350 -19 -524 -63 -821 -114 -777 -381 -1552 -767 -2223 -96 -168
-97 -166 29 -107 142 65 328 211 539 424 158 159 277 307 434 541 347 518 512
986 575 1635 133 1358 -114 2690 -725 3912 -820 1640 -2244 2907 -3968 3533
-575 208 -1165 340 -1796 401 -159 15 -890 28 -1015 18z"/>
</g>
</svg>
